<svg width="329" height="319" viewBox="0 0 329 319" fill="none" xmlns="http://www.w3.org/2000/svg">
<g clip-path="url(#clip0_2_6631)">
<path d="M51.4597 36.81C51.4568 32.8552 50.5439 28.9541 48.7919 25.4093C47.0399 21.8646 44.4958 18.7714 41.3569 16.3696C38.218 13.9678 34.5687 12.322 30.6918 11.5598C26.815 10.7975 22.8149 10.9393 19.0017 11.9742C15.1885 13.009 11.6646 14.9091 8.70325 17.5271C5.74195 20.1452 3.42281 23.4107 1.92567 27.0707C0.428529 30.7306 -0.206389 34.6865 0.0701497 38.6317C0.346689 42.5769 1.52725 46.4053 3.5203 49.8201L3.59775 49.9188C4.58343 51.582 5.82258 52.7378 7.06876 54.5209L22.0089 74.3249C22.4413 74.8999 23.0012 75.3664 23.6445 75.6877C24.2878 76.0089 24.9969 76.1761 25.7158 76.1761C26.4347 76.1761 27.1438 76.0089 27.7871 75.6877C28.4304 75.3664 28.9903 74.8999 29.4227 74.3249L44.1305 54.8451C45.4665 53.2708 46.7146 51.6238 47.869 49.9117L47.9183 49.8412C50.2412 45.8925 51.4641 41.3926 51.4597 36.81ZM25.7334 48.0229C23.4926 48.0243 21.3016 47.3604 19.4378 46.1153C17.5739 44.8701 16.1209 43.0995 15.2624 41.0276C14.4039 38.9557 14.1785 36.6754 14.6148 34.4752C15.0511 32.2751 16.1295 30.2539 17.7135 28.6673C19.2975 27.0807 21.316 26 23.5137 25.5618C25.7114 25.1237 27.9895 25.3479 30.0599 26.2059C32.1303 27.064 33.8999 28.5175 35.145 30.3824C36.3901 32.2474 37.0547 34.4401 37.0547 36.6832C37.0547 39.6894 35.8621 42.5727 33.7392 44.6991C31.6162 46.8255 28.7366 48.0211 25.7334 48.0229Z" fill="#F5F5F5"/>
<path d="M329 193.022C329.002 191.277 328.602 189.554 327.831 187.988C327.06 186.422 325.939 185.055 324.554 183.994C323.169 182.932 321.559 182.205 319.848 181.867C318.136 181.53 316.371 181.593 314.687 182.05C313.004 182.507 311.449 183.347 310.143 184.503C308.836 185.66 307.814 187.103 307.155 188.719C306.497 190.336 306.219 192.082 306.345 193.824C306.47 195.565 306.995 197.254 307.878 198.759L307.913 198.801C308.343 199.541 308.892 200.063 309.441 200.831L316.024 209.563C316.215 209.817 316.462 210.023 316.746 210.165C317.03 210.307 317.344 210.381 317.661 210.381C317.979 210.381 318.292 210.307 318.576 210.165C318.86 210.023 319.107 209.817 319.298 209.563L325.775 200.979C326.363 200.281 326.913 199.551 327.423 198.794V198.759C328.454 197.024 328.999 195.042 329 193.022ZM317.658 197.956C316.67 197.956 315.705 197.663 314.884 197.114C314.063 196.565 313.424 195.784 313.046 194.871C312.668 193.958 312.569 192.953 312.762 191.984C312.954 191.015 313.43 190.124 314.128 189.426C314.826 188.727 315.715 188.251 316.684 188.058C317.652 187.865 318.656 187.964 319.568 188.342C320.48 188.721 321.26 189.361 321.808 190.183C322.357 191.005 322.649 191.971 322.649 192.959C322.651 193.616 322.523 194.268 322.273 194.875C322.023 195.483 321.656 196.036 321.192 196.501C320.729 196.967 320.178 197.336 319.571 197.588C318.965 197.84 318.314 197.97 317.658 197.97V197.956Z" fill="#F5F5F5"/>
<path d="M289.884 282.579C300.976 271.476 300.976 253.475 289.884 242.372C278.793 231.269 260.81 231.269 249.718 242.372C238.627 253.475 238.627 271.476 249.718 282.579C260.81 293.682 278.793 293.682 289.884 282.579Z" fill="#F5F5F5"/>
<path d="M269.803 286.137C265.127 286.137 260.556 284.749 256.668 282.148C252.78 279.548 249.749 275.851 247.96 271.527C246.171 267.203 245.702 262.444 246.615 257.853C247.527 253.263 249.779 249.046 253.085 245.736C256.391 242.426 260.604 240.172 265.19 239.259C269.776 238.346 274.53 238.814 278.85 240.606C283.17 242.397 286.863 245.43 289.461 249.322C292.058 253.214 293.445 257.79 293.445 262.47C293.439 268.745 290.947 274.762 286.514 279.199C282.082 283.636 276.071 286.131 269.803 286.137ZM269.803 242.857C265.926 242.851 262.136 243.996 258.91 246.148C255.684 248.299 253.168 251.36 251.681 254.943C250.193 258.526 249.801 262.471 250.553 266.277C251.305 270.083 253.169 273.581 255.907 276.327C258.645 279.073 262.136 280.944 265.937 281.704C269.738 282.464 273.679 282.078 277.261 280.596C280.843 279.113 283.906 276.6 286.061 273.375C288.216 270.15 289.367 266.358 289.368 262.477C289.361 257.283 287.298 252.302 283.631 248.627C279.964 244.951 274.992 242.879 269.803 242.864V242.857Z" fill="white"/>
<path d="M269.655 270.568C267.932 270.569 266.247 270.059 264.814 269.102C263.38 268.144 262.263 266.783 261.603 265.19C260.943 263.596 260.77 261.843 261.106 260.151C261.441 258.459 262.271 256.905 263.489 255.686C264.708 254.466 266.26 253.635 267.95 253.299C269.641 252.963 271.392 253.136 272.984 253.797C274.576 254.458 275.936 255.576 276.892 257.011C277.849 258.446 278.358 260.132 278.357 261.857C278.353 264.166 277.435 266.38 275.804 268.013C274.173 269.645 271.962 270.564 269.655 270.568ZM269.655 257.177C268.733 257.177 267.832 257.451 267.065 257.964C266.299 258.476 265.702 259.205 265.349 260.058C264.996 260.91 264.904 261.848 265.084 262.753C265.263 263.658 265.707 264.49 266.359 265.142C267.011 265.795 267.841 266.239 268.746 266.419C269.65 266.599 270.587 266.507 271.438 266.153C272.29 265.8 273.018 265.202 273.53 264.435C274.042 263.668 274.316 262.766 274.316 261.843C274.31 260.609 273.817 259.427 272.944 258.555C272.07 257.684 270.888 257.193 269.655 257.192V257.177Z" fill="white"/>
<path d="M269.648 261.857H258.643L260.558 265.254L234.656 277.137L235.529 278.595L261.516 266.847L263.304 270.223L269.648 261.857Z" fill="#E0E0E0"/>
<path d="M234.656 277.136L234.381 276.869C233.715 276.219 232.888 275.758 231.985 275.532C231.082 275.307 230.135 275.326 229.242 275.586L218.906 278.595L224.658 281.125L222.349 287.278L232.044 283.818C233.108 283.438 234.022 282.724 234.65 281.784C235.277 280.843 235.586 279.725 235.529 278.595L234.656 277.136Z" fill="#E0E0E0"/>
<path d="M109.319 283.099L109.531 283.029L110.143 282.852L112.495 282.183L121.302 279.709L121.225 279.85L119.725 274.86V274.783L119.796 274.719C122.237 272.675 124.313 270.23 125.935 267.488C126.84 265.944 127.532 264.285 127.991 262.555C128.473 260.716 128.585 258.8 128.322 256.917C127.683 252.827 125.638 249.089 122.542 246.345C119.187 243.417 115.003 241.611 110.573 241.179C107.246 240.896 103.908 241.566 100.948 243.11C98.097 244.5 95.6345 246.575 93.7807 249.15C92.0656 251.574 91.0035 254.399 90.697 257.354C90.6547 258.059 90.5421 258.763 90.5561 259.468L90.6195 261.533C90.7314 262.854 90.9671 264.161 91.3236 265.437C91.6731 266.638 92.145 267.8 92.7317 268.905C93.3083 269.932 93.9877 270.898 94.7594 271.787C96.1715 273.372 97.837 274.711 99.6878 275.748C102.39 277.279 105.349 278.303 108.418 278.772H108.425V278.814C108.714 280.224 108.939 281.281 109.129 282.014C109.2 282.366 109.256 282.641 109.298 282.838C109.333 283.029 109.347 283.127 109.347 283.127C109.318 283.044 109.295 282.959 109.277 282.873L109.08 282.07C108.904 281.33 108.658 280.252 108.327 278.842L108.383 278.899C105.279 278.477 102.281 277.476 99.547 275.946C97.6728 274.906 95.9855 273.56 94.5552 271.964C93.7475 271.068 93.0393 270.087 92.443 269.039C91.8296 267.919 91.3364 266.738 90.9715 265.515C90.6112 264.218 90.3754 262.889 90.2675 261.547C90.2675 260.842 90.2182 260.138 90.1971 259.433C90.1759 258.728 90.2886 258.023 90.3308 257.318C90.6354 254.303 91.7121 251.416 93.4569 248.939C95.344 246.311 97.8525 244.192 100.758 242.772C103.788 241.184 107.208 240.5 110.615 240.799C115.133 241.227 119.402 243.069 122.816 246.063C124.427 247.481 125.766 249.182 126.766 251.081C127.035 251.533 127.27 252.004 127.47 252.491C127.688 252.946 127.871 253.418 128.019 253.9C128.167 254.394 128.329 254.873 128.463 255.359C128.596 255.846 128.646 256.353 128.73 256.846C128.996 258.775 128.874 260.737 128.371 262.618C127.895 264.374 127.185 266.057 126.259 267.622C124.6 270.385 122.487 272.846 120.007 274.903L120.056 274.762C120.584 276.58 121.077 278.285 121.521 279.787V279.899L121.408 279.935L112.509 282.303L110.164 282.916L109.566 283.064L109.319 283.099Z" fill="#E0E0E0"/>
<path d="M122.415 283.113C120.413 283.855 118.37 284.481 116.297 284.988C114.254 285.614 112.176 286.115 110.073 286.489C112.077 285.747 114.122 285.121 116.198 284.614C118.238 283.989 120.314 283.488 122.415 283.113Z" fill="#E0E0E0"/>
<path d="M119.69 288.871C119.062 289.318 118.339 289.612 117.578 289.731C116.847 289.968 116.072 290.035 115.311 289.928C116.016 289.658 116.747 289.464 117.493 289.35C118.208 289.118 118.944 288.957 119.69 288.871Z" fill="#E0E0E0"/>
<path d="M111.833 282.415C111.804 282.35 111.783 282.281 111.769 282.211L111.6 281.612C111.46 281.062 111.263 280.287 111.009 279.307C110.509 277.27 109.791 274.374 108.897 270.808C108.453 269.003 107.975 267.037 107.489 264.93C107.38 264.41 107.169 263.917 106.869 263.478C106.744 263.263 106.545 263.102 106.309 263.023C106.073 262.944 105.817 262.953 105.588 263.048C105.368 263.194 105.191 263.395 105.075 263.632C104.959 263.868 104.907 264.131 104.926 264.394C104.94 264.96 105.163 265.5 105.553 265.909C105.969 266.34 106.482 266.663 107.05 266.852C107.617 267.041 108.222 267.09 108.812 266.995C109.424 266.892 110 266.64 110.491 266.261C110.982 265.883 111.373 265.389 111.629 264.824C112.204 263.637 112.348 262.286 112.037 261.004C111.916 260.357 111.613 259.758 111.164 259.278C110.966 259.027 110.679 258.863 110.363 258.819C110.046 258.776 109.726 258.856 109.467 259.043C109.208 259.23 109.032 259.51 108.974 259.824C108.916 260.138 108.982 260.463 109.157 260.729C109.467 261.305 109.921 261.791 110.474 262.139C111.503 262.971 112.745 263.496 114.058 263.654C114.686 263.711 115.318 263.616 115.902 263.379C116.468 263.13 116.963 262.745 117.346 262.259C117.722 261.792 117.948 261.222 117.993 260.624C118.017 260.339 117.982 260.052 117.891 259.78C117.8 259.509 117.655 259.259 117.465 259.045C117.298 258.83 117.072 258.669 116.814 258.58C116.557 258.491 116.279 258.479 116.015 258.545C115.764 258.636 115.538 258.784 115.354 258.977C115.169 259.17 115.032 259.403 114.952 259.658C114.6 260.694 114.91 261.85 115.029 262.914C115.374 265.029 115.733 267.044 116.106 268.855C116.811 272.464 117.423 275.389 117.838 277.44C118.036 278.433 118.198 279.216 118.31 279.779C118.359 280.026 118.395 280.223 118.423 280.385C118.433 280.456 118.433 280.527 118.423 280.597C118.394 280.531 118.373 280.463 118.359 280.393C118.317 280.237 118.268 280.04 118.205 279.793C118.078 279.237 117.895 278.461 117.662 277.475C117.205 275.459 116.557 272.541 115.811 268.912C115.445 267.101 115.043 265.113 114.684 262.964C114.607 262.421 114.515 261.878 114.459 261.307C114.377 260.717 114.425 260.115 114.6 259.545C114.699 259.24 114.867 258.961 115.09 258.731C115.314 258.5 115.586 258.323 115.888 258.213C116.215 258.131 116.558 258.142 116.879 258.247C117.199 258.352 117.483 258.546 117.698 258.805C117.92 259.053 118.09 259.343 118.198 259.658C118.305 259.973 118.348 260.306 118.324 260.638C118.285 261.311 118.039 261.956 117.62 262.484C117.201 263.021 116.657 263.447 116.036 263.725C115.396 263.986 114.704 264.092 114.015 264.035C112.628 263.879 111.312 263.34 110.213 262.477C109.614 262.075 109.128 261.524 108.805 260.877C108.603 260.529 108.537 260.118 108.621 259.723C108.706 259.329 108.934 258.98 109.261 258.745C109.588 258.51 109.991 258.406 110.391 258.452C110.791 258.498 111.159 258.692 111.424 258.996C111.932 259.525 112.275 260.191 112.41 260.913C112.744 262.285 112.587 263.732 111.967 265C111.677 265.621 111.239 266.16 110.691 266.571C110.143 266.982 109.503 267.251 108.826 267.354C108.177 267.458 107.512 267.402 106.888 267.191C106.265 266.98 105.703 266.62 105.25 266.142C104.808 265.663 104.558 265.039 104.546 264.387C104.529 264.062 104.601 263.738 104.752 263.449C104.903 263.16 105.128 262.917 105.405 262.745C105.555 262.673 105.719 262.631 105.886 262.623C106.052 262.614 106.219 262.639 106.376 262.696C106.664 262.816 106.909 263.02 107.08 263.281C107.419 263.754 107.659 264.291 107.784 264.859C108.284 266.974 108.749 268.94 109.193 270.744C110.023 274.324 110.699 277.228 111.178 279.272C111.403 280.259 111.572 281.041 111.699 281.598C111.748 281.844 111.791 282.042 111.826 282.204C111.839 282.273 111.842 282.345 111.833 282.415Z" fill="#E0E0E0"/>
<path d="M121.971 285.742C120.37 286.383 118.722 286.904 117.043 287.299C115.387 287.819 113.695 288.214 111.981 288.483C113.583 287.844 115.23 287.323 116.909 286.926C118.566 286.41 120.258 286.015 121.971 285.742Z" fill="#E0E0E0"/>
<path d="M313.356 318.288C313.356 318.387 246.16 318.471 163.293 318.471C80.4247 318.471 13.2222 318.387 13.2222 318.288C13.2222 318.19 80.3966 318.105 163.293 318.105C246.189 318.105 313.356 318.183 313.356 318.288Z" fill="#263238"/>
<path d="M300.95 34.7876H25.7686V52.435H300.95V34.7876Z" fill="#E0E0E0"/>
<path d="M300.915 68.6445H25.7334V223.13H300.915V68.6445Z" fill="white"/>
<path d="M25.7686 52.308H63.5555L67.3011 41.3911H128.547L132.293 52.308H300.957V69.0181H25.7686V52.308Z" fill="#EBEBEB"/>
<path d="M34.851 41.8281C34.851 42.2382 34.7294 42.6391 34.5016 42.98C34.2739 43.3209 33.9502 43.5865 33.5715 43.7431C33.1929 43.8997 32.7763 43.9403 32.3746 43.8598C31.9729 43.7793 31.6041 43.5813 31.3149 43.2908C31.0257 43.0003 30.8291 42.6304 30.75 42.228C30.6709 41.8256 30.7129 41.4088 30.8707 41.0303C31.0284 40.6518 31.2948 40.3287 31.6362 40.1019C31.9775 39.8751 32.3784 39.7547 32.7881 39.7561C33.0596 39.7561 33.3284 39.8098 33.5791 39.914C33.8299 40.0182 34.0576 40.1709 34.2492 40.3634C34.4409 40.5559 34.5927 40.7844 34.696 41.0357C34.7992 41.2871 34.8519 41.5564 34.851 41.8281Z" fill="#263238"/>
<path d="M41.2509 41.8281C41.2509 42.2382 41.1293 42.6391 40.9015 42.98C40.6738 43.3209 40.3501 43.5865 39.9714 43.7431C39.5928 43.8997 39.1762 43.9403 38.7745 43.8598C38.3728 43.7793 38.004 43.5813 37.7148 43.2908C37.4256 43.0003 37.229 42.6304 37.1499 42.228C37.0708 41.8256 37.1128 41.4088 37.2706 41.0303C37.4283 40.6518 37.6947 40.3287 38.0361 40.1019C38.3774 39.8751 38.7783 39.7547 39.188 39.7561C39.4595 39.7561 39.7283 39.8098 39.979 39.914C40.2298 40.0182 40.4575 40.1709 40.6492 40.3634C40.8408 40.5559 40.9926 40.7844 41.0959 41.0357C41.1991 41.2871 41.2518 41.5564 41.2509 41.8281Z" fill="#263238"/>
<path d="M47.6508 41.8281C47.6508 42.2382 47.5292 42.6391 47.3014 42.98C47.0737 43.3209 46.75 43.5865 46.3713 43.7431C45.9927 43.8997 45.5761 43.9403 45.1744 43.8598C44.7727 43.7793 44.4039 43.5813 44.1147 43.2908C43.8255 43.0003 43.6289 42.6304 43.5498 42.228C43.4707 41.8256 43.5127 41.4088 43.6705 41.0303C43.8282 40.6518 44.0946 40.3287 44.436 40.1019C44.7773 39.8751 45.1782 39.7547 45.5879 39.7561C45.8594 39.7561 46.1282 39.8098 46.3789 39.914C46.6297 40.0182 46.8574 40.1709 47.049 40.3634C47.2407 40.5559 47.3925 40.7844 47.4958 41.0357C47.599 41.2871 47.6517 41.5564 47.6508 41.8281Z" fill="#263238"/>
<path d="M270.535 65.6916H81.7413C80.3521 65.6916 79.0197 65.1391 78.0373 64.1558C77.055 63.1724 76.5031 61.8387 76.5031 60.4481C76.5031 59.0574 77.055 57.7237 78.0373 56.7404C79.0197 55.757 80.3521 55.2046 81.7413 55.2046H270.535C271.925 55.2046 273.258 55.7568 274.241 56.7399C275.225 57.7231 275.778 59.0568 275.78 60.4481C275.778 61.8394 275.225 63.1731 274.241 64.1562C273.258 65.1394 271.925 65.6916 270.535 65.6916Z" fill="#FAFAFA"/>
<path d="M86.2614 61.1458V62.9218H85.3672V61.3149C85.3672 60.8145 85.1349 60.6101 84.7406 60.6101C84.3463 60.6101 84.0366 60.878 84.0366 61.4418V62.9782H83.079V58.6509H83.9802V60.145C84.1111 60.0223 84.265 59.9267 84.433 59.8638C84.6009 59.8009 84.7797 59.7719 84.9589 59.7785C85.1393 59.7632 85.3209 59.7887 85.4902 59.8529C85.6595 59.9172 85.8123 60.0187 85.9373 60.1498C86.0623 60.281 86.1563 60.4386 86.2124 60.611C86.2684 60.7833 86.2852 60.9661 86.2614 61.1458Z" fill="#E0E0E0"/>
<path d="M89.0706 62.7668C88.86 62.8996 88.6154 62.9682 88.3665 62.9641C88.214 62.9863 88.0585 62.9734 87.9117 62.9264C87.7649 62.8794 87.6308 62.7996 87.5194 62.6929C87.4081 62.5862 87.3226 62.4556 87.2693 62.3108C87.216 62.1661 87.1963 62.0111 87.2119 61.8576V60.6102H86.7331V59.9054H87.2119V59.1372H88.106V59.9054H88.8805V60.6102H88.106V61.8717C88.0997 61.9251 88.1052 61.9792 88.1221 62.0302C88.139 62.0813 88.167 62.1279 88.2039 62.1669C88.2409 62.2059 88.286 62.2363 88.336 62.256C88.386 62.2756 88.4397 62.284 88.4932 62.2805C88.6219 62.282 88.7476 62.2425 88.8523 62.1677L89.0706 62.7668Z" fill="#E0E0E0"/>
<path d="M91.5278 62.7668C91.3177 62.9007 91.0727 62.9694 90.8237 62.9641C90.6715 62.9849 90.5165 62.971 90.3703 62.9235C90.2242 62.876 90.0906 62.7961 89.9796 62.6898C89.8686 62.5834 89.7831 62.4533 89.7293 62.3092C89.6755 62.1652 89.6549 62.0108 89.669 61.8576V60.6102H89.1973V59.9054H89.669V59.1372H90.5702V59.9054H91.3377V60.6102H90.5702V61.8717C90.5628 61.9247 90.5672 61.9787 90.5833 62.0298C90.5993 62.0808 90.6266 62.1276 90.663 62.1668C90.6994 62.206 90.7441 62.2365 90.7939 62.2562C90.8436 62.2759 90.8971 62.2842 90.9504 62.2805C91.0811 62.2811 91.2088 62.2418 91.3165 62.1677L91.5278 62.7668Z" fill="#E0E0E0"/>
<path d="M95.3719 61.3714C95.3847 61.5791 95.3541 61.7872 95.2823 61.9825C95.2104 62.1777 95.0988 62.3559 94.9544 62.5057C94.8101 62.6555 94.6362 62.7736 94.4439 62.8525C94.2515 62.9314 94.0449 62.9695 93.8371 62.9642C93.6633 62.9729 93.4898 62.944 93.3282 62.8796C93.1666 62.8151 93.0208 62.7166 92.9007 62.5906V64.0002H92.0065V59.7716H92.8655V60.131C92.9868 59.9953 93.1372 59.8887 93.3054 59.8191C93.4737 59.7496 93.6554 59.7189 93.8371 59.7293C94.0494 59.7233 94.2605 59.7626 94.4565 59.8445C94.6525 59.9264 94.8289 60.049 94.974 60.2042C95.1191 60.3595 95.2296 60.5438 95.2982 60.745C95.3668 60.9462 95.3919 61.1597 95.3719 61.3714ZM94.4637 61.3714C94.45 61.2187 94.3922 61.0734 94.2974 60.953C94.2025 60.8327 94.0748 60.7426 93.9296 60.6937C93.7845 60.6449 93.6283 60.6394 93.4801 60.6779C93.3319 60.7164 93.1981 60.7973 93.095 60.9107C92.992 61.0241 92.9241 61.165 92.8998 61.3163C92.8754 61.4677 92.8956 61.6228 92.9579 61.7628C93.0201 61.9029 93.1218 62.0217 93.2504 62.1049C93.379 62.1881 93.529 62.232 93.6822 62.2312C93.7916 62.2318 93.9 62.2093 94.0003 62.1652C94.1005 62.1211 94.1904 62.0565 94.2641 61.9754C94.3377 61.8943 94.3936 61.7987 94.428 61.6946C94.4624 61.5906 94.4745 61.4805 94.4637 61.3714Z" fill="#E0E0E0"/>
<path d="M95.7521 60.3353C95.7511 60.2616 95.7651 60.1885 95.7932 60.1204C95.8213 60.0524 95.863 59.9907 95.9157 59.9393C95.9684 59.8879 96.031 59.8477 96.0997 59.8213C96.1684 59.7948 96.2418 59.7827 96.3154 59.7856C96.3886 59.7827 96.4616 59.7948 96.53 59.8213C96.5983 59.8478 96.6605 59.8881 96.7126 59.9396C96.7648 59.9912 96.8058 60.0529 96.8331 60.1209C96.8605 60.189 96.8735 60.262 96.8716 60.3353C96.8735 60.4093 96.8604 60.4829 96.8332 60.5517C96.8061 60.6205 96.7653 60.6831 96.7133 60.7357C96.6614 60.7883 96.5994 60.83 96.531 60.858C96.4626 60.8861 96.3893 60.9001 96.3154 60.8991C96.2409 60.9011 96.1668 60.8878 96.0975 60.8601C96.0283 60.8325 95.9655 60.791 95.9128 60.7383C95.8601 60.6855 95.8187 60.6226 95.791 60.5533C95.7634 60.4841 95.7502 60.4099 95.7521 60.3353ZM95.7521 62.4003C95.7511 62.3266 95.7651 62.2535 95.7932 62.1854C95.8213 62.1173 95.863 62.0557 95.9157 62.0043C95.9684 61.9528 96.031 61.9127 96.0997 61.8862C96.1684 61.8598 96.2418 61.8477 96.3154 61.8506C96.3886 61.8476 96.4616 61.8598 96.53 61.8863C96.5983 61.9128 96.6605 61.9531 96.7126 62.0046C96.7648 62.0561 96.8058 62.1179 96.8331 62.1859C96.8605 62.254 96.8735 62.3269 96.8716 62.4003C96.8735 62.4742 96.8604 62.5478 96.8332 62.6166C96.8061 62.6854 96.7653 62.748 96.7133 62.8007C96.6614 62.8533 96.5994 62.8949 96.531 62.923C96.4626 62.9511 96.3893 62.9651 96.3154 62.9641C96.2409 62.966 96.1668 62.9528 96.0975 62.9251C96.0283 62.8975 95.9655 62.856 95.9128 62.8033C95.8601 62.7505 95.8187 62.6876 95.791 62.6183C95.7634 62.549 95.7502 62.4748 95.7521 62.4003Z" fill="#E0E0E0"/>
<path d="M99.0753 58.073H99.8779L97.9769 63.4927H97.1602L99.0753 58.073Z" fill="#E0E0E0"/>
<path d="M100.913 58.073H101.708L99.8145 63.4927H99.0119L100.913 58.073Z" fill="#E0E0E0"/>
<path d="M270.359 96.4265H105.884C104.663 96.4275 103.455 96.1877 102.328 95.721C101.2 95.2542 100.175 94.5696 99.3124 93.7063C98.4493 92.843 97.7646 91.8179 97.2975 90.6896C96.8304 89.5614 96.5899 88.352 96.5899 87.1306C96.5918 84.6646 97.5718 82.3001 99.3144 80.557C101.057 78.8139 103.42 77.8347 105.884 77.8347H270.359C272.822 77.8347 275.184 78.8141 276.925 80.5574C278.667 82.3007 279.645 84.6652 279.645 87.1306C279.646 88.3516 279.407 89.5609 278.94 90.6891C278.474 91.8174 277.79 92.8425 276.928 93.7059C276.065 94.5693 275.041 95.254 273.914 95.7208C272.787 96.1877 271.579 96.4275 270.359 96.4265Z" fill="#FAFAFA"/>
<path d="M270.359 96.4268C271.671 96.3985 272.964 96.106 274.161 95.567C275.608 94.9066 276.86 93.8819 277.794 92.5928C278.523 91.6126 279.049 90.4963 279.341 89.3095C279.633 88.1227 279.684 86.8894 279.493 85.6823C279.301 84.4752 278.87 83.3187 278.225 82.2809C277.581 81.243 276.735 80.3448 275.738 79.6392C274.492 78.7385 273.039 78.1664 271.514 77.9759C270.696 77.9096 269.876 77.886 269.056 77.9054H266.487H242.844L105.919 77.9548C103.886 77.9573 101.913 78.64 100.313 79.8944C98.7129 81.1487 97.5777 82.9026 97.088 84.8772C96.5983 86.8517 96.7822 88.9334 97.6105 90.7912C98.4388 92.649 99.8639 94.1763 101.659 95.13C103.07 95.8606 104.641 96.2242 106.229 96.1872H152.077L213.633 96.2294L255.137 96.2858L266.402 96.3211H255.137L213.633 96.3845L152.077 96.4197H115.726H106.2C104.553 96.4623 102.922 96.0839 101.462 95.3203C99.5983 94.3266 98.1194 92.7383 97.2602 90.8074C96.401 88.8766 96.2106 86.7137 96.7194 84.6622C97.2281 82.6107 98.4067 80.7881 100.068 79.4835C101.73 78.179 103.779 77.4673 105.891 77.4614L242.816 77.5178H266.458H269.028C269.855 77.4975 270.682 77.5234 271.507 77.5953C273.004 77.7859 274.434 78.3335 275.676 79.1919C276.918 80.0504 277.937 81.1947 278.646 82.5287C279.25 83.6875 279.608 84.9595 279.695 86.264C279.769 87.4304 279.63 88.6005 279.286 89.7174C278.967 90.6922 278.491 91.6086 277.878 92.4307C276.927 93.73 275.653 94.7577 274.182 95.4119C273.287 95.8057 272.337 96.06 271.366 96.166C270.704 96.4268 270.359 96.4268 270.359 96.4268Z" fill="#263238"/>
<path d="M109.65 89.1112L110.002 88.3359C110.435 88.6358 110.948 88.7979 111.474 88.8011C112.086 88.8011 112.333 88.5967 112.333 88.3219C112.333 87.4832 109.742 88.0611 109.742 86.3978C109.742 85.6367 110.354 84.9883 111.622 84.9883C112.165 84.9761 112.701 85.1151 113.171 85.39L112.854 86.1723C112.477 85.9517 112.051 85.8305 111.615 85.8199C111.002 85.8199 110.763 86.0525 110.763 86.3344C110.763 87.159 113.361 86.5881 113.361 88.2302C113.361 88.9773 112.741 89.6398 111.467 89.6398C110.821 89.6538 110.187 89.4693 109.65 89.1112Z" fill="#E0E0E0"/>
<path d="M117.346 88.0963H114.762C114.813 88.3131 114.942 88.5039 115.123 88.6334C115.304 88.7629 115.526 88.8225 115.747 88.8011C115.906 88.807 116.063 88.7807 116.211 88.7237C116.358 88.6668 116.493 88.5804 116.606 88.4699L117.141 89.0407C116.961 89.2298 116.741 89.3775 116.498 89.4736C116.255 89.5697 115.994 89.612 115.733 89.5975C115.486 89.6221 115.237 89.5946 115.001 89.517C114.765 89.4393 114.548 89.3132 114.364 89.1466C114.179 88.98 114.032 88.7767 113.931 88.5497C113.829 88.3228 113.777 88.0771 113.776 87.8285C113.773 87.5899 113.819 87.3532 113.91 87.133C114.002 86.9127 114.138 86.7136 114.309 86.5479C114.481 86.3821 114.684 86.2533 114.907 86.1693C115.131 86.0854 115.368 86.048 115.607 86.0596C115.844 86.0475 116.081 86.0853 116.303 86.1706C116.525 86.2558 116.727 86.3866 116.895 86.5545C117.064 86.7225 117.195 86.9238 117.281 87.1457C117.367 87.3675 117.406 87.6049 117.395 87.8426C117.367 87.9272 117.353 88.0329 117.346 88.0963ZM114.741 87.5114H116.43C116.402 87.3097 116.3 87.1257 116.144 86.9953C115.988 86.865 115.789 86.7977 115.585 86.8066C115.382 86.802 115.185 86.8741 115.032 87.0086C114.879 87.143 114.783 87.3301 114.762 87.5325L114.741 87.5114Z" fill="#E0E0E0"/>
<path d="M120.972 87.5889V89.5552H120.042V89.1253C119.926 89.2918 119.768 89.4241 119.583 89.5084C119.399 89.5927 119.195 89.6259 118.993 89.6045C118.19 89.6045 117.712 89.1605 117.712 88.5615C117.712 87.9624 118.141 87.5325 119.19 87.5325H119.979C119.979 87.1096 119.725 86.8277 119.19 86.8277C118.833 86.8226 118.483 86.9366 118.198 87.1519L117.838 86.4471C118.282 86.1652 118.799 86.0205 119.324 86.0313C120.394 86.0666 120.972 86.5529 120.972 87.5889ZM119.979 88.4698V88.0963H119.275C118.81 88.0963 118.662 88.2654 118.662 88.498C118.662 88.7306 118.873 88.9138 119.225 88.9138C119.383 88.9356 119.543 88.9036 119.679 88.8231C119.816 88.7425 119.922 88.618 119.979 88.4698Z" fill="#E0E0E0"/>
<path d="M124.006 86.0664V86.9826H123.781C123.654 86.9719 123.527 86.9898 123.409 87.0349C123.29 87.0801 123.184 87.1513 123.096 87.2433C123.009 87.3354 122.944 87.4459 122.905 87.5667C122.866 87.6875 122.855 87.8155 122.872 87.9411V89.5621H121.873V86.1228H122.83V86.5739C122.972 86.4023 123.153 86.2669 123.357 86.1786C123.562 86.0904 123.784 86.052 124.006 86.0664Z" fill="#E0E0E0"/>
<path d="M124.316 87.8356C124.316 87.5906 124.367 87.3483 124.465 87.124C124.563 86.8996 124.707 86.698 124.887 86.5318C125.067 86.3657 125.279 86.2386 125.51 86.1585C125.742 86.0785 125.987 86.0472 126.231 86.0666C126.545 86.0414 126.859 86.1113 127.133 86.2671C127.406 86.423 127.627 86.6576 127.766 86.9406L126.998 87.3564C126.913 87.2224 126.794 87.1131 126.653 87.039C126.513 86.965 126.356 86.9288 126.197 86.934C126.038 86.9392 125.884 86.9857 125.748 87.0688C125.613 87.152 125.502 87.2689 125.425 87.4082C125.349 87.5474 125.309 87.7042 125.312 87.8632C125.314 88.0221 125.358 88.1777 125.438 88.3146C125.519 88.4516 125.634 88.5652 125.771 88.6443C125.909 88.7234 126.065 88.7653 126.224 88.7659C126.384 88.7673 126.541 88.7239 126.678 88.6404C126.815 88.557 126.926 88.4369 126.998 88.2937L127.766 88.7166C127.624 88.997 127.403 89.229 127.13 89.3834C126.857 89.5377 126.544 89.6073 126.231 89.5834C125.989 89.6028 125.745 89.5721 125.515 89.4933C125.285 89.4145 125.074 89.2893 124.894 89.1254C124.715 88.9616 124.571 88.7625 124.471 88.5407C124.372 88.3188 124.319 88.0788 124.316 87.8356Z" fill="#E0E0E0"/>
<path d="M131.828 87.5888V89.5551H130.835V87.7368C130.835 87.18 130.575 86.9263 130.131 86.9263C129.688 86.9263 129.308 87.2223 129.308 87.8566V89.5551H128.315V84.812H129.308V86.4753C129.453 86.338 129.625 86.2312 129.812 86.161C130 86.0908 130.199 86.0587 130.399 86.0665C130.598 86.0521 130.798 86.0825 130.985 86.1552C131.171 86.228 131.338 86.3415 131.475 86.4873C131.612 86.6331 131.715 86.8076 131.776 86.9982C131.837 87.1887 131.855 87.3905 131.828 87.5888Z" fill="#E0E0E0"/>
<path d="M134.292 88.9771C134.292 88.8126 134.358 88.6549 134.474 88.5386C134.59 88.4223 134.748 88.3569 134.912 88.3569C135.076 88.3569 135.234 88.4223 135.35 88.5386C135.466 88.6549 135.531 88.8126 135.531 88.9771C135.531 89.1416 135.466 89.2994 135.35 89.4157C135.234 89.532 135.076 89.5973 134.912 89.5973C134.748 89.5973 134.59 89.532 134.474 89.4157C134.358 89.2994 134.292 89.1416 134.292 88.9771Z" fill="#E0E0E0"/>
<path d="M135.968 88.9771C135.968 88.8126 136.033 88.6549 136.149 88.5386C136.266 88.4223 136.423 88.3569 136.588 88.3569C136.752 88.3569 136.909 88.4223 137.026 88.5386C137.142 88.6549 137.207 88.8126 137.207 88.9771C137.207 89.1416 137.142 89.2994 137.026 89.4157C136.909 89.532 136.752 89.5973 136.588 89.5973C136.423 89.5973 136.266 89.532 136.149 89.4157C136.033 89.2994 135.968 89.1416 135.968 88.9771Z" fill="#E0E0E0"/>
<path d="M137.644 88.9773C137.66 88.8251 137.732 88.6843 137.846 88.582C137.959 88.4797 138.107 88.4231 138.26 88.4231C138.413 88.4231 138.56 88.4797 138.674 88.582C138.788 88.6843 138.859 88.8251 138.876 88.9773C138.885 89.0638 138.876 89.1513 138.849 89.2341C138.822 89.3169 138.779 89.3931 138.721 89.4578C138.662 89.5226 138.591 89.5743 138.512 89.6097C138.433 89.6452 138.347 89.6635 138.26 89.6635C138.173 89.6635 138.087 89.6452 138.007 89.6097C137.928 89.5743 137.857 89.5226 137.799 89.4578C137.741 89.3931 137.697 89.3169 137.67 89.2341C137.643 89.1513 137.634 89.0638 137.644 88.9773Z" fill="#E0E0E0"/>
<path d="M77.4466 112.608C77.4466 112.714 70.8495 112.792 62.7035 112.792C54.5576 112.792 47.9605 112.714 47.9605 112.608C47.9605 112.503 54.5576 112.425 62.7035 112.425C70.8495 112.425 77.4466 112.51 77.4466 112.608Z" fill="black"/>
<path d="M78.5942 121.044H47.9535V151.716H78.5942V121.044Z" fill="#FF725E"/>
<path d="M264.783 128.268C264.783 128.367 226.764 128.451 179.838 128.451C132.912 128.451 94.8932 128.367 94.8932 128.268C94.8932 128.17 132.912 128.085 179.838 128.085C226.764 128.085 264.783 128.17 264.783 128.268Z" fill="black"/>
<path d="M141.361 139.819C141.361 139.925 131.335 140.002 118.979 140.002C106.623 140.002 96.5899 139.925 96.5899 139.819C96.5899 139.714 106.616 139.636 118.979 139.636C131.342 139.636 141.361 139.721 141.361 139.819Z" fill="black"/>
<path d="M237.627 150.532C237.627 150.631 206.05 150.715 167.116 150.715C128.181 150.715 96.5899 150.631 96.5899 150.532C96.5899 150.433 128.16 150.349 167.116 150.349C206.071 150.349 237.627 150.426 237.627 150.532Z" fill="#E0E0E0"/>
<path d="M77.4466 167.545C77.4466 167.644 70.8495 167.728 62.7035 167.728C54.5576 167.728 47.9605 167.644 47.9605 167.545C47.9605 167.446 54.5576 167.362 62.7035 167.362C70.8495 167.362 77.4466 167.446 77.4466 167.545Z" fill="black"/>
<path d="M78.5942 175.981H47.9535V206.653H78.5942V175.981Z" fill="#FF725E"/>
<path d="M274.872 183.24C274.872 183.346 234.579 183.43 184.886 183.43C135.194 183.43 94.8932 183.346 94.8932 183.24C94.8932 183.134 135.179 183.057 184.886 183.057C234.593 183.057 274.872 183.106 274.872 183.24Z" fill="black"/>
<path d="M141.361 194.756C141.361 194.855 131.335 194.939 118.979 194.939C106.623 194.939 96.5899 194.855 96.5899 194.756C96.5899 194.658 106.616 194.573 118.979 194.573C131.342 194.573 141.361 194.658 141.361 194.756Z" fill="black"/>
<path d="M262.192 205.462C262.192 205.567 225.116 205.645 179.394 205.645C133.673 205.645 96.5899 205.567 96.5899 205.462C96.5899 205.356 133.659 205.278 179.394 205.278C225.13 205.278 262.192 205.363 262.192 205.462Z" fill="#E0E0E0"/>
<path d="M300.957 223.504C300.957 222.292 300.894 149.644 300.809 34.7875L300.957 34.9355L25.7967 34.9778L25.9798 34.7875C25.9798 102.149 25.9798 166.15 25.9798 223.504L25.8108 223.335L301 223.504L25.8108 223.666H25.6489V223.504C25.6489 166.15 25.6489 102.149 25.6489 34.7875V34.6042H25.8601L301.021 34.6465H301.169V34.7875C301.014 149.644 300.957 222.292 300.957 223.504Z" fill="#263238"/>
<path d="M121.098 48.4601C121.098 48.5658 111.382 48.6433 99.3991 48.6433C87.4161 48.6433 77.693 48.5658 77.693 48.4601C77.693 48.3544 87.409 48.2769 99.3991 48.2769C111.389 48.2769 121.098 48.3614 121.098 48.4601Z" fill="black"/>
<path d="M81.9666 83.1487H43.4264V94.7703H81.9666V83.1487Z" fill="#455A64"/>
<path d="M150.211 113.588C150.211 113.693 138.242 113.771 123.457 113.771C108.672 113.771 96.7026 113.693 96.7026 113.588C96.7026 113.482 108.672 113.405 123.457 113.405C138.242 113.405 150.211 113.468 150.211 113.588Z" fill="#FF725E"/>
<path d="M150.211 167.545C150.211 167.644 138.242 167.728 123.457 167.728C108.672 167.728 96.7026 167.644 96.7026 167.545C96.7026 167.446 108.672 167.362 123.457 167.362C138.242 167.362 150.211 167.446 150.211 167.545Z" fill="#FF725E"/>
<path d="M266.839 90.2105C265.953 90.2105 265.087 89.9475 264.35 89.4546C263.614 88.9618 263.04 88.2613 262.701 87.4419C262.362 86.6224 262.274 85.7208 262.447 84.8511C262.621 83.9815 263.048 83.1828 263.675 82.5562C264.302 81.9296 265.1 81.5033 265.969 81.3311C266.838 81.159 267.739 81.2487 268.557 81.5891C269.375 81.9294 270.074 82.505 270.565 83.2431C271.056 83.9811 271.318 84.8484 271.316 85.7352C271.314 86.9228 270.842 88.0611 270.002 88.9002C269.163 89.7393 268.025 90.2105 266.839 90.2105ZM266.839 81.9577C266.092 81.9577 265.363 82.1792 264.742 82.5943C264.121 83.0094 263.638 83.5994 263.352 84.2896C263.066 84.9799 262.992 85.7394 263.137 86.4722C263.283 87.205 263.642 87.8781 264.17 88.4064C264.698 88.9347 265.37 89.2945 266.102 89.4402C266.834 89.586 267.593 89.5112 268.283 89.2253C268.972 88.9393 269.562 88.4552 269.976 87.8339C270.391 87.2127 270.612 86.4824 270.612 85.7352C270.609 84.7358 270.209 83.7786 269.502 83.0732C268.795 82.3678 267.837 81.9718 266.839 81.9718V81.9577Z" fill="#FF725E"/>
<path d="M272.323 92.2122C272.231 92.2127 272.143 92.1773 272.077 92.1135L269.162 89.2099C269.129 89.1777 269.103 89.1393 269.085 89.097C269.068 89.0546 269.058 89.0092 269.058 88.9632C269.058 88.9173 269.068 88.8718 269.085 88.8294C269.103 88.7871 269.129 88.7487 269.162 88.7165C269.195 88.6835 269.234 88.6573 269.277 88.6394C269.319 88.6215 269.365 88.6123 269.412 88.6123C269.458 88.6123 269.504 88.6215 269.547 88.6394C269.59 88.6573 269.629 88.6835 269.662 88.7165L272.577 91.6202C272.61 91.6518 272.637 91.69 272.656 91.7325C272.674 91.7749 272.683 91.8206 272.683 91.8669C272.683 91.9131 272.674 91.9588 272.656 92.0013C272.637 92.0437 272.61 92.0819 272.577 92.1135C272.544 92.147 272.504 92.1731 272.461 92.1901C272.417 92.2071 272.37 92.2147 272.323 92.2122Z" fill="#FF725E"/>
<path d="M198.404 139.03C198.404 139.129 186.879 139.213 172.657 139.213C158.435 139.213 146.909 139.129 146.909 139.03C146.909 138.931 158.413 138.84 172.657 138.84C186.9 138.84 198.404 138.924 198.404 139.03Z" fill="black"/>
<path d="M231.685 138.234C231.685 138.339 225.651 138.417 218.216 138.417C210.781 138.417 204.748 138.339 204.748 138.234C204.748 138.128 210.774 138.05 218.216 138.05C225.658 138.05 231.685 138.135 231.685 138.234Z" fill="black"/>
<path d="M198.165 194.756C198.165 194.855 186.632 194.939 172.41 194.939C158.188 194.939 146.663 194.855 146.663 194.756C146.663 194.658 158.188 194.573 172.41 194.573C186.632 194.573 198.165 194.658 198.165 194.756Z" fill="black"/>
<path d="M59.9436 209.26C54.2337 212.221 49.8474 217.323 46.7003 222.94C43.5531 228.557 41.5395 234.689 39.5118 240.827L37.7517 272.38C44.398 261.061 49.7207 247.755 51.1711 234.703L46.7496 234.308C49.7137 233.857 52.206 231.707 53.7902 229.156C55.3743 226.605 56.191 223.666 56.9866 220.769L51.5864 221.573C55.8493 218.696 58.8421 214.287 59.9436 209.26Z" fill="#455A64"/>
<g opacity="0.3">
<path d="M59.9436 209.26C54.2337 212.221 49.8474 217.323 46.7003 222.94C43.5531 228.557 41.5395 234.689 39.5118 240.827L37.7517 272.38C44.398 261.061 49.7207 247.755 51.1711 234.703L46.7496 234.308C49.7137 233.857 52.206 231.707 53.7902 229.156C55.3743 226.605 56.191 223.666 56.9866 220.769L51.5864 221.573C55.8493 218.696 58.8421 214.287 59.9436 209.26Z" fill="black"/>
</g>
<path d="M36.766 279.794C36.766 279.794 22.3398 262.485 22.5299 245.965H28.3595C28.3595 245.965 22.023 241.793 22.5299 239.46C23.0368 237.127 23.1917 228.296 23.1917 228.296L28.5215 229.628C28.5215 229.628 24.5294 227.627 24.0296 224.462C23.5297 221.298 25.1913 206.632 25.1913 206.632C25.1913 206.632 31.6897 213.461 33.6822 220.459C35.6747 227.458 40.927 235.626 39.3851 256.966C37.8432 278.307 36.766 279.794 36.766 279.794Z" fill="#455A64"/>
<path d="M44.0812 281.401C44.0812 281.401 59.7113 270.977 63.1823 257.678L58.5003 256.403C58.5003 256.403 64.4989 254.436 64.6045 252.449C64.7101 250.461 66.5125 243.329 66.5125 243.329L61.9361 243.23C61.9361 243.23 65.5831 242.526 66.6744 240.059C67.7657 237.592 69.6385 225.47 69.6385 225.47C69.6385 225.47 62.9218 229.537 59.7817 234.731C56.6416 239.925 50.6289 245.338 47.2213 262.83C43.8136 280.322 44.0812 281.401 44.0812 281.401Z" fill="#455A64"/>
<path d="M29.1129 221.721C29.1417 221.776 29.1608 221.835 29.1692 221.897L29.303 222.425L29.7676 224.476C30.1689 226.259 30.704 228.846 31.3166 232.053C32.5487 238.459 33.999 247.367 35.1466 257.262C36.2943 267.157 36.8998 276.164 37.1603 282.69C37.3011 285.953 37.3715 288.589 37.3785 290.443C37.3785 291.338 37.3785 292.036 37.3785 292.557C37.3785 292.776 37.3785 292.959 37.3785 293.1C37.3886 293.163 37.3886 293.227 37.3785 293.29C37.3694 293.227 37.3694 293.163 37.3785 293.1C37.3785 292.959 37.3785 292.776 37.3785 292.557C37.3785 292.05 37.3292 291.345 37.294 290.443C37.2377 288.617 37.1251 285.982 36.9631 282.726C36.6322 276.206 35.9774 267.221 34.8509 257.354C33.7244 247.487 32.2952 238.565 31.1335 232.151C30.5491 228.938 30.0563 226.344 29.7254 224.554C29.5564 223.68 29.4226 222.996 29.3241 222.496C29.3241 222.277 29.2537 222.094 29.2325 221.953C29.1762 221.885 29.1354 221.806 29.1129 221.721Z" fill="#263238"/>
<path d="M34.7665 290.365C34.7665 290.365 21.5654 275.375 17.4677 266.311L20.5585 264.994C18.3196 265.36 16.0174 264.394 14.2783 262.929C12.6099 261.381 11.1729 259.601 10.0117 257.643L14.0882 256.938C10.3423 255.869 7.15231 253.395 5.18188 250.031C9.99061 250.821 14.3347 253.463 17.9324 256.769C20.7858 259.511 23.3785 262.512 25.6771 265.734C26.8283 267.281 27.8325 268.932 28.6764 270.667C30.873 275.255 34.7735 284.847 34.7665 290.365Z" fill="#455A64"/>
<path d="M63.3654 234.195C63.3516 234.248 63.3328 234.3 63.309 234.35L63.1048 234.787C62.9148 235.196 62.6472 235.753 62.3093 236.457C61.6052 237.867 60.6125 239.981 59.4015 242.596C56.9795 247.79 53.769 255.049 50.6289 263.21C47.4888 271.372 44.9964 278.892 43.2645 284.354C42.4125 287.095 41.7437 289.287 41.2931 290.859L40.758 292.628L40.6172 293.086C40.6027 293.14 40.5814 293.192 40.5538 293.241C40.5442 293.185 40.5442 293.128 40.5538 293.072L40.6665 292.606C40.7862 292.169 40.9411 291.57 41.1382 290.816C41.5395 289.266 42.1732 287.032 42.9969 284.283C44.6374 278.779 47.1157 271.238 50.2698 263.062C53.424 254.887 56.6627 247.642 59.148 242.469C60.3872 239.883 61.4221 237.803 62.1614 236.38L63.0204 234.738L63.2527 234.322C63.2808 234.272 63.3192 234.229 63.3654 234.195Z" fill="#263238"/>
<path d="M35.907 296.779C35.8089 296.428 35.7383 296.069 35.6958 295.707C35.5902 295.003 35.4142 294.023 35.1678 292.797C34.5262 289.608 33.6291 286.475 32.4853 283.43C31.3292 280.388 29.9331 277.442 28.3102 274.621C27.6907 273.542 27.1626 272.676 26.7895 272.091C26.5786 271.793 26.3948 271.477 26.2403 271.146C26.4853 271.415 26.7089 271.702 26.9092 272.006C27.3175 272.577 27.8808 273.416 28.5355 274.494C30.2296 277.296 31.6603 280.25 32.8092 283.318C33.9633 286.381 34.8307 289.545 35.4001 292.769C35.6184 294.009 35.7521 295.01 35.8155 295.715C35.8793 296.066 35.91 296.422 35.907 296.779Z" fill="#263238"/>
<path d="M53.3044 293.255H24.4098V299.154H53.3044V293.255Z" fill="#FF725E"/>
<path d="M27.1626 299.154L30.2887 319H47.7493L50.6641 299.154H27.1626Z" fill="#FF725E"/>
<path d="M51.5372 299.154C51.5372 299.252 46.0666 299.337 39.3288 299.337C32.5909 299.337 27.1204 299.252 27.1204 299.154C27.1204 299.055 32.5839 298.97 39.3288 298.97C46.0737 298.97 51.5372 299.048 51.5372 299.154Z" fill="#263238"/>
<path d="M177.381 304.355V318.993L206.867 318.845C206.656 315.878 190.469 309.958 190.469 309.958L190.793 304.355H177.381Z" fill="#455A64"/>
<g opacity="0.6">
<path d="M182.154 308.633C181.867 308.738 181.627 308.943 181.478 309.211C181.329 309.479 181.282 309.792 181.345 310.092C181.412 310.386 181.592 310.642 181.846 310.804C182.101 310.966 182.409 311.022 182.703 310.959C183.008 310.844 183.262 310.624 183.418 310.338C183.575 310.052 183.623 309.72 183.555 309.401C183.503 309.255 183.422 309.121 183.317 309.006C183.212 308.891 183.086 308.799 182.945 308.733C182.804 308.668 182.652 308.631 182.497 308.624C182.342 308.618 182.187 308.642 182.042 308.696" fill="white"/>
</g>
<path d="M177.381 318.993V316.653L205.543 316.984C205.543 316.984 207.008 317.872 206.874 318.845L177.381 318.993Z" fill="#263238"/>
<path d="M190.469 310.24C190.469 310.395 189.765 310.472 189.061 310.945C188.357 311.417 187.998 312.086 187.864 312.03C187.73 311.974 187.935 311.086 188.787 310.501C189.638 309.916 190.497 310.099 190.469 310.24Z" fill="#263238"/>
<path d="M194.32 311.593C194.356 311.741 193.736 312.009 193.264 312.657C192.793 313.305 192.652 313.989 192.511 313.982C192.37 313.975 192.265 313.122 192.87 312.326C193.476 311.529 194.32 311.452 194.32 311.593Z" fill="#263238"/>
<path d="M196.074 315.321C195.94 315.321 195.736 314.616 196.074 313.764C196.412 312.911 197.094 312.587 197.158 312.714C197.221 312.84 196.813 313.291 196.531 313.982C196.25 314.673 196.214 315.307 196.074 315.321Z" fill="#263238"/>
<path d="M190.188 306.075C190.124 306.216 189.484 306.018 188.66 306.075C187.836 306.131 187.252 306.427 187.146 306.293C187.04 306.159 187.667 305.588 188.625 305.546C189.582 305.504 190.251 305.955 190.188 306.075Z" fill="#263238"/>
<path d="M190.35 310.895C190.434 310.605 190.456 310.3 190.413 310C190.349 309.179 190.08 308.386 189.631 307.696C189.327 307.22 188.935 306.806 188.477 306.476C188.342 306.361 188.179 306.284 188.004 306.254C187.829 306.224 187.649 306.243 187.484 306.307C187.311 306.401 187.166 306.54 187.063 306.708C186.961 306.876 186.904 307.069 186.9 307.266C186.946 308.029 187.217 308.761 187.678 309.37C188.139 309.98 188.769 310.439 189.491 310.691C190.197 310.917 190.955 310.925 191.666 310.714C192.376 310.503 193.007 310.082 193.476 309.507C193.709 309.244 193.889 308.937 194.004 308.605C194.064 308.414 194.064 308.21 194.004 308.02C193.971 307.925 193.918 307.838 193.849 307.765C193.78 307.692 193.695 307.635 193.602 307.597C193.294 307.509 192.965 307.542 192.68 307.689C192.436 307.8 192.2 307.929 191.976 308.076C191.31 308.519 190.736 309.086 190.286 309.746C190.102 309.978 189.966 310.244 189.885 310.529C190.488 309.669 191.248 308.93 192.124 308.351C192.518 308.118 193.039 307.794 193.454 307.942C193.638 308.013 193.708 308.231 193.623 308.485C193.516 308.761 193.359 309.014 193.159 309.232C192.734 309.738 192.169 310.107 191.535 310.291C190.9 310.476 190.226 310.468 189.596 310.268C188.966 310.042 188.414 309.641 188.004 309.111C187.593 308.582 187.342 307.947 187.28 307.28C187.278 307.153 187.309 307.029 187.37 306.918C187.43 306.807 187.518 306.713 187.625 306.645C187.738 306.61 187.857 306.604 187.973 306.628C188.088 306.651 188.196 306.703 188.287 306.779C188.714 307.073 189.086 307.44 189.385 307.865C189.824 308.497 190.118 309.219 190.244 309.979C190.328 310.578 190.314 310.895 190.35 310.895Z" fill="#263238"/>
<path d="M166.609 306.469L167.109 310.24L166.771 318.732L155.717 319L155.323 310.24L156.583 305.031L166.609 306.469Z" fill="#455A64"/>
<path d="M161.307 318.091C161.237 318.091 161.399 315.497 161.659 312.291C161.92 309.084 162.194 306.476 162.258 306.476C162.321 306.476 162.166 309.07 161.906 312.277C161.645 315.483 161.37 318.091 161.307 318.091Z" fill="#263238"/>
<path d="M166.82 317.323L155.646 317.45V319L166.827 318.993L166.82 317.323Z" fill="#263238"/>
<path d="M155.675 312.432C155.743 312.269 155.839 312.119 155.956 311.988C156.251 311.605 156.581 311.251 156.942 310.931C157.478 310.448 158.08 310.045 158.73 309.732C159.863 309.178 161.144 309.002 162.384 309.232C163.623 309.462 164.757 310.084 165.616 311.008C165.946 311.366 166.219 311.772 166.426 312.213C166.515 312.367 166.575 312.537 166.602 312.714C166.262 312.167 165.876 311.65 165.447 311.17C164.343 310.078 162.852 309.467 161.3 309.472C159.745 309.514 158.252 310.094 157.076 311.114C156.175 311.868 155.724 312.474 155.675 312.432Z" fill="#263238"/>
<path d="M161.23 69.4199L161.117 107.675L177.515 108.457L177.986 99.1542C177.986 99.1542 183.809 100.31 185.316 94.9255C186.273 91.4651 186.02 64.7402 186.02 64.7402L161.23 69.4199Z" fill="#B78876"/>
<path d="M188.216 67.4042C185.632 68.1089 185.076 72.3376 185.076 72.3376L181.021 81.2952C178.958 79.6813 176.191 79.7729 175.663 83.4095C175.283 86.0312 178.542 86.5598 178.542 86.5598C176.649 89.7947 175.36 92.4094 172.6 95.4822C169.608 98.8087 167.932 99.14 164.694 99.1964H161.117C161.117 99.1964 159.371 93.5089 156.125 79.2936C152.534 63.542 171.171 65.5436 174.607 61.5475C180.239 54.972 196.362 65.0714 188.216 67.4042Z" fill="#263238"/>
<path d="M192.771 63.9791C192.628 63.1385 192.189 62.3768 191.535 61.8305C190.881 61.2842 190.054 60.989 189.202 60.9979C189.467 60.548 189.566 60.0192 189.481 59.5039C189.396 58.9886 189.133 58.5196 188.737 58.1788C188.323 57.8566 187.845 57.6269 187.335 57.5054C186.825 57.3838 186.295 57.3731 185.78 57.474C184.754 57.6832 183.762 58.0392 182.837 58.5312C182.499 57.4994 181.834 56.6062 180.943 55.987C179.985 55.4259 178.884 55.1542 177.775 55.2047C172.748 55.2047 170.094 58.651 167.39 62.1678C166.999 62.8234 166.437 63.3596 165.764 63.7183C165.271 63.8631 164.756 63.9204 164.243 63.8874C162.32 63.9492 160.447 64.5171 158.813 65.5342C157.179 66.5512 155.841 67.9814 154.935 69.6806C153.175 73.0847 151.859 80.957 156.421 85.8904L159.167 92.0359L185.449 71.1818C185.639 71.2734 187.287 72.0769 188.554 71.4144C191.701 69.7511 190.378 66.9884 190.378 66.9884C190.631 66.8334 193.039 65.6564 192.771 63.9791Z" fill="#263238"/>
<path d="M168.439 84.4807C168.659 85.4404 168.627 86.4405 168.348 87.3844C168.2 88.3587 167.799 89.2773 167.186 90.0484C167.08 89.992 167.601 88.8221 167.939 87.2927C168.277 85.7634 168.32 84.4807 168.439 84.4807Z" fill="#455A64"/>
<path d="M170.425 82.5991C170.566 83.5395 170.514 84.499 170.27 85.4182C170.165 86.3559 169.87 87.2624 169.404 88.0822C169.473 87.1587 169.626 86.2433 169.861 85.3477C169.962 84.4157 170.15 83.4954 170.425 82.5991Z" fill="#455A64"/>
<path d="M176.106 76.2915C176.142 76.3408 175.677 76.6791 175.086 77.3769C174.332 78.2878 173.737 79.3195 173.325 80.4285C172.916 81.5503 172.587 82.6996 172.34 83.8678C172.266 84.3528 172.132 84.8265 171.938 85.2773C171.899 84.7741 171.937 84.2678 172.051 83.7762C172.221 82.5741 172.516 81.3931 172.931 80.2523C173.36 79.0962 174.021 78.0407 174.874 77.1513C175.205 76.7638 175.629 76.4678 176.106 76.2915Z" fill="#455A64"/>
<path d="M178.402 71.9922C178.451 71.9922 178.613 72.3587 178.718 73.0212C178.84 73.8937 178.792 74.7815 178.578 75.6358C178.364 76.4908 177.989 77.297 177.472 78.0109C177.064 78.5465 176.768 78.8073 176.705 78.7721C176.641 78.7368 177.712 77.4542 178.169 75.5372C178.627 73.6202 178.275 72.0133 178.402 71.9922Z" fill="#455A64"/>
<path d="M158.829 81.5419C158.772 81.6476 158.273 81.4714 157.709 81.1543C157.146 80.8371 156.731 80.5059 156.787 80.4072C156.843 80.3085 157.35 80.4777 157.914 80.7948C158.477 81.112 158.885 81.4432 158.829 81.5419Z" fill="#455A64"/>
<path d="M166.749 77.4613C166.862 77.4613 166.792 78.2859 166.285 79.1245C165.778 79.9632 165.095 80.4002 165.032 80.3156C164.968 80.231 165.468 79.6813 165.926 78.9061C166.383 78.1308 166.637 77.4331 166.749 77.4613Z" fill="#455A64"/>
<path d="M169.186 76.1504C169.176 76.8724 168.928 77.5711 168.481 78.1378C167.82 79.1386 166.996 79.6742 166.933 79.5474C166.869 79.4205 167.517 78.8426 168.136 77.8771C168.451 77.2808 168.801 76.7042 169.186 76.1504Z" fill="#455A64"/>
<path d="M181.295 60.1239C181.295 60.1239 180.986 59.8913 180.394 59.5601C179.549 59.1074 178.607 58.8656 177.648 58.8553C176.233 58.8093 174.834 59.174 173.621 59.9054C172.163 60.863 170.978 62.1843 170.185 63.7394C169.583 64.8785 169.111 66.0818 168.777 67.3266L168.714 67.5663L168.488 67.4465C167.358 66.8577 166.108 66.537 164.834 66.5091C163.823 66.4866 162.816 66.6392 161.856 66.9602C161.004 67.276 160.19 67.6849 159.427 68.1794C159.583 67.9919 159.766 67.8281 159.969 67.6931C160.525 67.293 161.131 66.9683 161.772 66.7276C162.75 66.3555 163.788 66.1667 164.834 66.1708C166.171 66.1675 167.489 66.484 168.679 67.0941L168.39 67.2209C168.715 65.9441 169.188 64.7096 169.798 63.542C170.622 61.9236 171.864 60.5559 173.396 59.5812C174.67 58.8224 176.139 58.457 177.62 58.5311C178.618 58.5739 179.587 58.8724 180.436 59.398C180.665 59.5418 180.877 59.7095 181.07 59.8984C181.239 60.0464 181.302 60.1169 181.295 60.1239Z" fill="#455A64"/>
<path d="M189.92 62.2102C189.92 62.2102 190.378 62.0833 190.856 62.633C190.997 62.7971 191.103 62.9877 191.168 63.1935C191.233 63.3993 191.257 63.6161 191.237 63.8312C191.194 64.1168 191.086 64.3887 190.921 64.6258C190.756 64.8629 190.539 65.0588 190.286 65.1984C189.681 65.5403 188.969 65.6386 188.294 65.4733C187.548 65.2824 186.848 64.9419 186.238 64.4725C185.595 63.963 184.923 63.4924 184.224 63.063C183.468 62.6507 182.65 62.3627 181.802 62.2102C180.157 61.9136 178.463 62.0298 176.874 62.5485C175.559 62.988 174.319 63.6275 173.199 64.4443C172.185 65.2159 171.213 66.0392 170.284 66.911C170.466 66.6152 170.683 66.343 170.932 66.1005C171.576 65.4052 172.283 64.7706 173.044 64.2047C174.155 63.3508 175.396 62.6799 176.719 62.2172C178.372 61.6565 180.141 61.5255 181.859 61.8367C182.755 61.9939 183.62 62.2937 184.421 62.7247C185.129 63.1499 185.809 63.6207 186.456 64.1342C187.025 64.5803 187.676 64.9107 188.371 65.1068C188.963 65.2705 189.595 65.2025 190.138 64.9165C190.36 64.805 190.554 64.6441 190.704 64.4462C190.854 64.2483 190.957 64.0186 191.004 63.7748C191.051 63.4024 190.953 63.0263 190.73 62.7247C190.528 62.4636 190.242 62.2816 189.92 62.2102Z" fill="#455A64"/>
<path d="M266.311 91.5637C265.691 91.0139 257.341 94.5167 257.341 94.5167C257.341 94.5167 251.11 99.4148 248.547 102.269L246.963 103.601L223.271 122.066L194.123 109.944L187.787 126.224C187.787 126.224 220.511 139.262 225.496 137.028C230.932 134.611 251.096 113.468 251.138 113.383L254.053 110.564C254.053 110.564 255.595 110.564 256.763 110.466C257.932 110.367 261.354 108.126 261.354 108.126C261.678 107.497 261.901 106.822 262.016 106.124C262.087 105.847 262.064 105.554 261.949 105.292C261.834 105.03 261.634 104.814 261.382 104.679C261.506 104.138 261.527 103.579 261.445 103.03C261.312 102.1 260.037 101.022 260.037 101.022C260.434 100.617 260.706 100.105 260.819 99.5487C261.108 98.4704 259.721 97.4344 259.721 97.4344C259.721 97.4344 264.564 94.1361 265.74 93.5582C266.916 92.9803 266.93 92.1134 266.311 91.5637Z" fill="#B78876"/>
<path d="M198.404 258.263C198.503 257.192 198.559 256.367 198.559 255.853L201.847 203.256C201.847 203.256 199.08 187.892 197.77 183.818L186.006 179.258L170.333 185.355C170.228 184.093 170.164 183.311 170.164 183.311L147.078 191.317C147.078 191.317 146.48 207.083 147.078 211.882C147.268 213.426 147.874 217.407 148.606 222.101C148.606 222.101 149.352 232.299 149.507 232.87C150.063 234.949 150.211 240.045 150.211 245.147C150.211 251.631 150.563 259.348 150.964 263.013C151.366 266.678 151.563 307.019 151.563 307.019H168.601L170.791 242.772C171.157 235.887 171.706 225.357 172.058 217.739L176.015 241.461C176.015 242.328 178.444 255.895 178.444 255.895C177.889 260.165 177.548 264.46 177.423 268.764C177.141 280.745 175.74 307.019 175.74 307.019H192.419C192.419 307.019 197.425 269.046 198.397 258.263H198.404Z" fill="#263238"/>
<path d="M201.277 200.105C200.731 199.899 200.215 199.622 199.742 199.281C198.556 198.525 197.452 197.649 196.447 196.666C195.436 195.688 194.524 194.614 193.722 193.459C193.365 192.996 193.074 192.487 192.856 191.944C193.246 192.372 193.606 192.827 193.933 193.304C194.779 194.404 195.702 195.442 196.693 196.412C197.692 197.373 198.757 198.261 199.883 199.069C200.373 199.379 200.839 199.725 201.277 200.105Z" fill="#455A64"/>
<path d="M171.537 209.662C171.404 209.505 171.295 209.329 171.213 209.14C170.951 208.646 170.716 208.138 170.509 207.618C169.081 204.186 168.436 200.478 168.622 196.765C168.647 196.205 168.701 195.648 168.784 195.094C168.796 194.887 168.839 194.683 168.911 194.488C168.967 194.488 168.911 195.369 168.911 196.772C168.89 198.602 169.036 200.43 169.347 202.234C169.658 204.037 170.129 205.808 170.756 207.527C171.22 208.844 171.593 209.634 171.537 209.662Z" fill="#455A64"/>
<path d="M174.015 229.466C173.916 229.168 173.843 228.861 173.797 228.55C173.677 227.845 173.523 227.042 173.339 226.034C172.966 223.828 172.481 220.924 171.931 217.711C170.988 211.812 170.347 207.794 170.052 205.927C170.433 207.031 170.702 208.172 170.854 209.331C171.262 211.445 171.776 214.398 172.305 217.647C172.833 220.896 173.29 223.856 173.593 225.992C173.734 227.006 173.846 227.852 173.938 228.529C173.998 228.837 174.024 229.152 174.015 229.466Z" fill="#455A64"/>
<path d="M133.814 141.736C133.814 141.736 131.561 157.587 131.138 163.14C130.885 166.488 134.278 170.928 136.869 171.252C139.46 171.576 148.19 172.098 148.19 172.098L148.895 162.154L148.669 160.18L145.959 159.666L146.775 143.9L133.814 141.736Z" fill="#B78876"/>
<path d="M146.444 144.428C146.504 144.711 146.537 144.999 146.543 145.288C146.585 145.845 146.62 146.656 146.642 147.649C146.684 149.637 146.642 152.392 146.466 155.402C146.289 158.411 146.057 161.181 145.86 163.154C145.761 164.141 145.67 164.944 145.6 165.494C145.585 165.783 145.535 166.07 145.452 166.347C145.424 166.059 145.424 165.768 145.452 165.48C145.494 164.846 145.536 164.07 145.592 163.133C145.726 161.061 145.895 158.362 146.092 155.381C146.289 152.399 146.346 149.609 146.374 147.628C146.374 146.698 146.374 145.908 146.374 145.274C146.365 144.991 146.388 144.707 146.444 144.428Z" fill="#AA6550"/>
<g opacity="0.3">
<path d="M147.296 191.606C151.732 193.255 156.59 193.389 161.307 192.98C166.024 192.571 170.671 191.62 175.388 191.176C182.527 190.508 189.726 190.984 196.714 192.585C197.202 192.733 197.714 192.781 198.221 192.726C198.473 192.695 198.709 192.588 198.899 192.42C199.089 192.251 199.223 192.029 199.284 191.782C199.411 190.993 198.545 190.45 197.813 190.14C189.754 186.804 181.091 185.182 172.373 185.376C163.654 185.57 155.072 187.576 147.17 191.268" fill="black"/>
</g>
<path d="M215.21 117.133L190.202 104.672C186.258 104.209 182.286 104.035 178.317 104.151H161.772C161.772 104.151 141.713 110.071 138.404 115.533L129.807 141.328L146.796 143.9L148.909 162.428C148.909 162.428 146.796 183.889 146.796 187.011C146.749 188.451 146.839 189.893 147.064 191.317C147.064 191.317 181.063 186.144 189.434 188.871C197.806 191.599 200.073 191.317 200.073 191.317C200.073 191.317 199.369 182.409 198.749 177.221L196.806 151.363L195.398 131.63L211.133 136.451L215.21 117.133Z" fill="#FF725E"/>
<path d="M146.642 144.097C146.578 144.097 146.416 143.033 146.036 141.278C145.539 139.042 144.882 136.845 144.072 134.703C143.236 132.546 142.26 130.446 141.15 128.416L140.108 126.605C139.966 126.384 139.85 126.148 139.763 125.9C139.947 126.09 140.107 126.3 140.242 126.527C140.53 126.943 140.946 127.556 141.382 128.332C142.565 130.337 143.58 132.438 144.417 134.611C145.244 136.767 145.871 138.994 146.289 141.264C146.444 142.131 146.543 142.836 146.592 143.329C146.645 143.582 146.662 143.84 146.642 144.097Z" fill="#263238"/>
<path d="M178.711 151.42C178.699 151.538 178.671 151.654 178.627 151.765C178.535 152.019 178.43 152.336 178.303 152.717C178.176 153.097 177.986 153.633 177.754 154.211C177.522 154.789 177.275 155.451 176.951 156.156C176.339 157.566 175.543 159.271 174.543 161.089C173.544 162.908 172.361 164.839 171.023 166.798C169.685 168.757 168.207 170.526 166.876 172.091C165.546 173.655 164.215 174.973 163.074 176.045C162.518 176.594 161.983 177.052 161.518 177.454C161.054 177.856 160.652 178.208 160.307 178.483C159.962 178.758 159.737 178.941 159.519 179.103C159.433 179.185 159.336 179.254 159.23 179.308C159.23 179.308 159.308 179.209 159.477 179.054L160.216 178.349C160.54 178.06 160.92 177.701 161.385 177.271C161.849 176.841 162.356 176.376 162.898 175.819C164.011 174.734 165.278 173.381 166.623 171.83C167.967 170.28 169.362 168.489 170.727 166.551C172.093 164.613 173.262 162.675 174.248 160.913C175.233 159.151 176.071 157.46 176.712 156.043C177.05 155.338 177.31 154.683 177.564 154.119C177.817 153.555 178.007 153.062 178.169 152.653C178.331 152.245 178.444 151.948 178.549 151.723C178.591 151.616 178.645 151.514 178.711 151.42Z" fill="#263238"/>
<path d="M190.265 106.378C189.607 107.32 189.158 108.391 188.948 109.521C188.741 110.746 188.741 111.997 188.948 113.221C189.225 114.728 189.577 116.219 190.005 117.689C190.871 120.847 191.786 123.659 192.476 125.689C192.807 126.647 193.081 127.451 193.307 128.092C193.445 128.372 193.549 128.668 193.616 128.973C193.452 128.705 193.315 128.422 193.208 128.127C192.976 127.577 192.645 126.774 192.265 125.766C191.511 123.758 190.554 120.938 189.688 117.774C189.251 116.29 188.903 114.782 188.646 113.256C188.441 111.997 188.462 110.71 188.709 109.458C188.877 108.612 189.204 107.806 189.674 107.083C189.831 106.817 190.031 106.579 190.265 106.378Z" fill="#263238"/>
<path d="M143.079 133.533C142.712 133.935 142.256 134.246 141.748 134.442C140.548 135 139.209 135.191 137.901 134.992C136.592 134.793 135.371 134.212 134.391 133.321C133.964 132.983 133.62 132.551 133.384 132.06C133.433 132.018 133.799 132.518 134.56 133.124C135.536 133.922 136.708 134.443 137.954 134.632C139.2 134.822 140.474 134.674 141.643 134.202C142.551 133.85 143.044 133.484 143.079 133.533Z" fill="white"/>
<path d="M191.011 121.925C190.953 122.111 190.882 122.292 190.8 122.468C190.645 122.82 190.406 123.328 190.061 123.962C189.072 125.763 187.819 127.404 186.343 128.832C184.142 130.971 181.398 132.465 178.409 133.152C176.643 133.56 174.817 133.638 173.023 133.385C171.105 133.078 169.26 132.421 167.58 131.447C164.123 129.516 161.201 127.07 158.005 125.9C155.178 124.854 152.101 124.685 149.176 125.414C147.202 125.888 145.339 126.743 143.692 127.93C142.537 128.79 142.002 129.382 141.967 129.339C142.459 128.775 143.009 128.262 143.607 127.81C145.651 126.26 148.049 125.243 150.583 124.853C153.118 124.463 155.71 124.712 158.125 125.576C161.399 126.76 164.342 129.213 167.756 131.123C169.401 132.073 171.205 132.717 173.079 133.025C174.828 133.272 176.608 133.201 178.331 132.814C181.273 132.156 183.981 130.712 186.167 128.635C187.642 127.239 188.911 125.639 189.934 123.885C190.3 123.264 190.561 122.771 190.73 122.433C190.808 122.255 190.902 122.086 191.011 121.925Z" fill="white"/>
<path d="M206.663 112.862C206.807 113.116 206.916 113.389 206.986 113.672C207.218 114.435 207.356 115.223 207.395 116.019C207.531 118.691 206.687 121.32 205.022 123.412C204.053 124.48 203.003 125.472 201.882 126.379C201.004 127.123 200.286 128.036 199.77 129.064C199.425 129.759 199.265 130.531 199.305 131.306C199.347 131.855 199.46 132.151 199.425 132.158C199.39 132.165 199.383 132.095 199.326 131.954C199.244 131.753 199.188 131.542 199.157 131.327C199.067 130.518 199.196 129.7 199.53 128.959C200.028 127.88 200.748 126.92 201.643 126.14C202.736 125.226 203.766 124.24 204.726 123.187C206.329 121.155 207.176 118.628 207.12 116.04C207.072 114.968 206.919 113.904 206.663 112.862Z" fill="white"/>
<path d="M165.996 172.274C165.763 172.394 165.514 172.482 165.257 172.535C164.578 172.73 163.886 172.876 163.187 172.972C162.133 173.147 161.053 173.084 160.026 172.789C159.417 172.595 158.853 172.278 158.371 171.858C157.886 171.397 157.435 170.903 157.019 170.378C156.612 169.879 156.138 169.438 155.611 169.067C155.11 168.739 154.568 168.478 153.999 168.292C153.025 167.98 151.994 167.881 150.979 168.003C150.291 168.083 149.62 168.274 148.993 168.567C148.767 168.693 148.532 168.802 148.289 168.891C148.475 168.705 148.692 168.553 148.93 168.44C149.55 168.079 150.233 167.84 150.943 167.735C151.998 167.565 153.078 167.642 154.098 167.961C154.704 168.141 155.28 168.41 155.808 168.757C156.37 169.14 156.875 169.6 157.308 170.124C157.712 170.637 158.149 171.122 158.618 171.576C159.063 171.966 159.579 172.265 160.138 172.457C161.12 172.748 162.15 172.832 163.166 172.704C164.912 172.514 165.982 172.211 165.996 172.274Z" fill="white"/>
<path d="M198.369 170.773C198.304 170.844 198.23 170.908 198.151 170.963C197.924 171.13 197.689 171.285 197.446 171.428C196.572 171.963 195.623 172.364 194.63 172.619C193.139 173.003 191.587 173.094 190.061 172.887C188.179 172.632 186.391 171.905 184.865 170.773C183.416 169.601 182.03 168.354 180.711 167.038C179.636 165.987 178.391 165.127 177.029 164.493C176.11 164.069 175.111 163.848 174.1 163.845C173.396 163.845 172.994 163.965 172.987 163.922C173.074 163.879 173.167 163.849 173.262 163.831C173.534 163.757 173.812 163.713 174.093 163.697C175.133 163.65 176.171 163.84 177.127 164.254C178.537 164.867 179.829 165.724 180.943 166.784C182.225 167.926 183.506 169.314 185.083 170.477C186.564 171.565 188.291 172.267 190.11 172.521C191.594 172.736 193.105 172.676 194.567 172.344C195.547 172.112 196.494 171.755 197.383 171.28C197.701 171.091 198.03 170.922 198.369 170.773Z" fill="white"/>
<path d="M258.221 70.3502C253.109 67.9013 248.647 64.2786 245.198 59.7772C241.75 55.2757 239.412 50.0226 238.374 44.4456C237.337 38.8685 237.631 33.1252 239.23 27.683C240.83 22.2408 243.691 17.2537 247.58 13.1276C251.469 9.00144 256.276 5.85293 261.611 3.93836C266.946 2.02379 272.657 1.39726 278.279 2.10979C283.901 2.82232 289.276 4.85375 293.965 8.03874C298.655 11.2237 302.527 15.4722 305.266 20.4384C308.949 27.1208 310.417 34.8016 309.457 42.3729C308.498 49.9442 305.161 57.0148 299.927 62.5649C294.694 68.1149 287.834 71.8576 280.338 73.253C272.843 74.6484 265.098 73.6246 258.221 70.329V70.3502ZM288.221 7.527C280.998 4.07593 272.782 3.32128 265.053 5.39909C257.324 7.4769 250.59 12.2505 246.067 18.8592C241.543 25.4678 239.527 33.4768 240.382 41.4421C241.237 49.4074 244.907 56.8049 250.729 62.3009C256.552 67.797 264.145 71.0299 272.138 71.4168C280.132 71.8037 288.001 69.3192 294.326 64.4112C300.651 59.5032 305.017 52.4946 306.635 44.649C308.254 36.8034 307.019 28.6371 303.154 21.6224C299.768 15.4791 294.546 10.5504 288.221 7.527Z" fill="#263238"/>
<path d="M318.939 109.74C317.928 110.362 316.712 110.558 315.558 110.284C314.403 110.011 313.404 109.29 312.778 108.281L289.263 70.0964C289.166 69.9256 289.138 69.7243 289.183 69.5333C289.229 69.3423 289.346 69.1758 289.509 69.0675L294.536 65.9665C294.706 65.8623 294.91 65.8283 295.104 65.8717C295.299 65.9151 295.469 66.0325 295.578 66.1991L320.347 103.446C320.678 103.949 320.904 104.513 321.013 105.105C321.121 105.697 321.109 106.305 320.978 106.892C320.846 107.48 320.598 108.034 320.248 108.524C319.898 109.013 319.452 109.426 318.939 109.74Z" fill="#263238"/>
<path d="M259.094 68.5318C253.979 66.0845 249.514 62.4622 246.062 57.9602C242.611 53.4581 240.271 48.2035 239.233 42.6245C238.194 37.0456 238.487 31.3 240.088 25.8558C241.688 20.4117 244.551 15.423 248.442 11.2961C252.334 7.16924 257.144 4.02096 262.481 2.10774C267.819 0.19451 273.532 -0.429546 279.156 0.286406C284.78 1.00236 290.155 3.03807 294.844 6.22769C299.533 9.41732 303.403 13.6706 306.139 18.6412C309.822 25.3236 311.29 33.0044 310.33 40.5757C309.371 48.147 306.034 55.2176 300.8 60.7677C295.567 66.3177 288.707 70.0603 281.212 71.4558C273.716 72.8512 265.971 71.8274 259.094 68.5318ZM289.087 5.70865C281.864 2.25758 273.648 1.50292 265.919 3.58074C258.19 5.65855 251.456 10.4321 246.933 17.0408C242.409 23.6495 240.393 31.6585 241.248 39.6237C242.103 47.589 245.773 54.9865 251.595 60.4826C257.418 65.9786 265.011 69.2115 273.004 69.5984C280.998 69.9854 288.867 67.5008 295.192 62.5928C301.517 57.6848 305.883 50.6762 307.501 42.8307C309.12 34.9851 307.885 26.8188 304.02 19.804C300.634 13.6608 295.412 8.73205 289.087 5.70865Z" fill="#455A64"/>
<path d="M289.726 67.6181L296.036 63.7218L321.065 104.336C321.555 105.131 321.71 106.089 321.494 106.998C321.279 107.908 320.712 108.694 319.917 109.185L319.552 109.41C318.757 109.901 317.8 110.056 316.892 109.84C315.983 109.625 315.198 109.057 314.707 108.262L289.678 67.6477L289.726 67.6181Z" fill="#455A64"/>
<path d="M247.73 27.486C247.768 27.1104 247.834 26.7382 247.928 26.3725C248.01 25.9376 248.123 25.509 248.265 25.0898C248.422 24.5239 248.608 23.9664 248.822 23.4195C248.948 23.1165 249.068 22.7993 249.202 22.4681C249.336 22.1368 249.512 21.8126 249.674 21.4673C249.99 20.7625 250.42 20.0578 250.849 19.3107C252.821 16.1157 255.464 13.3886 258.594 11.3186C259.333 10.8676 260.002 10.4165 260.706 10.0853C261.051 9.90906 261.368 9.72582 261.699 9.58487L262.635 9.1761C263.175 8.94345 263.728 8.7411 264.29 8.57C264.706 8.41904 265.132 8.2966 265.564 8.20352C265.927 8.099 266.296 8.02126 266.67 7.97095C266.323 8.11865 265.965 8.23883 265.599 8.33038C265.175 8.44914 264.756 8.59029 264.346 8.75324C263.798 8.94068 263.26 9.15712 262.734 9.40163L261.812 9.82449C261.488 9.97249 261.178 10.1557 260.84 10.3319C260.136 10.6773 259.488 11.1283 258.763 11.5794C255.683 13.6511 253.067 16.3416 251.082 19.4798C250.652 20.1846 250.216 20.8894 249.899 21.5941C249.73 21.9324 249.547 22.2496 249.406 22.5738C249.265 22.898 249.139 23.2081 249.019 23.5111C248.787 24.0444 248.585 24.5903 248.413 25.1462C248.257 25.5578 248.128 25.9792 248.026 26.4077C247.956 26.7743 247.857 27.1348 247.73 27.486Z" fill="#E0E0E0"/>
</g>
<defs>
<clipPath id="clip0_2_6631">
<rect width="329" height="319" fill="white"/>
</clipPath>
</defs>
</svg>
