<svg width="321" height="315" viewBox="0 0 321 315" fill="none" xmlns="http://www.w3.org/2000/svg">
<g clip-path="url(#clip0_2_6756)">
<path d="M34.5458 138.785C34.5458 138.785 34.5458 138.73 34.5458 138.625C34.5458 138.52 34.5458 138.352 34.5458 138.156C34.5458 137.736 34.5458 137.142 34.5458 136.387C34.5458 134.834 34.5458 132.603 34.4892 129.785L34.5952 129.89L0.226066 129.96C0.303777 129.883 0.049452 130.128 0.402681 129.785V132.072C0.402681 132.834 0.402681 133.589 0.402681 134.345V138.771L0.233131 138.604L24.726 138.681L31.9531 138.73H33.9099H34.4186H34.6023H34.4468H33.9523H32.0378L24.8461 138.778L0.233131 138.855H0V138.688C0 137.242 0 135.767 0 134.261V129.799L0.176614 129.624L34.5458 129.694H34.6517V129.799C34.6517 132.638 34.6093 134.897 34.5952 136.464C34.5952 137.212 34.5952 137.792 34.5952 138.212C34.5952 138.394 34.5952 138.541 34.5952 138.653C34.5952 138.764 34.5528 138.785 34.5458 138.785Z" fill="#E0E0E0"/>
<path d="M39.2084 129.785C39.1987 129.727 39.1987 129.668 39.2084 129.61C39.2084 129.484 39.2084 129.323 39.2084 129.134C39.2084 128.694 39.2084 128.092 39.173 127.33C39.173 125.75 39.173 123.526 39.1095 120.784L39.2366 120.91L18.5586 120.987L18.7282 120.819V125.442C18.7282 126.945 18.7282 128.407 18.7282 129.806L18.5657 129.638L33.3377 129.715L37.64 129.764H38.7986H39.2154C39.0908 129.774 38.9656 129.774 38.841 129.764H37.7107L33.4719 129.806L18.5869 129.883H18.3679V129.715C18.3679 128.316 18.3679 126.855 18.3679 125.351V120.728C18.3255 120.728 18.6999 120.4 18.5445 120.553L39.1942 120.602H39.3214V120.728C39.3214 123.526 39.2649 125.757 39.2507 127.351C39.2507 128.099 39.2507 128.694 39.2507 129.127C39.2507 129.561 39.2154 129.792 39.2084 129.785Z" fill="#E0E0E0"/>
<path d="M53.2739 247.653H18.9048V256.653H53.2739V247.653Z" fill="#EBEBEB"/>
<path d="M38.7421 266.137C38.7371 266.081 38.7371 266.025 38.7421 265.969V265.507C38.7421 265.088 38.7421 264.493 38.7421 263.738C38.7421 262.185 38.7068 259.947 38.6856 257.136L38.7916 257.241L4.42242 257.304L4.59197 257.136V266.123L4.41535 265.948L28.9082 266.032L36.1423 266.074H38.0992H38.6079H38.7916H38.6291H38.1416H36.2201L28.9647 266.227L4.35177 266.304H4.19635V257.15L4.37296 256.975L38.7421 257.045H38.8551V257.15C38.8551 259.989 38.8057 262.248 38.7916 263.815C38.7916 264.563 38.7916 265.143 38.7916 265.563C38.7916 265.745 38.7916 265.892 38.7916 266.004C38.7778 266.049 38.7613 266.093 38.7421 266.137Z" fill="#E0E0E0"/>
<path d="M321 223.029H286.631V232.029H321V223.029Z" fill="#EBEBEB"/>
<path d="M306.468 241.513C306.462 241.459 306.462 241.405 306.468 241.352V240.89C306.468 240.464 306.468 239.876 306.468 239.121C306.468 237.561 306.433 235.33 306.412 232.512L306.518 232.617L272.149 232.687C272.226 232.61 271.972 232.862 272.318 232.512V241.499L272.149 241.331L296.641 241.408L303.868 241.457H305.825H306.334H306.518C306.464 241.463 306.409 241.463 306.355 241.457H305.868H303.953L296.762 241.499L272.149 241.576H271.972V232.414L272.149 232.239L306.518 232.309H306.602V232.414C306.602 235.26 306.56 237.512 306.546 239.079C306.546 239.827 306.546 240.415 306.546 240.827C306.546 241.009 306.546 241.156 306.546 241.275C306.532 241.357 306.506 241.438 306.468 241.513Z" fill="#E0E0E0"/>
<path d="M306.277 15.3857C306.272 15.3299 306.272 15.2737 306.277 15.2179V14.7563C306.277 14.3367 306.277 13.7422 306.277 12.9869C306.277 11.4344 306.242 9.19648 306.214 6.38511L306.327 6.49001L271.958 6.55295L272.127 6.38511V15.3857L271.951 15.2179L296.444 15.2948L303.678 15.3368H305.635H306.143H306.327H306.164H305.677H303.755L296.564 15.3857L271.951 15.4626H271.781V6.40609C272.134 6.05641 271.88 6.30818 271.965 6.23125L306.334 6.30118H306.44V6.40609C306.44 9.24544 306.39 11.5043 306.376 13.0709C306.376 13.8192 306.376 14.3996 306.376 14.8192C306.376 15.0011 306.376 15.1479 306.376 15.2598C306.346 15.304 306.313 15.346 306.277 15.3857Z" fill="#E0E0E0"/>
<path d="M291.894 24.4213C291.888 24.3678 291.888 24.3139 291.894 24.2604C291.894 24.1345 291.894 23.9877 291.894 23.7988C291.894 23.3722 291.894 22.7848 291.894 22.0225C291.894 20.47 291.859 18.239 291.83 15.4207L291.943 15.5256L257.574 15.5955C257.652 15.5186 257.398 15.7633 257.744 15.4207V24.4213L257.567 24.2534L282.06 24.3303L289.294 24.3793H291.251H291.76H291.943H291.781H291.294H289.372L282.18 24.4283L257.567 24.5052H257.398V15.4347C257.751 15.085 257.497 15.3367 257.581 15.2598L291.951 15.3297H292.056V15.4347C292.056 18.281 292.007 20.5329 291.993 22.0994C291.993 22.8477 291.993 23.4282 291.993 23.8478C291.993 24.0296 291.993 24.1765 291.993 24.2954C291.964 24.3403 291.931 24.3824 291.894 24.4213Z" fill="#E0E0E0"/>
<path d="M170.482 207.307C170.477 207.252 170.477 207.195 170.482 207.14V206.678C170.482 206.258 170.482 205.664 170.482 204.909C170.482 203.356 170.447 201.118 170.426 198.307L170.532 198.412L136.163 198.482C136.24 198.398 135.986 198.65 136.332 198.307V207.293L136.163 207.126L160.655 207.203L167.882 207.252H169.839H170.348H170.532H170.369H169.882H167.96L160.776 207.3L136.163 207.377H135.986V198.321L136.163 198.146L170.532 198.216H170.638V198.321C170.638 201.16 170.588 203.419 170.581 204.986C170.581 205.734 170.581 206.314 170.581 206.734V207.175C170.551 207.221 170.518 207.266 170.482 207.307Z" fill="#E0E0E0"/>
<path d="M175.138 198.307C175.138 198.307 175.138 198.244 175.138 198.132C175.138 198.02 175.138 197.845 175.138 197.657C175.138 197.216 175.138 196.615 175.138 195.852C175.138 194.272 175.102 192.048 175.074 189.306L175.194 189.425L154.545 189.474C154.389 189.635 154.756 189.264 154.721 189.306V193.929C154.721 195.433 154.721 196.894 154.721 198.293L154.552 198.125L169.324 198.202L173.626 198.251H174.792H175.201C175.077 198.261 174.952 198.261 174.827 198.251H173.704L169.465 198.293L154.58 198.37H154.417V198.209C154.417 196.81 154.417 195.349 154.417 193.845C154.417 193.09 154.417 192.328 154.417 191.551V189.222L154.594 189.048L175.244 189.097H175.371V189.222C175.371 192.02 175.321 194.251 175.307 195.845C175.307 196.594 175.307 197.188 175.272 197.622C175.25 197.854 175.205 198.084 175.138 198.307Z" fill="#E0E0E0"/>
<path d="M118.12 276.613V299.838H152.425H190.27V276.613H118.12Z" fill="#F5F5F5"/>
<path d="M115.089 270.123V276.613H192.792V270.123H152.425H115.089Z" fill="#E0E0E0"/>
<path d="M153.944 299.838H190.27V276.613H192.792V270.123H152.425V276.012L153.944 299.838Z" fill="#E0E0E0"/>
<path d="M142.839 280.361H128.208V283.858H142.839V280.361Z" fill="#E0E0E0"/>
<path d="M145.12 288.229H126.329V295.614H145.12V288.229Z" fill="white"/>
<path d="M129.218 246.926V270.151H163.531H201.368V246.926H129.218Z" fill="#F5F5F5"/>
<path d="M126.194 240.436V246.925H203.891V240.436H163.531H126.194Z" fill="#E0E0E0"/>
<path d="M165.043 270.151H201.369V246.925H203.891V240.436H163.531V246.324L165.043 270.151Z" fill="#E0E0E0"/>
<path d="M153.937 250.674H139.306V254.171H153.937V250.674Z" fill="#E0E0E0"/>
<path d="M156.219 258.535H137.427V265.92H156.219V258.535Z" fill="white"/>
<path d="M311.654 299.069C311.654 299.167 243.516 299.251 159.49 299.251C75.4637 299.251 7.31183 299.167 7.31183 299.069C7.31183 298.971 75.4284 298.887 159.49 298.887C243.551 298.887 311.654 298.971 311.654 299.069Z" fill="#263238"/>
<path d="M115.647 239.631C113.902 237.964 111.761 236.758 109.421 236.125C107.081 235.492 104.618 235.452 102.259 236.01C99.9 236.567 97.7206 237.704 95.9218 239.314C94.123 240.925 92.7627 242.958 91.9666 245.226L93.6832 251.786C94.3332 249.555 95.7249 247.394 97.8867 246.471C100.048 245.548 102.733 246.058 105.029 246.884C107.325 247.709 109.579 248.821 112.016 248.982C114.453 249.142 117.208 247.982 117.943 245.674C118.628 243.52 117.307 241.205 115.647 239.631Z" fill="#FF725E"/>
<g opacity="0.3">
<path d="M115.647 239.631C113.902 237.964 111.761 236.758 109.421 236.125C107.081 235.492 104.618 235.452 102.259 236.01C99.9 236.567 97.7206 237.704 95.9218 239.314C94.123 240.925 92.7627 242.958 91.9666 245.226L93.6832 251.786C94.3332 249.555 95.7249 247.394 97.8867 246.471C100.048 245.548 102.733 246.058 105.029 246.884C107.325 247.709 109.579 248.821 112.016 248.982C114.453 249.142 117.208 247.982 117.943 245.674C118.628 243.52 117.307 241.205 115.647 239.631Z" fill="black"/>
</g>
<path d="M74.3546 261.514C70.7799 258.15 70.9565 252.29 72.7438 247.737C74.5312 243.184 78.3955 239.68 82.7755 237.38C87.0245 235.172 91.7232 233.945 96.5192 233.792C101.315 233.638 106.084 234.561 110.469 236.491C108.327 236.586 106.242 237.199 104.395 238.275C102.548 239.352 100.995 240.859 99.8718 242.667C97.9079 245.891 97.4698 249.8 95.8521 253.206C94.0242 257.045 90.7807 260.045 86.7878 261.59C82.795 263.135 78.3561 263.108 74.3828 261.514" fill="#FF725E"/>
<path d="M72.6379 241.275C68.6747 236.645 68.1448 229.211 68.7312 223.176C69.3176 217.14 70.7305 211.056 69.7626 205.063C69.1975 201.51 67.8057 198.118 67.3324 194.572C66.8591 191.027 67.5302 186.978 70.3207 184.677C73.528 182.033 78.5792 182.656 81.9137 185.138C85.2482 187.621 87.1839 191.523 88.5968 195.412C91.6981 203.951 92.8355 213.42 90.2852 222.141C87.7349 230.862 81.7583 238.666 72.9841 241.275" fill="#FF725E"/>
<path d="M70.7376 279.284C70.7175 279.108 70.7175 278.929 70.7376 278.753C70.7376 278.403 70.7376 277.886 70.7376 277.221C70.787 275.893 70.9142 273.969 71.218 271.627C71.5758 268.858 72.0923 266.112 72.7651 263.402C73.589 260.078 74.8627 256.878 76.5517 253.891C78.2476 250.91 80.3279 248.159 82.7403 245.709C84.6979 243.703 86.8701 241.914 89.2185 240.373C90.2146 239.673 91.1683 239.177 91.9949 238.701C92.8214 238.226 93.5773 237.904 94.1778 237.61L95.5907 237.023C95.7536 236.944 95.924 236.88 96.0994 236.834C96.0994 236.834 95.9369 236.925 95.619 237.079L94.2061 237.729C93.6127 238.03 92.885 238.428 92.0514 238.862C91.2178 239.296 90.2994 239.876 89.3245 240.562C87.0085 242.122 84.8634 243.917 82.924 245.919C80.5468 248.364 78.4913 251.097 76.8061 254.052C73.1678 260.346 72.1717 266.997 71.444 271.641C71.1191 273.99 70.9495 275.907 70.8647 277.235C70.8224 277.872 70.7941 278.382 70.7729 278.76C70.7728 278.935 70.761 279.111 70.7376 279.284Z" fill="#263238"/>
<path d="M36.5591 223.029C29.2332 227.414 29.2544 231.421 30.4766 235.155C31.6987 238.89 36.1989 241.534 39.929 240.121C42.0483 239.331 43.5672 237.512 44.8742 235.687C46.1811 233.862 47.4033 231.918 49.2259 230.61C50.485 229.69 52.0395 229.255 53.5989 229.386L36.5591 223.029Z" fill="#FF725E"/>
<path d="M53.5989 229.386L55.5416 230.085C54.9644 229.693 54.2959 229.452 53.5989 229.386Z" fill="#FF725E"/>
<path d="M57.9295 231.358L50.7589 228.687L53.6413 229.022C54.4046 229.101 55.1345 229.373 55.7606 229.812L57.9295 231.358Z" fill="black"/>
<g opacity="0.3">
<path d="M36.5591 223.029C29.2332 227.414 29.2544 231.421 30.4766 235.155C31.6987 238.89 36.1989 241.534 39.929 240.121C42.0483 239.331 43.5672 237.512 44.8742 235.687C46.1811 233.862 47.4033 231.918 49.2259 230.61C50.485 229.69 52.0395 229.255 53.5989 229.386L36.5591 223.029Z" fill="black"/>
</g>
<path d="M31.0841 227.834C33.0057 225.211 37.7389 224.449 40.7272 225.735C43.7156 227.022 45.9197 229.666 47.8554 232.253C49.7911 234.841 51.7268 237.575 54.4396 239.38C57.1524 241.184 60.946 241.834 63.6235 240.016C64.4872 239.38 65.2108 238.576 65.7501 237.654C66.2894 236.732 66.6331 235.71 66.7602 234.652C66.9902 232.545 66.8443 230.415 66.3293 228.358C65.6793 225.316 64.6267 222.141 62.1612 220.204C59.4201 218.05 55.6194 217.945 52.1153 218.064C48.1027 218.19 44.0264 218.49 40.261 219.868C36.4956 221.246 32.6736 224.183 31.0841 227.834Z" fill="#FF725E"/>
<path d="M64.6408 273.445C64.6321 273.392 64.6321 273.337 64.6408 273.284C64.6408 273.158 64.6408 273.004 64.6408 272.816C64.6408 272.382 64.6408 271.774 64.5773 271.018C64.5278 269.424 64.4642 267.165 64.3865 264.388C64.3088 261.612 64.1816 258.269 63.9768 254.598C63.7719 250.926 63.4469 246.87 62.8747 242.625C62.6388 240.569 62.2324 238.537 61.6596 236.547C61.0769 234.709 60.3249 232.928 59.4131 231.225C58.5983 229.68 57.653 228.207 56.5872 226.819C55.6458 225.62 54.6112 224.495 53.4929 223.456C51.868 221.965 50.0304 220.718 48.0391 219.756C47.6859 219.595 47.375 219.434 47.0924 219.322L46.386 219.043L45.9197 218.896C45.8208 218.854 45.7714 218.833 45.7784 218.826L45.9339 218.868L46.386 219.015L47.0924 219.26C47.375 219.364 47.6929 219.511 48.0603 219.672C50.1005 220.596 51.9852 221.825 53.6484 223.316C54.7913 224.353 55.8473 225.48 56.8062 226.687C57.8925 228.078 58.8568 229.559 59.6886 231.113C60.6158 232.828 61.382 234.624 61.9775 236.477C62.553 238.486 62.9641 240.537 63.2067 242.611C63.779 246.856 64.0403 250.919 64.2382 254.612C64.436 258.304 64.5137 261.64 64.5773 264.444C64.6408 267.249 64.655 269.501 64.662 271.067V272.871C64.662 273.06 64.662 273.214 64.662 273.34C64.6595 273.376 64.6524 273.411 64.6408 273.445Z" fill="#263238"/>
<path d="M67.2829 276.753C66.9341 275.735 66.6649 274.692 66.4775 273.634C65.9688 270.743 65.8548 267.798 66.1384 264.878C66.5991 260.553 67.5469 256.294 68.9643 252.178C70.469 247.506 72.4966 242.513 74.2556 237.149C75.1173 234.541 75.825 231.886 76.375 229.197C76.8584 226.688 77.2051 224.155 77.4135 221.609C77.7466 217.293 77.8245 212.961 77.6466 208.636C77.5195 204.944 77.3217 201.951 77.1945 199.887C77.138 198.873 77.0885 198.076 77.0532 197.51C77.0532 197.251 77.0532 197.048 77.0532 196.887V196.677C77.0639 196.747 77.0639 196.818 77.0532 196.887C77.0532 197.041 77.0532 197.244 77.1168 197.503C77.1662 198.069 77.2298 198.866 77.3146 199.88C77.4841 201.944 77.7173 204.93 77.8727 208.629C78.0844 212.965 78.0301 217.308 77.7102 221.637C77.5073 224.195 77.163 226.74 76.6788 229.26C76.1364 231.962 75.4287 234.629 74.5594 237.247C72.8074 242.632 70.7587 247.618 69.2398 252.269C67.8336 256.364 66.8859 260.599 66.414 264.899C66.1088 267.801 66.1871 270.73 66.6471 273.613C66.8237 274.627 66.9933 275.417 67.1345 275.942C67.1981 276.193 67.2476 276.389 67.2829 276.543V276.753Z" fill="#263238"/>
<path d="M85.4531 280.033H51.0345L50.2503 273.473H85.4531V280.033Z" fill="#455A64"/>
<path d="M54.7292 279.284L59.0316 298.957H77.7315L81.7583 279.284H54.7292Z" fill="#455A64"/>
<path d="M85.4813 280.033C85.4813 280.117 77.9152 280.172 68.5829 280.144C59.2506 280.117 51.6774 280.026 51.6774 279.935C51.6774 279.844 59.2435 279.795 68.5829 279.823C77.9222 279.851 85.4813 279.942 85.4813 280.033Z" fill="#455A64"/>
<path d="M79.5471 289.74C78.6101 289.048 77.5926 288.471 76.5164 288.019C75.3384 287.573 74.09 287.336 72.8287 287.32C71.2822 287.319 69.7483 287.594 68.3003 288.131C66.7249 288.656 65.2625 289.271 63.8355 289.607C62.5675 289.878 61.2601 289.915 59.9782 289.719C59.1164 289.597 58.2808 289.335 57.5056 288.942C57.2968 288.833 57.0961 288.709 56.9052 288.572C56.778 288.474 56.7144 288.418 56.7215 288.411C56.7285 288.404 57.0111 288.579 57.5622 288.831C58.3427 289.168 59.1683 289.392 60.0136 289.495C61.2675 289.651 62.5394 289.59 63.7719 289.313C65.1848 288.97 66.5977 288.355 68.1943 287.824C69.6778 287.272 71.2514 286.997 72.8358 287.012C74.1313 287.051 75.4083 287.329 76.6012 287.831C77.4043 288.162 78.1596 288.597 78.8477 289.124C79.0324 289.266 79.2093 289.418 79.3776 289.579C79.4977 289.67 79.5542 289.733 79.5471 289.74Z" fill="#263238"/>
<path d="M79.2857 291.054C78.3821 290.383 77.4059 289.813 76.3751 289.355C75.2504 288.911 74.0534 288.674 72.8428 288.656C71.3456 288.656 69.8603 288.919 68.4557 289.432C66.9368 289.935 65.5168 290.516 64.1604 290.88C62.957 291.226 61.7026 291.365 60.4515 291.292C59.6063 291.24 58.78 291.021 58.0213 290.649C57.8223 290.541 57.6311 290.419 57.4491 290.285C57.3219 290.194 57.2584 290.138 57.2654 290.131C57.2725 290.124 57.548 290.292 58.0779 290.537C58.8345 290.855 59.6439 291.033 60.4657 291.061C61.6868 291.102 62.9065 290.944 64.0757 290.593C65.4109 290.222 66.8167 289.635 68.3568 289.124C69.7958 288.603 71.3177 288.343 72.8499 288.355C74.9574 288.414 76.9882 289.151 78.6358 290.453C78.8159 290.59 78.9859 290.739 79.1444 290.901C79.2362 290.984 79.2928 291.047 79.2857 291.054Z" fill="white"/>
<path d="M79.8862 288.439C78.9228 287.719 77.88 287.109 76.7778 286.621C75.5777 286.113 74.3001 285.808 72.9982 285.718C71.4005 285.688 69.812 285.966 68.3215 286.537C66.8106 287.12 65.2681 287.619 63.7013 288.033C62.3825 288.254 61.0356 288.254 59.7168 288.033C58.8288 287.892 57.9669 287.621 57.1595 287.229C56.9446 287.117 56.7391 286.989 56.5448 286.844C56.4106 286.747 56.34 286.691 56.347 286.684C56.3541 286.677 56.6508 286.858 57.216 287.117C58.0263 287.46 58.8792 287.696 59.7522 287.816C61.045 288.001 62.3595 287.977 63.6447 287.747C65.1932 287.32 66.7188 286.816 68.2155 286.236C69.743 285.649 71.3749 285.376 73.0124 285.432C75.2515 285.608 77.39 286.427 79.1656 287.789C79.3589 287.933 79.5429 288.09 79.7166 288.257C79.8297 288.362 79.8933 288.432 79.8862 288.439Z" fill="white"/>
<path d="M85.7569 280.061C85.7569 280.145 77.9858 280.222 68.4628 280.222C58.9397 280.222 51.1758 280.145 51.1758 280.061C51.1758 279.977 58.9468 279.893 68.4628 279.893C77.9788 279.893 85.7569 279.97 85.7569 280.061Z" fill="#263238"/>
<path d="M222.569 4.62964H30.3V171.704H222.569V4.62964Z" fill="#FAFAFA"/>
<path d="M222.569 171.697C222.569 170.403 222.506 105.175 222.414 4.62958L222.569 4.78344H30.3212L30.5048 4.60161C30.5048 65.3119 30.5048 122.484 30.5048 171.669L30.3424 171.508L222.612 171.669L30.3424 171.83H30.1799V171.669C30.1799 122.484 30.1799 65.3119 30.1799 4.60161V4.44775H30.3847H222.633H222.788V4.60161C222.633 105.175 222.569 170.403 222.569 171.697Z" fill="#263238"/>
<path d="M136.346 171.403C136.342 171.484 136.328 171.563 136.304 171.641C136.24 171.87 136.155 172.092 136.05 172.305C135.653 173.086 135.077 173.764 134.368 174.284C133.323 175.049 132.115 175.566 130.836 175.795C129.276 176.047 127.697 176.159 126.117 176.131C124.536 176.192 122.952 176.096 121.391 175.844C120.104 175.634 118.876 175.157 117.788 174.445C117.073 173.961 116.425 173.388 115.859 172.739C115.643 172.506 115.453 172.251 115.294 171.976C115.55 172.175 115.786 172.398 116 172.641C116.596 173.247 117.26 173.784 117.978 174.242C119.054 174.909 120.256 175.352 121.511 175.543C123.051 175.771 124.61 175.853 126.166 175.788C127.726 175.822 129.286 175.721 130.829 175.487C132.078 175.289 133.264 174.811 134.298 174.089C134.997 173.607 135.581 172.979 136.007 172.249C136.233 171.718 136.346 171.389 136.346 171.403Z" fill="#263238"/>
<path d="M234.996 0.0141602H17.8806V6.54606H234.996V0.0141602Z" fill="#455A64"/>
<path d="M235.01 6.56687H17.8593V0H235.01V6.56687ZM17.8946 6.5319H234.975V0.0349674H17.8946V6.5319Z" fill="#263238"/>
<path d="M201.856 33.5266H49.8335V103.098H201.856V33.5266Z" fill="#FAFAFA"/>
<path d="M201.856 103.098C201.856 103.098 201.856 102.671 201.856 101.853V98.2372C201.856 95.0622 201.856 90.3905 201.821 84.3762C201.821 72.3614 201.771 55.0036 201.736 33.5266L201.891 33.6805L49.8759 33.7364L50.0878 33.5266C50.0878 58.0038 50.0878 81.5298 50.0878 103.098L49.883 102.895L159.031 102.993L190.56 103.049H198.981H201.157H201.905H201.199H199.08H190.701L159.214 103.105L49.9324 103.203H49.7275V103C49.7275 81.4319 49.7275 57.8989 49.7275 33.4287V33.2119H49.9536L201.969 33.2749H202.047V33.4287C202.011 54.9266 201.983 72.3334 201.962 84.3762C201.962 90.3696 201.962 95.0342 201.927 98.2022C201.927 99.7688 201.927 101 201.927 101.79C201.927 102.58 201.856 103.098 201.856 103.098Z" fill="#263238"/>
<path d="M60.5292 81.5789V83.7748H60.2961V81.7817H59.7733V81.5789H60.5292Z" fill="#263238"/>
<path d="M61.0591 82.6769C61.0591 81.9776 61.4264 81.5649 61.9422 81.5649C62.4579 81.5649 62.8323 81.9776 62.8323 82.6769C62.8323 83.3763 62.4579 83.7959 61.9422 83.7959C61.4264 83.7959 61.0591 83.3832 61.0591 82.6769ZM62.5992 82.6769C62.5992 82.0964 62.3307 81.7678 61.9422 81.7678C61.5536 81.7678 61.2922 82.0964 61.2922 82.6769C61.2922 83.2574 61.5536 83.593 61.9422 83.593C62.3307 83.593 62.5992 83.2644 62.5992 82.6769Z" fill="#263238"/>
<path d="M61.4618 69.9346V70.1375H59.9076V69.9346L60.826 69.0395C61.0803 68.7947 61.1227 68.6478 61.1227 68.494C61.1227 68.3401 60.9461 68.0814 60.607 68.0814C60.4938 68.0759 60.3808 68.0949 60.2758 68.1372C60.1709 68.1795 60.0765 68.244 59.9994 68.3261L59.8369 68.1933C59.9373 68.0865 60.0603 68.0029 60.1971 67.9485C60.3338 67.8942 60.481 67.8703 60.6281 67.8786C61.0732 67.8786 61.3346 68.1024 61.3346 68.473C61.3303 68.6094 61.2951 68.7431 61.2315 68.8641C61.1679 68.9852 61.0776 69.0906 60.9672 69.1724L60.2113 69.8717L61.4618 69.9346Z" fill="#263238"/>
<path d="M61.702 69.0257C61.702 68.3263 62.0764 67.9067 62.5851 67.9067C63.0937 67.9067 63.4752 68.3263 63.4752 69.0257C63.4752 69.725 63.1008 70.1377 62.5851 70.1377C62.0694 70.1377 61.702 69.725 61.702 69.0257ZM63.2421 69.0257C63.2421 68.4382 62.9736 68.1095 62.5851 68.1095C62.1965 68.1095 61.9352 68.4382 61.9352 69.0257C61.9352 69.6131 62.2036 69.9348 62.5851 69.9348C62.9666 69.9348 63.2421 69.6062 63.2421 69.0257Z" fill="#263238"/>
<path d="M61.377 55.8288C61.377 56.1995 61.1085 56.4792 60.5716 56.4792C60.2792 56.4905 59.9935 56.3903 59.7733 56.1995L59.8863 56.0177C59.9799 56.1064 60.0909 56.1751 60.2125 56.2196C60.334 56.2641 60.4634 56.2834 60.5928 56.2764C60.9602 56.2764 61.165 56.1086 61.165 55.8288C61.165 55.5491 60.9814 55.3952 60.5645 55.3952H60.4091V55.2484L61.0237 54.4861H59.8652V54.2693H61.2781V54.4231L60.6493 55.2064C61.1438 55.2484 61.377 55.4792 61.377 55.8288Z" fill="#263238"/>
<path d="M61.702 55.3672C61.702 54.6679 62.0764 54.2483 62.5851 54.2483C63.0937 54.2483 63.4752 54.6679 63.4752 55.3672C63.4752 56.0666 63.1008 56.4792 62.5851 56.4792C62.0694 56.4792 61.702 56.0666 61.702 55.3672ZM63.2421 55.3672C63.2421 54.7798 62.9736 54.4581 62.5851 54.4581C62.1965 54.4581 61.9352 54.7798 61.9352 55.3672C61.9352 55.9547 62.2036 56.2764 62.5851 56.2764C62.9666 56.2764 63.2421 55.9477 63.2421 55.3672Z" fill="#263238"/>
<path d="M70.3208 89.887C70.3208 89.1877 70.6952 88.7681 71.2039 88.7681C71.7125 88.7681 72.094 89.1877 72.094 89.887C72.094 90.5864 71.7196 91.006 71.2039 91.006C70.6882 91.006 70.3208 90.5864 70.3208 89.887ZM71.8609 89.887C71.8609 89.2996 71.5924 88.9779 71.2039 88.9779C70.8153 88.9779 70.5539 89.2996 70.5539 89.887C70.5539 90.4745 70.8224 90.7962 71.2039 90.7962C71.5854 90.7962 71.8609 90.4745 71.8609 89.887Z" fill="#263238"/>
<path d="M86.7459 88.8171V91.0131H86.5198V89.02H85.9971V88.8171H86.7459Z" fill="#263238"/>
<path d="M104.054 90.7822V90.9851H102.5V90.8242L103.425 89.929C103.673 89.6843 103.722 89.5374 103.722 89.3905C103.722 89.1318 103.538 88.9779 103.199 88.9779C103.086 88.9709 102.972 88.9893 102.867 89.0317C102.762 89.074 102.668 89.1393 102.592 89.2227L102.436 89.0828C102.535 88.9758 102.657 88.892 102.792 88.8376C102.928 88.7831 103.074 88.7594 103.22 88.7681C103.673 88.7681 103.927 88.9919 103.927 89.3626C103.924 89.4993 103.89 89.6335 103.826 89.7548C103.762 89.8761 103.671 89.9812 103.56 90.0619L102.811 90.7962L104.054 90.7822Z" fill="#263238"/>
<path d="M120.423 90.3557C120.423 90.7194 120.147 91.0061 119.617 91.0061C119.322 91.0151 119.034 90.9126 118.812 90.7194L118.925 90.5445C119.118 90.7178 119.372 90.8083 119.632 90.7963C119.999 90.7963 120.197 90.6284 120.197 90.3557C120.197 90.083 120.013 89.9151 119.596 89.9151H119.441V89.7543L120.055 88.992H118.918V88.8171H120.331V88.978L119.709 89.7543C120.183 89.7543 120.423 90.006 120.423 90.3557Z" fill="#263238"/>
<path d="M137.251 90.4047H136.805V90.9852H136.579V90.4047H135.322V90.2159L136.502 88.7612H136.756L135.64 90.2159H136.601V89.7054H136.827V90.2159H137.272L137.251 90.4047Z" fill="#263238"/>
<path d="M153.301 90.3416C153.301 90.7123 153.04 91.006 152.496 91.006C152.202 91.0153 151.917 90.9127 151.698 90.7193L151.811 90.5444C151.905 90.6315 152.016 90.6987 152.138 90.742C152.259 90.7853 152.388 90.8037 152.517 90.7962C152.898 90.7962 153.096 90.6144 153.096 90.3486C153.096 90.0829 152.92 89.887 152.39 89.887H151.917L152.03 88.7891H153.245V88.9919H152.234L152.157 89.6912H152.439C153.026 89.6912 153.301 89.95 153.301 90.3416Z" fill="#263238"/>
<path d="M169.854 90.3277C169.854 90.4244 169.834 90.5201 169.795 90.6089C169.756 90.6976 169.699 90.7773 169.627 90.8431C169.555 90.9088 169.471 90.9591 169.378 90.9907C169.286 91.0224 169.188 91.0347 169.091 91.027C168.504 91.027 168.186 90.6214 168.186 89.929C168.186 89.2367 168.596 88.7891 169.197 88.7891C169.381 88.7821 169.563 88.8231 169.726 88.908L169.635 89.0898C169.504 89.0137 169.355 88.9772 169.204 88.9849C168.723 88.9849 168.412 89.2926 168.412 89.8871C168.412 89.936 168.412 89.999 168.412 90.0689C168.477 89.9424 168.58 89.8385 168.706 89.7711C168.832 89.7036 168.976 89.6758 169.119 89.6912C169.3 89.6833 169.478 89.7451 169.615 89.8636C169.752 89.9821 169.837 90.1484 169.854 90.3277ZM169.627 90.3277C169.626 90.2589 169.61 90.1912 169.58 90.129C169.551 90.0667 169.508 90.0114 169.456 89.9665C169.403 89.9217 169.341 89.8883 169.275 89.8686C169.208 89.8489 169.138 89.8432 169.069 89.8521C168.999 89.8444 168.928 89.8509 168.861 89.8713C168.794 89.8918 168.731 89.9256 168.678 89.9708C168.624 90.0161 168.58 90.0717 168.549 90.1342C168.518 90.1968 168.501 90.265 168.497 90.3346C168.497 90.5794 168.702 90.8032 169.083 90.8032C169.151 90.811 169.219 90.8048 169.284 90.7849C169.349 90.7651 169.409 90.7321 169.46 90.688C169.511 90.6438 169.553 90.5896 169.581 90.5288C169.61 90.468 169.626 90.4018 169.627 90.3346V90.3277Z" fill="#263238"/>
<path d="M186.159 88.8171V88.978L185.233 91.0131H184.986L185.897 89.02H184.753V89.4256H184.534V88.8171H186.159Z" fill="#263238"/>
<path d="M186.279 82.7888C186.279 82.9007 160.599 82.9986 128.921 82.9986C97.2438 82.9986 71.557 82.9007 71.557 82.7888C71.557 82.6769 97.2367 82.572 128.921 82.572C160.606 82.572 186.279 82.6699 186.279 82.7888Z" fill="#263238"/>
<path d="M186.279 69.0605C186.279 69.1724 160.599 69.2704 128.921 69.2704C97.2438 69.2704 71.557 69.1724 71.557 69.0605C71.557 68.9487 97.2367 68.8438 128.921 68.8438C160.606 68.8438 186.279 68.9417 186.279 69.0605Z" fill="#263238"/>
<path d="M186.279 55.3323C186.279 55.4512 160.599 55.5421 128.921 55.5421C97.2438 55.5421 71.557 55.4512 71.557 55.3323C71.557 55.2134 97.2367 55.1155 128.921 55.1155C160.606 55.1155 186.279 55.2484 186.279 55.3323Z" fill="#263238"/>
<path d="M71.5571 82.5858C71.5571 82.7241 71.5156 82.8594 71.438 82.9744C71.3604 83.0894 71.2501 83.179 71.121 83.2319C70.9919 83.2849 70.8498 83.2987 70.7128 83.2717C70.5758 83.2447 70.4499 83.1781 70.3511 83.0803C70.2523 82.9825 70.185 82.8579 70.1577 82.7223C70.1305 82.5866 70.1445 82.446 70.1979 82.3182C70.2514 82.1904 70.342 82.0812 70.4581 82.0043C70.5743 81.9275 70.7109 81.8865 70.8506 81.8865C71.038 81.8865 71.2177 81.9602 71.3502 82.0913C71.4827 82.2225 71.5571 82.4003 71.5571 82.5858Z" fill="#FF725E"/>
<path d="M88.0528 82.586C88.0528 82.7789 87.9754 82.9639 87.8376 83.1003C87.6998 83.2367 87.5129 83.3133 87.3181 83.3133C87.1232 83.3133 86.9364 83.2367 86.7986 83.1003C86.6608 82.9639 86.5834 82.7789 86.5834 82.586C86.5834 82.3931 86.6608 82.2081 86.7986 82.0717C86.9364 81.9353 87.1232 81.8586 87.3181 81.8586C87.5129 81.8586 87.6998 81.9353 87.8376 82.0717C87.9754 82.2081 88.0528 82.3931 88.0528 82.586Z" fill="#FF725E"/>
<path d="M104.556 82.5858C104.556 82.7241 104.514 82.8594 104.437 82.9744C104.359 83.0894 104.249 83.179 104.12 83.2319C103.991 83.2849 103.849 83.2987 103.711 83.2717C103.574 83.2447 103.449 83.1781 103.35 83.0803C103.251 82.9825 103.184 82.8579 103.156 82.7223C103.129 82.5866 103.143 82.446 103.197 82.3182C103.25 82.1904 103.341 82.0812 103.457 82.0043C103.573 81.9275 103.71 81.8865 103.849 81.8865C104.037 81.8865 104.216 81.9602 104.349 82.0913C104.481 82.2225 104.556 82.4003 104.556 82.5858Z" fill="#FF725E"/>
<path d="M121.044 82.586C121.044 82.7228 121.004 82.8565 120.927 82.9706C120.851 83.0848 120.743 83.1743 120.616 83.2281C120.489 83.2819 120.349 83.2976 120.213 83.2733C120.077 83.2491 119.951 83.1859 119.851 83.0915C119.751 82.9972 119.681 82.8759 119.65 82.7426C119.618 82.6093 119.628 82.4699 119.676 82.3417C119.724 82.2134 119.809 82.102 119.92 82.0211C120.032 81.9402 120.165 81.8935 120.303 81.8866C120.398 81.8819 120.494 81.8965 120.584 81.9295C120.674 81.9625 120.756 82.0132 120.825 82.0787C120.895 82.1441 120.95 82.2228 120.987 82.31C121.025 82.3972 121.044 82.4911 121.044 82.586Z" fill="#FF725E"/>
<path d="M137.533 82.5858C137.533 82.7241 137.492 82.8594 137.414 82.9744C137.336 83.0894 137.226 83.179 137.097 83.2319C136.968 83.2849 136.826 83.2987 136.689 83.2717C136.552 83.2447 136.426 83.1781 136.327 83.0803C136.228 82.9825 136.161 82.8579 136.134 82.7223C136.107 82.5866 136.121 82.446 136.174 82.3182C136.227 82.1904 136.318 82.0812 136.434 82.0043C136.55 81.9275 136.687 81.8865 136.827 81.8865C137.014 81.8865 137.194 81.9602 137.326 82.0913C137.459 82.2225 137.533 82.4003 137.533 82.5858Z" fill="#FF725E"/>
<path d="M170.525 82.5858C170.525 82.7241 170.483 82.8594 170.406 82.9744C170.328 83.0894 170.218 83.179 170.088 83.2319C169.959 83.2849 169.817 83.2987 169.68 83.2717C169.543 83.2447 169.417 83.1781 169.319 83.0803C169.22 82.9825 169.153 82.8579 169.125 82.7223C169.098 82.5866 169.112 82.446 169.165 82.3182C169.219 82.1904 169.309 82.0812 169.426 82.0043C169.542 81.9275 169.678 81.8865 169.818 81.8865C170.006 81.8865 170.185 81.9602 170.318 82.0913C170.45 82.2225 170.525 82.4003 170.525 82.5858Z" fill="#FF725E"/>
<path d="M154.008 82.5858C154.008 82.7241 153.966 82.8594 153.889 82.9744C153.811 83.0894 153.701 83.179 153.572 83.2319C153.442 83.2849 153.3 83.2987 153.163 83.2717C153.026 83.2447 152.9 83.1781 152.802 83.0803C152.703 82.9825 152.636 82.8579 152.608 82.7223C152.581 82.5866 152.595 82.446 152.649 82.3182C152.702 82.1904 152.793 82.0812 152.909 82.0043C153.025 81.9275 153.161 81.8865 153.301 81.8865C153.489 81.8865 153.668 81.9602 153.801 82.0913C153.933 82.2225 154.008 82.4003 154.008 82.5858Z" fill="#FF725E"/>
<path d="M187.013 82.5858C187.013 82.7241 186.972 82.8594 186.894 82.9744C186.817 83.0894 186.706 83.179 186.577 83.2319C186.448 83.2849 186.306 83.2987 186.169 83.2717C186.032 83.2447 185.906 83.1781 185.807 83.0803C185.709 82.9825 185.641 82.8579 185.614 82.7223C185.587 82.5866 185.601 82.446 185.654 82.3182C185.708 82.1904 185.798 82.0812 185.914 82.0043C186.031 81.9275 186.167 81.8865 186.307 81.8865C186.494 81.8865 186.674 81.9602 186.806 82.0913C186.939 82.2225 187.013 82.4003 187.013 82.5858Z" fill="#FF725E"/>
<path d="M79.0737 82.7888C79.0737 82.9149 79.0231 83.0359 78.933 83.1251C78.8429 83.2143 78.7208 83.2644 78.5933 83.2644C78.4963 83.2657 78.4011 83.2385 78.3199 83.186C78.2387 83.1335 78.1751 83.0582 78.1373 82.9697C78.0996 82.8813 78.0893 82.7837 78.1079 82.6894C78.1265 82.5952 78.1731 82.5086 78.2416 82.4407C78.3102 82.3727 78.3977 82.3266 78.493 82.3083C78.5882 82.2899 78.6868 82.3 78.7761 82.3374C78.8655 82.3748 78.9415 82.4377 78.9945 82.5181C79.0476 82.5985 79.0751 82.6928 79.0737 82.7888Z" fill="#E0E0E0"/>
<path d="M95.6331 82.7887C95.6331 82.8841 95.6045 82.9774 95.551 83.0568C95.4974 83.1361 95.4213 83.198 95.3322 83.2345C95.2431 83.271 95.1451 83.2806 95.0506 83.262C94.956 83.2434 94.8691 83.1974 94.801 83.1299C94.7328 83.0624 94.6864 82.9764 94.6676 82.8828C94.6488 82.7892 94.6584 82.6922 94.6953 82.604C94.7322 82.5159 94.7947 82.4405 94.8748 82.3875C94.955 82.3345 95.0492 82.3062 95.1456 82.3062C95.2749 82.3062 95.3989 82.357 95.4903 82.4475C95.5818 82.538 95.6331 82.6607 95.6331 82.7887Z" fill="#E0E0E0"/>
<path d="M111.705 83.2643C111.97 83.2643 112.185 83.0514 112.185 82.7888C112.185 82.5261 111.97 82.3132 111.705 82.3132C111.44 82.3132 111.225 82.5261 111.225 82.7888C111.225 83.0514 111.44 83.2643 111.705 83.2643Z" fill="#E0E0E0"/>
<path d="M128.745 82.7887C128.745 82.8841 128.716 82.9774 128.663 83.0568C128.609 83.1361 128.533 83.198 128.444 83.2345C128.355 83.271 128.257 83.2806 128.162 83.262C128.068 83.2434 127.981 83.1974 127.913 83.1299C127.845 83.0624 127.798 82.9764 127.779 82.8828C127.76 82.7892 127.77 82.6922 127.807 82.604C127.844 82.5159 127.906 82.4405 127.987 82.3875C128.067 82.3345 128.161 82.3062 128.257 82.3062C128.387 82.3062 128.511 82.357 128.602 82.4475C128.693 82.538 128.745 82.6607 128.745 82.7887Z" fill="#E0E0E0"/>
<path d="M145.297 82.7888C145.297 82.9149 145.246 83.0359 145.156 83.1251C145.066 83.2143 144.944 83.2644 144.817 83.2644C144.72 83.2657 144.624 83.2385 144.543 83.186C144.462 83.1335 144.398 83.0582 144.361 82.9697C144.323 82.8813 144.313 82.7837 144.331 82.6894C144.35 82.5952 144.396 82.5086 144.465 82.4407C144.534 82.3727 144.621 82.3266 144.716 82.3083C144.811 82.2899 144.91 82.3 144.999 82.3374C145.089 82.3748 145.165 82.4377 145.218 82.5181C145.271 82.5985 145.298 82.6928 145.297 82.7888Z" fill="#E0E0E0"/>
<path d="M161.856 82.7887C161.856 82.8841 161.828 82.9774 161.774 83.0568C161.721 83.1361 161.645 83.198 161.555 83.2345C161.466 83.271 161.368 83.2806 161.274 83.262C161.179 83.2434 161.092 83.1974 161.024 83.1299C160.956 83.0624 160.91 82.9764 160.891 82.8828C160.872 82.7892 160.882 82.6922 160.919 82.604C160.955 82.5159 161.018 82.4405 161.098 82.3875C161.178 82.3345 161.273 82.3062 161.369 82.3062C161.498 82.3062 161.622 82.357 161.714 82.4475C161.805 82.538 161.856 82.6607 161.856 82.7887Z" fill="#E0E0E0"/>
<path d="M177.928 83.2643C178.194 83.2643 178.409 83.0514 178.409 82.7888C178.409 82.5261 178.194 82.3132 177.928 82.3132C177.663 82.3132 177.448 82.5261 177.448 82.7888C177.448 83.0514 177.663 83.2643 177.928 83.2643Z" fill="#E0E0E0"/>
<path d="M89.1267 76.7183C89.1267 77.0724 89.0206 77.4185 88.8219 77.713C88.6232 78.0074 88.3407 78.2369 88.0103 78.3724C87.6798 78.5079 87.3162 78.5433 86.9653 78.4742C86.6145 78.4052 86.2923 78.2346 86.0394 77.9843C85.7864 77.7339 85.6142 77.4149 85.5444 77.0676C85.4746 76.7203 85.5104 76.3603 85.6473 76.0332C85.7842 75.706 86.016 75.4264 86.3134 75.2297C86.6108 75.033 86.9605 74.928 87.3182 74.928C87.7978 74.928 88.2578 75.1166 88.597 75.4524C88.9362 75.7881 89.1267 76.2435 89.1267 76.7183Z" fill="#FF725E"/>
<path d="M103.517 68.3122C103.517 68.6672 103.411 69.0141 103.211 69.309C103.011 69.6038 102.727 69.8333 102.396 69.9681C102.064 70.103 101.699 70.1372 101.348 70.0664C100.997 69.9956 100.674 69.823 100.422 69.5705C100.17 69.318 99.9997 68.9971 99.9324 68.6484C99.865 68.2998 99.9038 67.9391 100.044 67.6124C100.184 67.2856 100.419 67.0075 100.719 66.8133C101.02 66.6191 101.371 66.5177 101.73 66.5219C102.206 66.5274 102.66 66.7184 102.995 67.0536C103.33 67.3887 103.517 67.841 103.517 68.3122Z" fill="#FF725E"/>
<path d="M121.376 69.0606C121.376 69.4147 121.27 69.7608 121.072 70.0552C120.873 70.3497 120.59 70.5791 120.26 70.7146C119.93 70.8501 119.566 70.8856 119.215 70.8165C118.864 70.7474 118.542 70.5769 118.289 70.3265C118.036 70.0762 117.864 69.7572 117.794 69.4099C117.724 69.0626 117.76 68.7026 117.897 68.3755C118.034 68.0483 118.266 67.7687 118.563 67.572C118.861 67.3753 119.21 67.2703 119.568 67.2703C120.048 67.2703 120.508 67.4589 120.847 67.7946C121.186 68.1304 121.376 68.5858 121.376 69.0606Z" fill="#FF725E"/>
<path d="M138.812 53.7798C138.812 54.1339 138.706 54.4801 138.507 54.7745C138.308 55.0689 138.026 55.2984 137.695 55.4339C137.365 55.5694 137.001 55.6048 136.65 55.5358C136.3 55.4667 135.977 55.2962 135.724 55.0458C135.471 54.7954 135.299 54.4764 135.229 54.1291C135.16 53.7818 135.195 53.4218 135.332 53.0947C135.469 52.7676 135.701 52.488 135.998 52.2912C136.296 52.0945 136.646 51.9895 137.003 51.9895C137.241 51.9895 137.476 52.0358 137.695 52.1258C137.915 52.2158 138.114 52.3476 138.282 52.5139C138.45 52.6801 138.583 52.8775 138.674 53.0947C138.765 53.3119 138.812 53.5447 138.812 53.7798Z" fill="#FF725E"/>
<path d="M155.096 63.4938C155.097 63.8488 154.992 64.1962 154.793 64.4918C154.595 64.7875 154.312 65.018 153.981 65.1542C153.65 65.2903 153.285 65.326 152.933 65.2565C152.582 65.1871 152.259 65.0157 152.006 64.7642C151.753 64.5127 151.581 64.1924 151.512 63.844C151.443 63.4956 151.481 63.1349 151.62 62.8076C151.758 62.4803 151.992 62.2012 152.292 62.0059C152.591 61.8106 152.943 61.7077 153.301 61.7105C153.778 61.7124 154.234 61.9011 154.57 62.2353C154.907 62.5695 155.096 63.0221 155.096 63.4938Z" fill="#FF725E"/>
<path d="M171.591 66.0812C171.593 66.4356 171.488 66.7824 171.29 67.0777C171.092 67.3731 170.81 67.6036 170.48 67.7402C170.15 67.8768 169.786 67.9133 169.434 67.845C169.083 67.7767 168.76 67.6067 168.507 67.3566C168.253 67.1065 168.08 66.7875 168.01 66.44C167.939 66.0926 167.975 65.7322 168.111 65.4047C168.248 65.0771 168.48 64.7971 168.777 64.6001C169.075 64.403 169.425 64.2979 169.783 64.2979C170.02 64.2969 170.255 64.3424 170.474 64.4316C170.694 64.5208 170.893 64.652 171.061 64.8177C171.229 64.9834 171.363 65.1803 171.454 65.3971C171.545 65.6139 171.591 65.8464 171.591 66.0812Z" fill="#FF725E"/>
<path d="M187.013 76.7185C186.872 76.7278 186.731 76.7278 186.59 76.7185C186.176 76.6905 185.766 76.6344 185.36 76.5507C183.778 76.2607 182.3 75.5664 181.072 74.5365C180.194 73.7775 179.474 72.8557 178.953 71.8231C178.335 70.6242 177.597 69.4902 176.749 68.4382C175.813 67.2101 174.506 66.3087 173.018 65.8646C172.203 65.6797 171.353 65.7086 170.553 65.9486C169.711 66.223 168.933 66.6605 168.264 67.2354C166.851 68.3963 165.827 70.0327 164.456 71.5503C163.776 72.3495 162.934 72.9977 161.984 73.4526C160.959 73.9007 159.812 73.9943 158.727 73.7183C158.176 73.5385 157.67 73.2447 157.242 72.8565C156.815 72.4682 156.476 71.9944 156.247 71.4664C155.775 70.4211 155.417 69.3285 155.18 68.2075C154.954 67.0778 154.626 65.9707 154.198 64.8995C153.991 64.38 153.619 63.9408 153.139 63.6477C152.62 63.4022 152.046 63.2915 151.472 63.326C150.251 63.4589 149.041 63.6692 147.847 63.9554C147.218 64.0882 146.577 64.1608 145.933 64.1722C145.265 64.2021 144.599 64.0751 143.99 63.8016C143.373 63.5112 142.841 63.0709 142.443 62.5218C142.069 61.9752 141.755 61.3916 141.503 60.7804C140.981 59.5775 140.627 58.3047 140.154 57.0878C139.929 56.4824 139.638 55.9032 139.285 55.3604C138.943 54.8365 138.451 54.4252 137.872 54.1785C137.724 54.1366 137.576 54.0806 137.42 54.0457L136.947 54.0037C136.642 53.9828 136.337 54.0432 136.064 54.1785C135.506 54.5206 135.05 55.0033 134.743 55.5772C134.081 56.7634 133.566 58.0244 133.21 59.3327C132.821 60.6475 132.503 61.9972 132.171 63.361C131.641 65.6129 131.168 67.8578 130.582 70.0537C130.303 71.1522 129.965 72.2354 129.571 73.2987C129.21 74.3797 128.631 75.3766 127.869 76.229C127.44 76.6634 126.857 76.9145 126.244 76.9283C125.653 76.916 125.076 76.7443 124.577 76.4318C123.637 75.8207 122.837 75.0199 122.231 74.082C121.077 72.2978 120.129 70.3906 119.405 68.3963C118.614 66.515 117.724 64.6478 116.248 63.368C115.53 62.7426 114.67 62.2988 113.741 62.0747C112.812 61.8505 111.842 61.8528 110.914 62.0812C110.02 62.3146 109.169 62.6851 108.392 63.1791C107.615 63.6434 106.878 64.1696 106.188 64.7527C104.855 65.8654 103.623 67.0916 102.507 68.4173C100.83 70.0677 99.0075 71.5657 97.0602 72.8931C95.3265 74.1067 93.453 75.1115 91.4792 75.8863C89.7528 76.5975 87.8844 76.9062 86.0183 76.7884C84.462 76.6126 82.9337 76.2462 81.4687 75.6975C79.4331 74.9541 77.4566 74.0612 75.5556 73.026C74.9057 72.6693 74.4112 72.3826 74.0862 72.1867C73.9181 72.0906 73.7554 71.9855 73.5988 71.872L74.1074 72.1448L75.6051 72.935C77.5147 73.936 79.4929 74.803 81.5252 75.5296C82.9789 76.0581 84.4926 76.4081 86.0324 76.5716C87.8604 76.6695 89.6869 76.3538 91.3732 75.6485C93.322 74.8724 95.1697 73.8675 96.8765 72.6553C98.7988 71.329 100.598 69.8358 102.253 68.1935C103.375 66.8467 104.619 65.6038 105.969 64.4799C106.673 63.8836 107.424 63.3434 108.215 62.8644C109.022 62.3465 109.906 61.9594 110.836 61.7175C111.818 61.4749 112.845 61.471 113.829 61.706C114.813 61.941 115.725 62.408 116.488 63.0673C118.056 64.417 118.967 66.3402 119.766 68.2354C120.494 70.1988 121.442 72.0753 122.592 73.8302C123.162 74.7155 123.916 75.4711 124.803 76.0471C125.24 76.3247 125.746 76.4794 126.265 76.4947C126.769 76.4672 127.243 76.2524 127.593 75.8933C128.311 75.0763 128.857 74.1251 129.197 73.0959C129.593 72.0609 129.903 70.9978 130.2 69.8999C130.779 67.7109 131.246 65.473 131.775 63.2141C132.093 61.8154 132.425 60.4937 132.828 59.1649C133.193 57.8216 133.722 56.5276 134.404 55.3115C134.756 54.6797 135.273 54.1531 135.901 53.7869C136.238 53.6204 136.613 53.5432 136.989 53.5631L137.533 53.6191C137.71 53.661 137.879 53.717 138.056 53.7729C138.719 54.0486 139.285 54.5136 139.681 55.1087C140.052 55.6801 140.36 56.2898 140.599 56.927C141.08 58.1718 141.426 59.4306 141.934 60.6056C142.443 61.7805 143.079 62.9344 144.209 63.4029C145.339 63.8715 146.618 63.7456 147.819 63.5358C149.033 63.2452 150.265 63.0349 151.507 62.9064C152.153 62.8677 152.798 62.9954 153.379 63.2771C153.926 63.6016 154.352 64.0922 154.594 64.6758C155.034 65.7707 155.37 66.9039 155.597 68.0606C155.821 69.158 156.167 70.2275 156.629 71.2496C156.83 71.7376 157.135 72.1773 157.523 72.5391C157.91 72.901 158.371 73.1766 158.875 73.3477C159.88 73.6005 160.94 73.5168 161.892 73.1099C162.802 72.6737 163.61 72.0544 164.265 71.2916C165.608 69.8299 166.66 68.1655 168.116 66.9696C168.818 66.3708 169.635 65.9188 170.518 65.6408C171.367 65.3892 172.268 65.3626 173.132 65.5639C174.671 66.0299 176.02 66.9708 176.982 68.2494C177.837 69.3188 178.576 70.4744 179.186 71.6972C179.683 72.7119 180.374 73.6216 181.22 74.3757C182.422 75.4004 183.865 76.1077 185.417 76.4318C185.819 76.5271 186.227 76.5949 186.639 76.6346C186.872 76.7045 187.013 76.7115 187.013 76.7185Z" fill="#FF725E"/>
<path d="M89.2962 45.926C89.2962 46.0379 82.8957 46.1358 74.9975 46.1358C67.0994 46.1358 60.6989 46.0379 60.6989 45.926C60.6989 45.8141 67.0994 45.7092 74.9975 45.7092C82.8957 45.7092 89.2962 45.8071 89.2962 45.926Z" fill="#263238"/>
<path d="M75.7535 115.022C71.918 115.022 68.1687 116.148 64.9797 118.257C61.7907 120.366 59.3051 123.365 57.8374 126.872C56.3696 130.38 55.9856 134.24 56.7338 137.964C57.4821 141.688 59.329 145.108 62.0411 147.793C64.7531 150.478 68.2085 152.306 71.9702 153.047C75.732 153.788 79.6311 153.408 83.1746 151.955C86.718 150.502 89.7467 148.041 91.8775 144.884C94.0084 141.727 95.1457 138.016 95.1457 134.219C95.1457 131.698 94.6441 129.202 93.6696 126.872C92.695 124.543 91.2666 122.427 89.4659 120.644C87.6651 118.862 85.5273 117.448 83.1746 116.483C80.8218 115.518 78.3001 115.022 75.7535 115.022ZM76.0431 145.723C73.6874 145.723 71.3845 145.032 69.4258 143.736C67.4671 142.44 65.9404 140.599 65.0389 138.444C64.1374 136.29 63.9015 133.919 64.3611 131.632C64.8207 129.345 65.9551 127.244 67.6209 125.595C69.2866 123.946 71.4089 122.823 73.7194 122.368C76.0299 121.913 78.4248 122.146 80.6012 123.039C82.7776 123.931 84.6379 125.442 85.9466 127.381C87.2554 129.32 87.954 131.6 87.954 133.932C87.954 137.059 86.6991 140.058 84.4654 142.27C82.2316 144.481 79.2021 145.723 76.0431 145.723Z" fill="#263238"/>
<path d="M76.0502 115.029V122.141C77.9251 122.142 79.7732 122.581 81.4445 123.423C83.1157 124.264 84.5628 125.484 85.6683 126.983C86.7738 128.482 87.5063 130.218 87.8065 132.05C88.1067 133.882 87.966 135.758 87.3959 137.527L94.4604 139.415C95.2624 136.587 95.3975 133.614 94.8554 130.726C94.3133 127.838 93.1084 125.112 91.3337 122.757C89.5589 120.403 87.2618 118.484 84.6193 117.148C81.9768 115.811 79.0596 115.093 76.0926 115.05L76.0502 115.029Z" fill="#FF725E"/>
<path d="M64.1322 133.932C64.1324 131.653 64.7998 129.423 66.0536 127.511C67.3073 125.6 69.0938 124.089 71.1968 123.162L68.2085 116.532C64.696 118.001 61.6988 120.462 59.5916 123.608C57.4845 126.753 56.3608 130.444 56.3612 134.219C56.3612 134.491 56.3612 134.757 56.3612 135.023H64.1322C64.1534 134.666 64.1322 134.275 64.1322 133.932Z" fill="#455A64"/>
<path d="M76.0431 145.723C75.1954 145.72 74.3503 145.631 73.5211 145.457C73.2243 147.164 72.6592 150.479 72.2141 153.087C76.9759 153.972 81.8996 153.056 86.0121 150.52C90.1247 147.985 93.1268 144.015 94.4251 139.394L87.3606 137.506C86.5951 139.885 85.0871 141.962 83.0534 143.438C81.0197 144.915 78.5652 145.715 76.0431 145.723Z" fill="#FF725E"/>
<g opacity="0.3">
<path d="M76.0431 145.723C75.1954 145.72 74.3503 145.631 73.5211 145.457C73.2243 147.164 72.6592 150.479 72.2141 153.087C76.9759 153.972 81.8996 153.056 86.0121 150.52C90.1247 147.985 93.1268 144.015 94.4251 139.394L87.3606 137.506C86.5951 139.885 85.0871 141.962 83.0534 143.438C81.0197 144.915 78.5652 145.715 76.0431 145.723Z" fill="black"/>
</g>
<path d="M73.4715 134.883H72.765V135.799H71.776V134.883H69.3882V134.184L71.4652 131.386H72.5319L70.6033 134.009H71.7901V133.198H72.765V134.009H73.4715V134.883Z" fill="#263238"/>
<path d="M73.7754 133.617C73.7754 132.177 74.5808 131.365 75.6616 131.365C76.7425 131.365 77.5479 132.177 77.5479 133.617C77.5479 135.058 76.7496 135.876 75.6616 135.876C74.5737 135.876 73.7754 135.058 73.7754 133.617ZM76.5235 133.617C76.5235 132.631 76.1703 132.219 75.6616 132.219C75.153 132.219 74.8068 132.631 74.8068 133.617C74.8068 134.603 75.16 135.016 75.6616 135.016C76.1632 135.016 76.5235 134.61 76.5235 133.617Z" fill="#263238"/>
<path d="M77.9717 132.589C77.9949 132.381 78.0782 132.185 78.2117 132.023C78.3452 131.861 78.5232 131.741 78.7242 131.676C78.9252 131.612 79.1406 131.607 79.3445 131.661C79.5485 131.716 79.7322 131.827 79.8735 131.982C80.0149 132.138 80.1079 132.33 80.1413 132.537C80.1747 132.743 80.1471 132.955 80.0619 133.146C79.9766 133.337 79.8373 133.5 79.6607 133.614C79.4842 133.729 79.2779 133.791 79.0667 133.792C78.9122 133.793 78.7593 133.762 78.6179 133.7C78.4766 133.638 78.3501 133.547 78.2467 133.434C78.1432 133.32 78.0653 133.186 78.0179 133.041C77.9705 132.895 77.9547 132.741 77.9717 132.589ZM79.5259 132.589C79.5259 132.121 79.3422 131.89 79.0667 131.89C78.7912 131.89 78.6075 132.121 78.6075 132.589C78.6075 133.058 78.7912 133.289 79.0667 133.289C79.3422 133.289 79.5259 133.058 79.5259 132.589ZM81.6877 131.435H82.4365L79.4341 135.799H78.6782L81.6877 131.435ZM80.9812 134.645C81.0044 134.437 81.088 134.24 81.2218 134.078C81.3556 133.916 81.534 133.796 81.7354 133.732C81.9368 133.668 82.1525 133.663 82.3566 133.718C82.5607 133.773 82.7443 133.885 82.8854 134.041C83.0265 134.197 83.1189 134.39 83.1515 134.597C83.1841 134.804 83.1556 135.016 83.0692 135.207C82.9829 135.398 82.8425 135.56 82.6651 135.674C82.4876 135.788 82.2806 135.848 82.0691 135.848C81.9141 135.85 81.7603 135.819 81.6182 135.758C81.476 135.697 81.3486 135.606 81.2444 135.493C81.1402 135.379 81.0616 135.244 81.0138 135.098C80.966 134.952 80.9501 134.798 80.9671 134.645H80.9812ZM82.5283 134.645C82.5283 134.184 82.3447 133.946 82.0691 133.946C81.7936 133.946 81.6099 134.17 81.6099 134.645C81.6099 135.121 81.8007 135.345 82.0691 135.345C82.3376 135.345 82.5142 135.107 82.5142 134.645H82.5283Z" fill="#263238"/>
<path d="M91.7971 158.255C91.7971 158.36 84.6124 158.437 75.7535 158.437C66.8945 158.437 59.7028 158.36 59.7028 158.255C59.7028 158.15 66.8874 158.073 75.7535 158.073C84.6195 158.073 91.7971 158.157 91.7971 158.255Z" fill="#263238"/>
<path d="M84.6477 161.172C84.6477 161.276 80.6633 161.36 75.7534 161.36C70.8435 161.36 66.8521 161.276 66.8521 161.172C66.8521 161.067 70.8365 160.99 75.7534 160.99C80.6704 160.99 84.6477 161.074 84.6477 161.172Z" fill="#263238"/>
<path d="M128.533 114.588C124.697 114.588 120.948 115.714 117.759 117.823C114.57 119.933 112.085 122.931 110.617 126.439C109.149 129.947 108.765 133.807 109.513 137.53C110.262 141.254 112.108 144.675 114.82 147.36C117.533 150.044 120.988 151.873 124.75 152.613C128.511 153.354 132.411 152.974 135.954 151.521C139.497 150.068 142.526 147.607 144.657 144.451C146.788 141.294 147.925 137.582 147.925 133.785C147.925 128.694 145.882 123.811 142.245 120.211C138.609 116.611 133.676 114.588 128.533 114.588ZM128.823 145.289C126.465 145.291 124.16 144.6 122.199 143.304C120.238 142.008 118.709 140.166 117.806 138.01C116.903 135.854 116.667 133.481 117.126 131.192C117.586 128.902 118.721 126.799 120.388 125.149C122.055 123.499 124.18 122.375 126.492 121.92C128.805 121.465 131.202 121.699 133.38 122.593C135.558 123.487 137.419 125 138.728 126.941C140.037 128.882 140.735 131.164 140.733 133.498C140.733 135.047 140.425 136.58 139.827 138.011C139.228 139.441 138.351 140.741 137.245 141.836C136.139 142.931 134.826 143.799 133.381 144.392C131.936 144.984 130.387 145.289 128.823 145.289Z" fill="#263238"/>
<path d="M128.83 114.595C128.83 116.637 128.83 119.392 128.83 121.707C130.705 121.707 132.554 122.146 134.226 122.987C135.898 123.827 137.346 125.047 138.453 126.546C139.559 128.046 140.292 129.782 140.593 131.615C140.893 133.447 140.753 135.324 140.182 137.093L147.247 138.981C148.049 136.153 148.184 133.18 147.642 130.292C147.1 127.404 145.895 124.678 144.12 122.324C142.345 119.97 140.048 118.05 137.406 116.714C134.763 115.378 131.846 114.66 128.879 114.616L128.83 114.595Z" fill="#FF725E"/>
<path d="M116.912 133.498C116.913 131.219 117.58 128.99 118.834 127.079C120.088 125.167 121.874 123.656 123.976 122.728L120.988 116.092C117.475 117.56 114.478 120.021 112.371 123.167C110.264 126.313 109.14 130.004 109.141 133.778C109.141 134.051 109.141 134.317 109.141 134.582H116.912C116.933 134.233 116.912 133.862 116.912 133.498Z" fill="#263238"/>
<path d="M128.823 145.289C127.975 145.287 127.13 145.197 126.3 145.024C126.004 146.73 125.439 150.045 124.994 152.653C129.755 153.538 134.679 152.622 138.792 150.087C142.904 147.551 145.906 143.581 147.205 138.96L140.14 137.072C139.375 139.451 137.866 141.528 135.833 143.005C133.799 144.481 131.345 145.281 128.823 145.289Z" fill="#FF725E"/>
<g opacity="0.3">
<path d="M128.823 145.289C127.975 145.287 127.13 145.197 126.3 145.024C126.004 146.73 125.439 150.045 124.994 152.653C129.755 153.538 134.679 152.622 138.792 150.087C142.904 147.551 145.906 143.581 147.205 138.96L140.14 137.072C139.375 139.451 137.866 141.528 135.833 143.005C133.799 144.481 131.345 145.281 128.823 145.289Z" fill="black"/>
</g>
<path d="M125.509 134.54V135.366H122.175V134.715L123.877 133.121C124.266 132.757 124.336 132.533 124.336 132.317C124.336 131.974 124.096 131.778 123.63 131.778C123.454 131.771 123.279 131.806 123.12 131.882C122.961 131.958 122.823 132.071 122.719 132.212L121.977 131.743C122.178 131.475 122.443 131.26 122.749 131.118C123.055 130.977 123.392 130.913 123.729 130.932C124.711 130.932 125.361 131.428 125.361 132.219C125.361 132.49 125.298 132.758 125.175 133.001C125.052 133.244 124.874 133.455 124.654 133.617L123.63 134.54H125.509Z" fill="#263238"/>
<path d="M125.919 133.184C125.919 131.743 126.724 130.932 127.805 130.932C128.886 130.932 129.691 131.743 129.691 133.184C129.691 134.624 128.893 135.443 127.805 135.443C126.717 135.443 125.919 134.624 125.919 133.184ZM128.667 133.184C128.667 132.198 128.314 131.785 127.805 131.785C127.297 131.785 126.95 132.198 126.95 133.184C126.95 134.17 127.304 134.582 127.805 134.582C128.307 134.582 128.667 134.177 128.667 133.184Z" fill="#263238"/>
<path d="M130.115 132.177C130.138 131.969 130.222 131.772 130.355 131.61C130.489 131.448 130.667 131.328 130.868 131.264C131.069 131.2 131.284 131.194 131.488 131.249C131.692 131.303 131.876 131.415 132.017 131.57C132.158 131.725 132.251 131.918 132.285 132.124C132.318 132.33 132.291 132.542 132.205 132.733C132.12 132.924 131.981 133.087 131.804 133.202C131.628 133.317 131.421 133.378 131.21 133.38C131.056 133.38 130.903 133.349 130.762 133.287C130.62 133.225 130.494 133.135 130.39 133.021C130.287 132.908 130.209 132.774 130.161 132.628C130.114 132.482 130.098 132.329 130.115 132.177ZM131.669 132.177C131.669 131.708 131.486 131.477 131.21 131.477C130.935 131.477 130.751 131.708 130.751 132.177C130.751 132.645 130.942 132.876 131.21 132.876C131.479 132.876 131.669 132.624 131.669 132.177ZM133.831 131.023H134.58L131.571 135.387H130.822L133.831 131.023ZM133.125 134.233C133.148 134.025 133.232 133.828 133.365 133.666C133.499 133.503 133.678 133.383 133.879 133.319C134.08 133.255 134.296 133.251 134.5 133.305C134.704 133.36 134.888 133.473 135.029 133.629C135.17 133.784 135.262 133.978 135.295 134.184C135.328 134.391 135.299 134.603 135.213 134.794C135.126 134.985 134.986 135.147 134.809 135.261C134.631 135.375 134.424 135.436 134.213 135.436C134.056 135.438 133.9 135.407 133.756 135.344C133.612 135.282 133.484 135.189 133.379 135.073C133.275 134.957 133.196 134.82 133.15 134.671C133.104 134.523 133.09 134.366 133.111 134.212L133.125 134.233ZM134.672 134.233C134.672 133.771 134.488 133.533 134.213 133.533C133.937 133.533 133.754 133.757 133.754 134.233C133.754 134.708 133.944 134.932 134.213 134.932C134.481 134.932 134.658 134.673 134.658 134.212L134.672 134.233Z" fill="#263238"/>
<path d="M144.577 158.955C144.577 159.059 137.392 159.136 128.533 159.136C119.674 159.136 112.482 159.059 112.482 158.955C112.482 158.85 119.667 158.773 128.533 158.773C137.399 158.773 144.577 158.857 144.577 158.955Z" fill="#263238"/>
<path d="M137.427 161.871C137.427 161.976 133.443 162.053 128.533 162.053C123.623 162.053 119.631 161.976 119.631 161.871C119.631 161.766 123.616 161.689 128.533 161.689C133.45 161.689 137.427 161.773 137.427 161.871Z" fill="#263238"/>
<path d="M176.035 113.854C172.199 113.854 168.45 114.98 165.26 117.09C162.071 119.199 159.586 122.198 158.118 125.706C156.651 129.214 156.267 133.075 157.016 136.799C157.765 140.523 159.612 143.943 162.325 146.628C165.038 149.312 168.494 151.14 172.256 151.88C176.018 152.62 179.918 152.239 183.461 150.785C187.004 149.331 190.032 146.869 192.162 143.711C194.292 140.553 195.429 136.841 195.427 133.044C195.427 130.523 194.926 128.027 193.951 125.699C192.976 123.37 191.548 121.254 189.747 119.472C187.946 117.69 185.808 116.276 183.456 115.313C181.103 114.349 178.581 113.853 176.035 113.854ZM176.332 144.548C173.976 144.548 171.673 143.857 169.714 142.561C167.756 141.265 166.229 139.424 165.327 137.269C164.426 135.115 164.19 132.744 164.65 130.457C165.109 128.17 166.244 126.069 167.909 124.42C169.575 122.771 171.697 121.648 174.008 121.193C176.318 120.738 178.713 120.971 180.89 121.864C183.066 122.756 184.926 124.267 186.235 126.206C187.544 128.145 188.243 130.425 188.243 132.757C188.243 134.306 187.934 135.839 187.336 137.269C186.737 138.7 185.86 140 184.754 141.095C183.648 142.189 182.335 143.058 180.89 143.651C179.445 144.243 177.896 144.548 176.332 144.548Z" fill="#263238"/>
<path d="M176.332 113.861V120.987C178.207 120.987 180.056 121.426 181.728 122.266C183.401 123.107 184.849 124.327 185.955 125.826C187.061 127.325 187.794 129.062 188.095 130.895C188.395 132.727 188.255 134.604 187.685 136.373L194.707 138.261C195.509 135.433 195.644 132.461 195.102 129.573C194.56 126.685 193.355 123.96 191.58 121.606C189.805 119.252 187.508 117.333 184.865 115.998C182.223 114.662 179.306 113.946 176.339 113.903L176.332 113.861Z" fill="#FF725E"/>
<path d="M164.421 132.757C164.42 130.478 165.087 128.247 166.341 126.336C167.595 124.424 169.382 122.914 171.485 121.987L168.497 115.392C164.983 116.86 161.985 119.32 159.876 122.466C157.768 125.612 156.643 129.304 156.643 133.079C156.643 133.352 156.643 133.617 156.643 133.89H164.449C164.435 133.491 164.421 133.128 164.421 132.757Z" fill="#263238"/>
<path d="M176.332 144.548C175.484 144.549 174.638 144.46 173.81 144.282C173.513 145.996 172.941 149.311 172.503 151.919C177.263 152.793 182.182 151.872 186.292 149.337C190.401 146.801 193.403 142.835 194.707 138.219L187.684 136.331C186.916 138.715 185.403 140.796 183.362 142.273C181.321 143.75 178.86 144.546 176.332 144.548Z" fill="#263238"/>
<path d="M171.422 130.267V134.624H170.398V131.079H169.55V130.267H171.422Z" fill="#263238"/>
<path d="M172.185 132.449C172.185 131.009 172.99 130.19 174.078 130.19C175.166 130.19 175.964 131.009 175.964 132.449C175.964 133.89 175.166 134.701 174.078 134.701C172.99 134.701 172.185 133.883 172.185 132.449ZM174.94 132.449C174.94 131.456 174.587 131.051 174.078 131.051C173.569 131.051 173.216 131.463 173.216 132.449C173.216 133.435 173.569 133.848 174.078 133.848C174.587 133.848 174.94 133.435 174.94 132.449Z" fill="#263238"/>
<path d="M176.388 131.421C176.411 131.213 176.495 131.017 176.628 130.855C176.762 130.693 176.94 130.573 177.141 130.508C177.342 130.444 177.557 130.439 177.761 130.493C177.965 130.548 178.149 130.659 178.29 130.814C178.431 130.97 178.524 131.162 178.558 131.369C178.591 131.575 178.564 131.787 178.478 131.978C178.393 132.169 178.254 132.332 178.077 132.447C177.901 132.561 177.694 132.623 177.483 132.624C177.329 132.625 177.176 132.594 177.034 132.532C176.893 132.47 176.767 132.379 176.663 132.266C176.56 132.152 176.482 132.018 176.434 131.873C176.387 131.727 176.371 131.573 176.388 131.421ZM177.942 131.421C177.942 130.953 177.759 130.722 177.483 130.722C177.208 130.722 177.024 130.953 177.024 131.421C177.024 131.89 177.208 132.121 177.483 132.121C177.759 132.121 177.942 131.883 177.942 131.421ZM180.104 130.267H180.853L177.844 134.624H177.095L180.104 130.267ZM179.398 133.477C179.421 133.269 179.504 133.072 179.638 132.91C179.772 132.748 179.951 132.628 180.152 132.564C180.353 132.5 180.569 132.495 180.773 132.55C180.977 132.605 181.161 132.717 181.302 132.873C181.443 133.029 181.535 133.222 181.568 133.429C181.601 133.636 181.572 133.848 181.486 134.039C181.399 134.23 181.259 134.392 181.082 134.506C180.904 134.62 180.697 134.68 180.486 134.68C180.33 134.683 180.176 134.653 180.033 134.592C179.891 134.531 179.763 134.441 179.658 134.327C179.554 134.213 179.475 134.078 179.428 133.932C179.38 133.785 179.365 133.63 179.384 133.477H179.398ZM180.945 133.477C180.945 133.016 180.761 132.778 180.486 132.778C180.21 132.778 180.026 133.002 180.026 133.477C180.026 133.953 180.217 134.177 180.486 134.177C180.754 134.177 180.931 133.939 180.931 133.477H180.945Z" fill="#263238"/>
<path d="M192.086 157.353C192.086 157.458 184.901 157.535 176.035 157.535C167.169 157.535 159.991 157.458 159.991 157.353C159.991 157.248 167.176 157.171 176.035 157.171C184.894 157.171 192.086 157.276 192.086 157.353Z" fill="#263238"/>
<path d="M184.936 160.29C184.936 160.395 180.952 160.472 176.035 160.472C171.118 160.472 167.141 160.395 167.141 160.29C167.141 160.186 171.118 160.109 176.035 160.109C180.952 160.109 184.936 160.193 184.936 160.29Z" fill="#263238"/>
<path d="M233.173 289.712L234.388 284.117L219.715 282.508L218.818 290.684L223.919 293.88L233.173 289.712Z" fill="#FFCDB0"/>
<path d="M283.127 274.207L281.142 298.32L269.966 296.719L269.21 273.032L283.127 274.207Z" fill="#FFCDB0"/>
<path d="M269.923 291.956C269.923 291.956 277.426 297.95 281.608 293.544L282.442 295.887L285.727 312.391C285.838 312.914 285.751 313.459 285.481 313.921C285.211 314.383 284.777 314.73 284.264 314.895C283.868 315.017 283.445 315.026 283.044 314.921C282.643 314.816 282.28 314.601 281.997 314.3C278.966 311.083 267.867 299.174 268.108 297.684L268.454 293.726C268.491 293.32 268.651 292.936 268.913 292.622C269.176 292.309 269.528 292.082 269.923 291.97V291.956Z" fill="#FF725E"/>
<g opacity="0.6">
<path d="M283.869 314.979L268.206 296.299L268.143 297.167C267.987 298.104 268.39 298.502 268.807 299.139C270.043 301.027 273.547 305.3 281.926 314.301C282.169 314.564 282.472 314.764 282.811 314.886C283.149 315.008 283.512 315.047 283.869 315V314.979Z" fill="white"/>
</g>
<g opacity="0.6">
<path d="M270.884 293.901C271.132 294.099 271.296 294.383 271.342 294.695C271.388 295.008 271.312 295.326 271.131 295.586C270.924 295.832 270.632 295.992 270.312 296.036C269.992 296.08 269.667 296.004 269.4 295.824C269.255 295.729 269.132 295.604 269.039 295.459C268.947 295.313 268.886 295.15 268.862 294.979C268.837 294.809 268.85 294.635 268.898 294.47C268.947 294.304 269.03 294.151 269.143 294.02C269.256 293.889 269.395 293.783 269.553 293.709C269.71 293.636 269.881 293.596 270.055 293.593C270.229 293.589 270.401 293.622 270.561 293.69C270.721 293.758 270.865 293.858 270.983 293.985" fill="white"/>
</g>
<path d="M279.644 305.691C279.764 305.754 280.35 304.719 281.622 304.23C282.42 303.98 283.26 303.885 284.095 303.95C284.095 303.901 283.862 303.719 283.388 303.621C282.743 303.502 282.076 303.567 281.467 303.81C280.857 304.039 280.329 304.441 279.948 304.964C279.651 305.37 279.594 305.67 279.644 305.691Z" fill="#263238"/>
<path d="M280.965 308.538C281.057 308.636 281.785 308.013 282.908 307.79C284.031 307.566 284.957 307.79 285.027 307.678C285.098 307.566 284.109 307.069 282.83 307.349C281.551 307.629 280.859 308.475 280.965 308.538Z" fill="#263238"/>
<path d="M277.08 301.978C277.171 302.083 278.288 301.125 279.997 300.628C281.707 300.132 283.183 300.272 283.197 300.139C283.212 300.006 281.679 299.635 279.856 300.195C278.033 300.754 276.981 301.915 277.08 301.978Z" fill="#263238"/>
<path d="M277.072 297.027C277.115 297.152 278.323 296.768 279.856 296.817C281.389 296.866 282.569 297.306 282.625 297.187C282.682 297.069 281.516 296.404 279.87 296.369C278.224 296.334 277.009 296.929 277.072 297.027Z" fill="#263238"/>
<path d="M280.725 296.838C280.765 296.578 280.746 296.313 280.668 296.062C280.514 295.359 280.216 294.695 279.792 294.11C279.519 293.65 279.103 293.289 278.605 293.082C278.434 293.029 278.25 293.028 278.079 293.081C277.907 293.133 277.756 293.236 277.645 293.376C277.448 293.652 277.367 293.993 277.419 294.327C277.554 295.017 277.928 295.639 278.476 296.087C279.023 296.535 279.711 296.78 280.421 296.782C281.122 296.785 281.809 296.581 282.393 296.196C282.976 295.811 283.431 295.263 283.699 294.621C283.765 294.46 283.794 294.288 283.784 294.115C283.774 293.942 283.726 293.773 283.643 293.621C283.539 293.475 283.393 293.364 283.223 293.304C283.054 293.244 282.869 293.237 282.696 293.285C282.192 293.448 281.741 293.74 281.389 294.131C280.865 294.628 280.439 295.216 280.131 295.866C279.997 296.093 279.912 296.345 279.884 296.607C280.344 295.777 280.928 295.02 281.615 294.362C281.94 294.038 282.34 293.798 282.781 293.663C282.875 293.637 282.975 293.64 283.068 293.672C283.16 293.705 283.24 293.765 283.296 293.845C283.342 293.948 283.366 294.06 283.366 294.173C283.366 294.287 283.342 294.398 283.296 294.502C283.045 295.048 282.642 295.512 282.134 295.839C281.626 296.166 281.034 296.342 280.428 296.348C279.827 296.343 279.246 296.139 278.777 295.767C278.308 295.395 277.979 294.878 277.843 294.299C277.796 294.059 277.842 293.81 277.97 293.6C278.029 293.521 278.113 293.462 278.208 293.432C278.302 293.402 278.405 293.402 278.5 293.432C278.922 293.602 279.28 293.898 279.524 294.278C280.08 295.051 280.487 295.919 280.725 296.838Z" fill="#263238"/>
<path d="M286.285 134.1C286.285 134.617 291.738 152.877 291.738 152.877C291.738 152.877 300.569 170.319 297.708 181.117C296.14 187.068 289.04 224.295 289.04 224.295C289.04 224.295 286.341 252.681 284.801 264.927C283.261 277.172 282.682 283.732 282.682 283.732L269.16 283.194L265.981 228.449L264.921 185.453L246.984 239.582C246.984 239.582 243.155 256.304 241.064 263.36C238.973 270.416 234.24 285.438 234.24 285.438L219.645 283.298C219.645 283.298 221.213 256.982 222.605 250.604C223.996 244.226 228.617 221.322 228.617 221.322L232.707 199.062L237.08 162.829L240.895 148.898L245.628 133.142L286.285 134.1Z" fill="#263238"/>
<path d="M213.767 111.951C213.767 111.951 213.244 110.119 212.043 109.483C210.842 108.846 205.544 109.056 204.42 109.056C203.297 109.056 199.708 107.72 198.062 109.021C198.014 109.167 197.998 109.321 198.015 109.473C198.031 109.625 198.08 109.772 198.158 109.904C198.236 110.036 198.342 110.151 198.468 110.239C198.594 110.328 198.737 110.39 198.889 110.42C200.832 110.804 204.435 111.553 204.272 111.818C204.11 112.084 197.963 111.406 196.692 111.818L187.564 111.602C187.564 111.602 185.954 113.07 187.444 113.651V114.847C187.912 115.186 188.446 115.424 189.013 115.546C190.214 115.903 188.942 116.609 190.51 116.945C191.567 117.165 192.646 117.261 193.725 117.231L193.873 117.931C194.37 118.173 194.901 118.338 195.448 118.42C196.72 118.707 210.927 118.42 210.927 118.42L218.175 120.7L219.228 113.623L213.767 111.951Z" fill="#FFCDB0"/>
<path d="M210.842 111.602C210.842 111.735 209.111 111.895 207.31 112.909C206.547 113.346 205.878 113.926 205.339 114.616C204.929 115.154 204.752 115.546 204.703 115.525C204.739 115.14 204.886 114.774 205.127 114.469C205.627 113.691 206.314 113.047 207.126 112.595C207.928 112.144 208.803 111.834 209.712 111.679C210.08 111.582 210.464 111.556 210.842 111.602Z" fill="#EB996E"/>
<path d="M199.927 116.532C198.877 116.721 197.808 116.792 196.741 116.742C196.015 116.678 195.283 116.728 194.572 116.889C194.302 117.011 194.061 117.19 193.866 117.413C193.817 117.413 193.866 116.959 194.452 116.651C195.185 116.402 195.963 116.309 196.734 116.378C197.801 116.302 198.873 116.354 199.927 116.532Z" fill="#EB996E"/>
<path d="M199.489 114.525C199.014 114.694 198.517 114.798 198.013 114.833C196.809 115.014 195.59 115.068 194.375 114.994C193.198 114.822 191.998 114.877 190.842 115.155C190.503 115.237 190.186 115.395 189.917 115.616C189.754 115.791 189.768 115.945 189.74 115.945C189.712 115.945 189.641 115.777 189.804 115.532C190.056 115.24 190.387 115.025 190.757 114.91C191.281 114.716 191.831 114.605 192.389 114.581C193.059 114.556 193.729 114.573 194.396 114.63C195.592 114.7 196.791 114.681 197.985 114.574C198.483 114.506 198.987 114.49 199.489 114.525Z" fill="#EB996E"/>
<path d="M198.211 112.979C197.691 113.089 197.159 113.134 196.628 113.112C195.646 113.112 194.29 113.161 192.792 113.161C192.036 113.161 191.33 113.098 190.673 113.105C190.108 113.091 189.543 113.124 188.984 113.203C188.612 113.241 188.252 113.353 187.925 113.532C187.713 113.672 187.649 113.819 187.621 113.805C187.593 113.791 187.621 113.623 187.833 113.42C188.156 113.177 188.534 113.016 188.935 112.951C189.506 112.83 190.089 112.769 190.673 112.77C191.33 112.77 192.043 112.811 192.792 112.77C194.29 112.77 195.618 112.77 196.614 112.832C197.15 112.823 197.686 112.872 198.211 112.979Z" fill="#EB996E"/>
<path d="M265.169 83.9147L258.217 92.3558L259.785 95.8385L267.987 96.447L276.401 95.0763L281.078 93.4118L284.095 85.761L283.162 79.7256L279.884 79.8585L265.169 83.9147Z" fill="#FFCDB0"/>
<path d="M258.669 91.6704C258.669 91.6704 258.111 94.4118 263.134 94.5727C268.157 94.7335 281.085 91.6704 281.085 91.6704L291.633 110.07L280.463 134.1L245.642 133.156V127.148C245.642 127.148 242.604 125.092 242.286 118.756C242.061 115.102 242.604 111.442 243.883 108.007L258.669 91.6704Z" fill="white"/>
<path d="M262.668 82.1452C262.668 82.1452 253.067 83.7747 251.866 84.3691C250.665 84.9636 245.861 90.3136 244.364 94.0271C242.866 97.7406 241.538 106.804 241.538 106.804C241.538 106.804 237.786 112.154 237.786 113.042V115.392C237.786 115.392 234.961 119.7 234.961 120.148V120.595L216.451 110.196L209.45 122.672C209.45 122.672 225.699 134.191 233.428 138.876C234.396 139.459 235.551 139.659 236.662 139.438C237.774 139.216 238.76 138.589 239.425 137.68L233.315 175.445L237.136 176.04L245.685 133.163V127.155C245.685 127.155 239.517 120.861 244.717 112.308C246.525 109.336 251.781 101.314 254.607 97.3001C257.433 93.2858 264.568 84.6209 264.568 84.6209L264.604 79.9912L262.668 82.1452Z" fill="#FF725E"/>
<path d="M282.434 78.3269L287.175 79.1102L289.393 81.7677C289.393 81.7677 302.766 85.1176 304.349 87.1457C305.931 89.1738 296.168 115.12 296.168 115.12L291.131 136.219C291.131 136.219 298.86 157.115 299.467 167.431L263.622 177.998C263.622 177.998 262.519 142.331 263.622 135.904C264.724 129.477 269.153 113.056 272.163 106.168C275.172 99.2793 282.759 84.4182 282.759 83.9497C282.759 83.4811 282.434 78.3269 282.434 78.3269Z" fill="#FF725E"/>
<g opacity="0.3">
<path d="M291.64 138.366C291.356 137.916 290.939 137.565 290.446 137.359C286.913 135.526 282.745 135.31 278.994 133.953C275.462 132.666 271.93 130.316 268.199 130.939C266.737 131.183 266.009 131.176 264.547 131.442L264.279 132.624C266.553 133.813 270.46 132.694 272.608 134.1C273.304 134.651 273.964 135.244 274.586 135.876C275.448 136.543 276.399 137.089 277.412 137.499C279.423 138.431 281.453 139.315 283.501 140.149C285.437 140.939 287.549 141.716 289.591 141.24C290.27 141.114 290.889 140.77 291.35 140.261C291.577 140.006 291.725 139.692 291.777 139.356C291.828 139.019 291.78 138.676 291.64 138.366Z" fill="black"/>
</g>
<path d="M299.495 84.8796C298.958 85.0894 293.052 96.1321 291.689 101.664C290.326 107.196 296.889 124.043 296.889 124.043L276.663 122.707L274.699 132.589C274.699 132.589 293.328 139.233 299.495 140.73C305.663 142.226 311.823 143.17 313.625 140.73C314.708 139.229 315.457 137.517 315.822 135.708L313.081 114.959L310.474 101.804C310.474 101.804 310.205 95.9713 308.835 92.5795C307.464 89.1876 301.551 84.0614 299.495 84.8796Z" fill="#FF725E"/>
<path d="M246.886 134.079C246.857 133.926 246.838 133.772 246.829 133.617C246.829 133.275 246.773 132.834 246.73 132.288C246.653 131.086 246.547 129.428 246.419 127.393C246.378 126.867 246.256 126.351 246.059 125.861C245.805 125.342 245.497 124.85 245.141 124.393C244.373 123.297 243.952 121.999 243.933 120.665C243.927 117.654 244.677 114.689 246.116 112.035C247.533 109.414 249.114 106.882 250.849 104.454C252.361 102.168 253.675 100.069 254.847 98.3631C255.779 96.9943 256.784 95.6754 257.857 94.4118C258.245 93.9782 258.563 93.6425 258.761 93.4257C258.865 93.3072 258.981 93.1994 259.107 93.104C259.021 93.2351 258.924 93.359 258.818 93.4747C258.599 93.7404 258.323 94.0831 257.97 94.5027C257.263 95.4049 256.246 96.7546 255.102 98.482C253.957 100.209 252.672 102.314 251.167 104.615C249.457 107.044 247.893 109.571 246.483 112.182C245.068 114.779 244.321 117.68 244.307 120.63C244.314 121.903 244.705 123.146 245.43 124.197C245.789 124.676 246.099 125.189 246.356 125.729C246.558 126.248 246.677 126.795 246.709 127.351C246.822 129.449 246.864 131.093 246.907 132.246C246.907 132.792 246.907 133.233 246.907 133.575C246.923 133.743 246.916 133.913 246.886 134.079Z" fill="#263238"/>
<path d="M262.59 94.5518C262.551 94.6938 262.499 94.8319 262.435 94.9644C262.264 95.3542 262.068 95.7327 261.848 96.0973C261.028 97.4217 260.067 98.655 258.98 99.7759C257.355 101.403 255.871 103.162 254.544 105.035C253.024 107.389 251.836 109.937 251.011 112.609C250.559 114.008 250.199 115.406 249.902 116.805C249.569 118.105 249.417 119.444 249.45 120.784C249.507 122.057 250.079 123.162 250.411 124.281C250.687 125.33 250.794 126.416 250.729 127.498C250.686 129.456 250.729 131.037 250.792 132.135C250.821 132.643 250.842 133.062 250.856 133.394C250.874 133.54 250.874 133.688 250.856 133.834C250.82 133.692 250.794 133.547 250.778 133.401C250.743 133.114 250.7 132.701 250.651 132.142C250.552 131.051 250.46 129.456 250.467 127.498C250.515 126.442 250.398 125.386 250.121 124.365C249.789 123.288 249.182 122.148 249.111 120.798C249.066 119.425 249.216 118.053 249.556 116.721C249.851 115.29 250.221 113.876 250.665 112.483C251.505 109.777 252.725 107.202 254.289 104.832C255.638 102.951 257.153 101.194 258.818 99.5801C259.91 98.482 260.894 97.283 261.757 95.9994C262.315 95.1112 262.555 94.5378 262.59 94.5518Z" fill="#263238"/>
<path d="M268.454 93.8174C268.426 93.9611 268.383 94.1017 268.327 94.237C268.228 94.5027 268.065 94.8944 267.832 95.3909C267.141 96.7673 266.335 98.0843 265.423 99.3282C264.3 100.923 262.859 102.741 261.509 104.923C260.017 107.267 258.808 109.776 257.906 112.399C257.046 115.034 256.57 117.778 256.493 120.546C256.38 123.099 256.493 125.407 256.493 127.351C256.493 129.295 256.493 130.848 256.43 131.946C256.43 132.491 256.359 132.911 256.331 133.191C256.328 133.337 256.306 133.483 256.267 133.624C256.25 133.48 256.25 133.335 256.267 133.191C256.267 132.862 256.267 132.449 256.267 131.939C256.267 130.862 256.267 129.288 256.218 127.351C256.168 125.414 256.062 123.106 256.154 120.532C256.218 117.731 256.694 114.953 257.567 112.287C258.478 109.638 259.706 107.107 261.227 104.748C262.604 102.559 264.052 100.748 265.218 99.1534C266.142 97.9326 266.976 96.6471 267.712 95.307C267.966 94.8244 268.143 94.4468 268.263 94.188C268.311 94.0573 268.375 93.9328 268.454 93.8174Z" fill="#263238"/>
<path d="M273.505 93.1528C273.503 93.2968 273.484 93.44 273.448 93.5794C273.392 93.8592 273.321 94.2788 273.18 94.7963C272.79 96.2716 272.277 97.7125 271.647 99.1043C270.884 100.881 269.803 102.916 268.63 105.182C267.312 107.604 266.192 110.127 265.282 112.728C263.68 117.478 262.498 122.356 261.749 127.309C261.474 129.211 261.375 130.764 261.283 131.841C261.261 132.262 261.145 132.672 260.944 133.044C260.873 133.175 260.771 133.288 260.647 133.372C260.647 133.372 260.746 133.26 260.873 133.009C261.045 132.638 261.137 132.235 261.142 131.827C261.191 130.757 261.248 129.19 261.495 127.274C262.166 122.285 263.313 117.37 264.921 112.595C265.838 109.977 266.972 107.439 268.312 105.007C269.506 102.755 270.601 100.741 271.4 98.9854C272.047 97.6122 272.59 96.1933 273.024 94.7404C273.349 93.7123 273.47 93.1389 273.505 93.1528Z" fill="#263238"/>
<path d="M237.822 133.463C237.758 133.463 237.892 132.694 237.956 131.456C238.047 129.849 237.952 128.237 237.673 126.652C237.454 125.061 236.927 123.526 236.119 122.134C235.733 121.604 235.272 121.133 234.749 120.735C234.749 120.735 234.946 120.777 235.25 120.966C235.668 121.253 236.033 121.607 236.331 122.015C237.233 123.406 237.815 124.977 238.034 126.617C238.325 128.232 238.387 129.88 238.217 131.512C238.175 132.177 238.042 132.833 237.822 133.463Z" fill="#263238"/>
<path d="M242.604 123.176C242.499 123.053 242.407 122.919 242.329 122.777C242.092 122.373 241.895 121.947 241.743 121.504C241.201 119.863 241.077 118.114 241.382 116.413C241.896 113.922 242.755 111.512 243.933 109.252C245.148 106.671 246.377 103.783 247.945 100.86C248.71 99.4356 249.597 98.0787 250.595 96.8035C251.56 95.651 252.588 94.5514 253.675 93.5096C255.794 91.5374 257.052 89.3135 258.316 87.5371C259.581 85.7608 260.676 84.4041 261.467 83.4879C261.862 83.0264 262.173 82.6767 262.392 82.4389C262.611 82.2011 262.731 82.0892 262.746 82.1032C262.659 82.2401 262.559 82.3689 262.449 82.4879C262.23 82.7676 261.94 83.1243 261.573 83.5718C260.824 84.523 259.75 85.9007 258.528 87.684C257.306 89.4673 256.006 91.7402 253.915 93.7403C252.919 94.7684 251.838 95.8384 250.877 97.0273C249.894 98.287 249.022 99.6276 248.27 101.035C246.716 103.93 245.444 106.818 244.236 109.392C243.058 111.621 242.186 113.997 241.644 116.455C241.32 118.119 241.399 119.835 241.877 121.462C242.079 122.05 242.322 122.622 242.604 123.176Z" fill="#263238"/>
<path d="M238.507 143.065C238.502 142.799 238.53 142.534 238.592 142.275C238.67 141.765 238.804 141.044 238.98 140.142C239.376 138.275 239.885 135.855 240.45 133.149C240.943 130.83 241.259 128.478 241.396 126.113C241.481 124.302 241.396 123.176 241.46 123.169C241.536 123.426 241.576 123.692 241.58 123.959C241.58 124.211 241.63 124.526 241.644 124.889C241.658 125.253 241.644 125.666 241.644 126.12C241.583 128.507 241.299 130.883 240.796 133.219C240.245 135.953 239.637 138.394 239.221 140.17C239.023 141.002 238.853 141.702 238.719 142.268C238.674 142.54 238.603 142.807 238.507 143.065Z" fill="#263238"/>
<path d="M288.941 82.0334C288.958 82.2079 288.958 82.3835 288.941 82.558C288.941 82.8936 288.884 83.3972 288.807 84.0406C288.601 85.8583 288.292 87.6632 287.881 89.4465C287.278 92.0917 286.471 94.6869 285.465 97.2093C284.893 98.608 284.229 100.105 283.466 101.594C283.286 101.987 283.076 102.366 282.837 102.727C282.537 103.098 282.11 103.347 281.636 103.426L279.079 104.07L278.252 104.273L278.316 103.951L281.311 106.133L281.46 106.238L281.347 106.385L272.163 118.274L269.414 121.77L268.659 122.7C268.576 122.811 268.484 122.914 268.383 123.008C268.44 122.881 268.517 122.763 268.609 122.659L269.316 121.693L271.979 118.148L281.099 106.189L281.135 106.441L278.076 104.203L277.758 103.972L278.139 103.881L278.966 103.671L281.523 103.035C281.913 102.984 282.27 102.792 282.526 102.496C282.753 102.155 282.954 101.797 283.127 101.426C283.883 99.9507 284.54 98.4961 285.126 97.0834C286.142 94.582 286.973 92.0109 287.613 89.3906C288.15 87.1527 288.461 85.3064 288.644 84.0266C288.729 83.4182 288.793 82.9286 288.849 82.558C288.862 82.3806 288.893 82.2049 288.941 82.0334Z" fill="#263238"/>
<path d="M300.435 85.1525C299.908 85.1724 299.386 85.2569 298.881 85.4043C297.539 85.9102 296.38 86.8015 295.553 87.9639C294.962 88.7499 294.448 89.5907 294.02 90.4745C293.515 91.485 293.083 92.5297 292.728 93.6006C291.898 96.0554 291.453 98.6214 291.406 101.21C291.343 103.958 292.113 106.511 292.593 108.86C293.074 111.21 293.597 113.308 294.006 115.071C294.416 116.833 294.826 118.246 295.13 119.211C295.292 119.693 295.405 120.071 295.504 120.316C295.562 120.44 295.603 120.572 295.624 120.707C295.549 120.592 295.485 120.471 295.433 120.344C295.313 120.099 295.172 119.728 294.995 119.253C294.649 118.295 294.225 116.889 293.752 115.134C293.279 113.378 292.77 111.273 292.233 108.937C291.969 107.762 291.699 106.534 291.421 105.252C291.135 103.921 290.998 102.563 291.011 101.203C291.055 98.5827 291.517 95.9863 292.381 93.5097C292.746 92.4257 293.195 91.3712 293.724 90.3557C294.166 89.4571 294.701 88.6063 295.32 87.817C296.189 86.6314 297.413 85.7459 298.817 85.2854C299.199 85.1703 299.598 85.116 299.997 85.1245C300.144 85.1136 300.291 85.123 300.435 85.1525Z" fill="#263238"/>
<path d="M292.169 138.583C292.051 138.564 291.935 138.534 291.823 138.492L290.855 138.191L287.231 137.009L274.642 132.813L274.501 132.764V132.617C275.13 129.603 275.815 126.323 276.536 122.826V122.686L276.571 122.54H276.719C284.582 122.693 291.675 123.239 296.783 123.84C299.34 124.127 301.403 124.4 302.823 124.61L304.455 124.868C304.646 124.889 304.835 124.926 305.02 124.98C304.828 124.985 304.637 124.971 304.448 124.938L302.802 124.756C301.389 124.589 299.312 124.351 296.754 124.092C291.647 123.575 284.561 123.057 276.712 122.903L276.896 122.763V122.896C276.189 126.344 275.483 129.645 274.84 132.687L274.727 132.491L287.274 136.841L290.863 138.121L291.816 138.478C291.939 138.495 292.058 138.531 292.169 138.583Z" fill="#263238"/>
<path d="M304.575 122.994C304.575 123.099 302.759 123.211 300.541 123.526C298.323 123.84 296.542 124.225 296.514 124.12C297.788 123.618 299.127 123.298 300.492 123.169C301.837 122.916 303.212 122.857 304.575 122.994Z" fill="#263238"/>
<path d="M269.923 158.752C269.867 158.601 269.822 158.447 269.789 158.29C269.668 157.888 269.421 157.535 269.082 157.283C268.871 157.131 268.628 157.025 268.372 156.972C268.116 156.919 267.851 156.922 267.595 156.978C267.34 157.035 267.099 157.145 266.89 157.3C266.681 157.456 266.507 157.654 266.382 157.882C266.256 158.109 266.18 158.36 266.16 158.619C266.14 158.877 266.175 159.137 266.264 159.38C266.353 159.624 266.494 159.846 266.677 160.032C266.859 160.218 267.08 160.363 267.323 160.458C267.613 160.564 267.925 160.599 268.232 160.558C268.538 160.518 268.83 160.404 269.082 160.227C269.419 159.974 269.667 159.621 269.789 159.22C269.821 159.061 269.866 158.904 269.923 158.752C269.923 158.752 269.987 158.933 269.923 159.255C269.837 159.718 269.586 160.134 269.217 160.43C268.936 160.653 268.602 160.801 268.248 160.861C267.893 160.921 267.529 160.891 267.189 160.773C266.768 160.625 266.403 160.352 266.145 159.991C265.887 159.629 265.748 159.198 265.748 158.755C265.748 158.313 265.887 157.881 266.145 157.52C266.403 157.158 266.768 156.885 267.189 156.737C267.528 156.619 267.892 156.587 268.247 156.646C268.601 156.704 268.935 156.852 269.217 157.073C269.588 157.37 269.839 157.79 269.923 158.255C269.987 158.605 269.944 158.752 269.923 158.752Z" fill="#263238"/>
<path d="M269.527 140.569C269.476 140.415 269.433 140.259 269.4 140.1C269.277 139.7 269.03 139.347 268.694 139.093C268.443 138.916 268.152 138.802 267.847 138.762C267.541 138.722 267.231 138.756 266.942 138.862C266.696 138.955 266.474 139.1 266.289 139.285C266.104 139.47 265.962 139.692 265.871 139.937C265.78 140.181 265.743 140.442 265.763 140.701C265.782 140.961 265.857 141.213 265.983 141.442C266.11 141.67 266.283 141.869 266.494 142.026C266.704 142.182 266.945 142.292 267.202 142.349C267.459 142.405 267.725 142.406 267.982 142.353C268.239 142.299 268.482 142.192 268.694 142.037C269.029 141.785 269.276 141.436 269.4 141.037C269.433 140.879 269.476 140.722 269.527 140.569C269.527 140.569 269.591 140.744 269.527 141.065C269.441 141.53 269.191 141.949 268.821 142.247C268.539 142.47 268.204 142.618 267.848 142.677C267.492 142.735 267.126 142.703 266.786 142.583C266.365 142.435 266 142.162 265.742 141.801C265.484 141.439 265.345 141.008 265.345 140.565C265.345 140.123 265.484 139.691 265.742 139.33C266 138.968 266.365 138.695 266.786 138.548C267.127 138.428 267.493 138.397 267.849 138.457C268.205 138.517 268.539 138.666 268.821 138.89C269.189 139.187 269.439 139.603 269.527 140.065C269.591 140.38 269.549 140.569 269.527 140.569Z" fill="#263238"/>
<g opacity="0.3">
<path d="M234.904 120.623C235.683 120.849 236.405 121.237 237.021 121.76C237.638 122.283 238.135 122.93 238.479 123.658C239.192 125.167 239.63 126.789 239.772 128.449C239.994 129.43 239.869 130.457 239.418 131.358C239.157 131.764 238.528 132.058 238.239 131.687C238.164 131.571 238.115 131.439 238.097 131.302C237.744 129.344 237.652 127.337 237.221 125.4C236.79 123.463 236.381 121.903 234.84 120.63" fill="black"/>
</g>
<g opacity="0.3">
<path d="M268.454 122.665C273.618 120.525 277.468 115.833 280.499 111.182C281.156 110.175 281.799 109.161 282.449 108.147C282.848 107.61 283.112 106.987 283.219 106.329C283.26 105.998 283.182 105.663 282.996 105.385C282.811 105.107 282.532 104.903 282.208 104.811C282.621 104.921 283.058 104.898 283.456 104.744C283.854 104.591 284.191 104.315 284.42 103.958C284.859 103.231 285.132 102.416 285.218 101.573C285.578 99.545 286.073 96.5727 286.433 94.5796C285.861 96.0342 284.639 98.461 284.073 99.9156C283.671 100.944 283.282 102.14 282.442 102.86C281.099 104.014 279.743 103.615 278.16 104.091C279.185 104.37 280.386 105.552 281.163 106.266C277.235 111.777 268.447 122.693 268.447 122.693" fill="black"/>
</g>
<path d="M264.151 38.1843C262.738 38.4641 261.213 38.2543 259.807 38.6459C257.772 39.2124 256.274 40.9887 255.483 42.9399C254.807 44.927 254.443 47.0048 254.402 49.1011L254 54.6959C253.957 55.901 253.789 57.0986 253.498 58.2696C253.124 59.5634 252.085 63.0112 252.043 64.6896C251.771 69.3006 253.287 73.8405 256.281 77.3827C257.588 78.8444 260.301 79.4808 262.237 79.8724C263.092 79.1311 265.395 77.145 266.242 76.3757C266.391 76.2498 263.247 72.8789 263.318 72.6831C263.406 72.3803 263.376 72.0557 263.233 71.774C259.504 60.8441 260.182 48.9109 265.126 38.4641" fill="#E0E0E0"/>
<path d="M264.575 85.6839C264.469 78.3757 264.575 75.6342 264.575 75.6762C264.575 75.7182 258.217 74.6202 256.938 66.4238C256.296 62.3466 256.515 55.6679 256.875 50.213C257.2 45.3175 260.499 39.2752 265.444 39.8067L280.887 43.7021C281.612 43.7806 282.28 44.1252 282.76 44.6678C283.24 45.2103 283.497 45.9113 283.48 46.6323L281.749 85.544" fill="#FFCDB0"/>
<path d="M259.913 55.1853C259.911 55.4595 260.016 55.7237 260.207 55.9221C260.399 56.1204 260.66 56.2374 260.937 56.2483C261.072 56.2588 261.207 56.2425 261.336 56.2006C261.464 56.1586 261.583 56.0917 261.685 56.0038C261.787 55.9159 261.87 55.8087 261.929 55.6886C261.989 55.5685 262.024 55.4378 262.032 55.3042C262.034 55.0312 261.929 54.768 261.74 54.5698C261.55 54.3716 261.29 54.2538 261.015 54.2412C260.879 54.2298 260.743 54.2453 260.614 54.2868C260.485 54.3284 260.365 54.3951 260.262 54.4831C260.16 54.5711 260.076 54.6786 260.016 54.7992C259.956 54.9198 259.921 55.0511 259.913 55.1853Z" fill="#263238"/>
<path d="M258.803 53.6887C258.938 53.8286 259.743 53.2411 260.923 53.2481C262.103 53.2551 262.901 53.8146 263.042 53.6817C263.184 53.5488 262.972 53.374 262.604 53.1082C262.112 52.7659 261.524 52.5849 260.923 52.5907C260.329 52.5851 259.75 52.7691 259.27 53.1152C258.86 53.381 258.74 53.6257 258.803 53.6887Z" fill="#263238"/>
<path d="M271.075 55.3253C271.073 55.5994 271.178 55.8636 271.369 56.062C271.561 56.2604 271.822 56.3774 272.099 56.3883C272.234 56.3978 272.37 56.3806 272.498 56.3378C272.627 56.295 272.745 56.2275 272.847 56.139C272.949 56.0505 273.032 55.943 273.092 55.8225C273.151 55.702 273.186 55.571 273.194 55.4372C273.196 55.1642 273.091 54.901 272.902 54.7028C272.712 54.5046 272.452 54.3868 272.177 54.3742C272.041 54.3637 271.905 54.3801 271.775 54.4225C271.646 54.4648 271.527 54.5322 271.424 54.6208C271.321 54.7093 271.238 54.8172 271.178 54.9382C271.118 55.0592 271.083 55.1907 271.075 55.3253Z" fill="#263238"/>
<path d="M270.029 53.9265C270.163 54.0594 270.969 53.4719 272.113 53.4789C273.258 53.4859 274.091 54.0524 274.233 53.9125C274.374 53.7726 274.162 53.6048 273.795 53.3391C273.3 53.0009 272.714 52.8203 272.113 52.8215C271.519 52.8224 270.941 53.0083 270.46 53.353C270.086 53.6188 269.966 53.8496 270.029 53.9265Z" fill="#263238"/>
<path d="M265.868 62.2978C265.264 62.1137 264.641 62.0011 264.01 61.9621C263.72 61.9621 263.445 61.8782 263.395 61.6823C263.375 61.3826 263.444 61.0835 263.593 60.8221L264.462 58.6262C265.663 55.5001 266.539 52.9265 266.412 52.8846C266.285 52.8426 265.204 55.3323 263.996 58.4793C263.706 59.2486 263.431 59.9829 263.169 60.6893C262.983 61.0367 262.928 61.4383 263.014 61.8222C263.055 61.9247 263.12 62.0161 263.203 62.089C263.287 62.1619 263.387 62.2143 263.494 62.2418C263.655 62.2901 263.821 62.3137 263.989 62.3118C264.613 62.393 265.245 62.3883 265.868 62.2978Z" fill="#263238"/>
<path d="M264.575 75.6762C268.625 75.7671 272.623 74.7637 276.14 72.7739C276.14 72.7739 272.855 78.5296 264.575 77.7463V75.6762Z" fill="#EB996E"/>
<path d="M266.334 65.0393C266.553 64.7687 266.838 64.5575 267.161 64.4254C267.485 64.2933 267.837 64.2447 268.185 64.284C268.437 64.3083 268.682 64.3828 268.904 64.503C269.126 64.6232 269.321 64.7866 269.478 64.9833C269.632 65.1715 269.724 65.4022 269.74 65.6438C269.756 65.8854 269.697 66.1262 269.57 66.3331C269.384 66.532 269.143 66.673 268.877 66.7388C268.611 66.8046 268.331 66.7924 268.072 66.7037C267.531 66.5157 267.033 66.2207 266.61 65.8366C266.483 65.7469 266.373 65.6356 266.285 65.5079C266.241 65.445 266.218 65.3707 266.218 65.2946C266.218 65.2184 266.241 65.1441 266.285 65.0813" fill="#FF725E"/>
<path d="M269.224 63.088C269.04 63.088 269.033 64.3049 267.973 65.186C266.914 66.0672 265.593 65.8854 265.578 66.0882C265.564 66.291 265.875 66.333 266.433 66.347C267.162 66.3536 267.87 66.106 268.433 65.6476C268.971 65.2103 269.318 64.5838 269.4 63.8993C269.45 63.3887 269.309 63.081 269.224 63.088Z" fill="#263238"/>
<path d="M269.52 50.6466C269.634 50.9543 270.778 50.8075 272.113 50.9683C273.448 51.1292 274.536 51.4998 274.713 51.2201C274.798 51.0872 274.607 50.8005 274.169 50.5207C273.591 50.1403 272.93 49.9007 272.24 49.8214C271.556 49.7365 270.86 49.8157 270.213 50.0522C269.725 50.255 269.471 50.4998 269.52 50.6466Z" fill="#263238"/>
<path d="M259.27 51.6257C259.468 51.8845 260.259 51.6257 261.205 51.6257C262.152 51.6257 262.95 51.8006 263.134 51.5348C263.212 51.402 263.092 51.1432 262.738 50.8984C262.267 50.6095 261.721 50.4641 261.167 50.4802C260.613 50.4964 260.076 50.6734 259.623 50.9893C259.27 51.2411 259.143 51.5069 259.27 51.6257Z" fill="#263238"/>
<path d="M272.869 52.514C273.41 52.6364 273.937 52.8097 274.444 53.0315C274.931 53.2939 275.393 53.6006 275.822 53.9477C275.486 53.4907 275.032 53.1309 274.508 52.9056C274.006 52.6346 273.441 52.4995 272.869 52.514Z" fill="#EB996E"/>
<path d="M257.991 53.5C258.314 53.2247 258.67 52.9898 259.051 52.8006C259.452 52.6384 259.872 52.5256 260.301 52.4649C259.853 52.3838 259.39 52.4553 258.987 52.6677C258.57 52.8258 258.219 53.1191 257.991 53.5Z" fill="#EB996E"/>
<path d="M270.008 63.6404C270.008 63.6404 270.064 63.5425 270.057 63.3607C270.029 63.1231 269.928 62.8998 269.768 62.7209C269.607 62.542 269.395 62.4163 269.16 62.3606C268.984 62.3606 268.878 62.3606 268.878 62.3606C268.878 62.3606 268.984 62.3606 269.132 62.4585C269.33 62.5352 269.505 62.6603 269.641 62.8222C269.777 62.9817 269.874 63.171 269.923 63.3747C269.994 63.5355 269.987 63.6404 270.008 63.6404Z" fill="#EB996E"/>
<path d="M271.407 64.1859C271.489 64.0538 271.531 63.9007 271.527 63.7454C271.549 63.369 271.453 62.9951 271.251 62.6754C271.048 62.3587 270.749 62.1139 270.396 61.976C270.254 61.906 270.095 61.877 269.937 61.8921C269.937 61.8921 270.107 61.948 270.354 62.0669C270.672 62.2191 270.941 62.4561 271.131 62.7514C271.321 63.0467 271.424 63.3885 271.428 63.7384C271.428 64.0111 271.385 64.1789 271.407 64.1859Z" fill="#EB996E"/>
<path d="M263.127 39.2543C263.253 38.7818 263.553 38.3728 263.968 38.1073C265.251 37.1895 266.708 36.5363 268.252 36.1867C269.796 35.8371 271.395 35.7982 272.954 36.0722C276.073 36.6459 279.02 37.9132 281.573 39.7788C283.833 41.3313 285.967 43.2196 287.118 45.6952C287.839 47.4854 288.291 49.3703 288.461 51.29C289.11 56.0106 290.389 60.7452 290.347 65.5078C290.347 67.361 290.665 70.4871 290.347 72.774C290.001 75.2217 287.606 78.2009 285.175 78.7464L279.693 79.2849C279.693 79.2849 282.661 69.1583 282.434 65.5078C282.23 62.3047 282.258 58.801 281.898 55.612C281.883 55.3683 281.818 55.1302 281.707 54.9126C281.512 54.6568 281.251 54.4585 280.951 54.3392L277.532 52.6118C276.426 52.0753 275.351 51.48 274.31 50.8285C273.166 50.0405 272.073 49.1808 271.039 48.2549L266.603 44.4994C265.641 43.7539 264.788 42.8809 264.067 41.9048C263.713 41.4115 263.468 40.8507 263.346 40.2582C263.225 39.6657 263.229 39.0546 263.36 38.464" fill="#E0E0E0"/>
<path d="M281.509 57.8499C281.524 57.4462 281.641 57.0527 281.851 56.7061C282.061 56.3596 282.356 56.0713 282.708 55.8681C283.061 55.6649 283.46 55.5534 283.868 55.5441C284.276 55.5348 284.68 55.6279 285.041 55.8148C285.875 56.2973 286.518 57.2624 286.454 59.1087C286.249 64.0461 281.29 62.8222 281.283 62.6824C281.276 62.5425 281.403 59.892 281.509 57.8499Z" fill="#FFCDB0"/>
<path d="M282.872 60.843C282.872 60.843 282.957 60.906 283.099 60.9829C283.302 61.0784 283.534 61.0934 283.748 61.0249C284.078 60.8338 284.352 60.5599 284.54 60.2308C284.729 59.9016 284.826 59.529 284.822 59.1506C284.852 58.7291 284.787 58.3063 284.632 57.9128C284.592 57.7543 284.515 57.6077 284.405 57.4858C284.295 57.3639 284.157 57.2704 284.003 57.2134C283.904 57.1838 283.797 57.1892 283.702 57.2288C283.607 57.2684 283.528 57.3396 283.48 57.4302C283.409 57.5631 283.438 57.661 283.409 57.668C283.381 57.675 283.31 57.5841 283.353 57.3813C283.389 57.261 283.463 57.1555 283.565 57.0806C283.707 56.9842 283.882 56.9466 284.052 56.9757C284.255 57.0243 284.441 57.1229 284.594 57.2623C284.747 57.4018 284.862 57.5775 284.928 57.7729C285.12 58.2134 285.203 58.6931 285.168 59.1716C285.098 60.1647 284.54 61.0738 283.812 61.2696C283.678 61.3027 283.537 61.3054 283.402 61.2775C283.266 61.2497 283.138 61.192 283.028 61.1088C282.873 60.9899 282.851 60.885 282.872 60.843Z" fill="#EB996E"/>
<path d="M283 78.2778C282.88 78.2778 282.915 77.4875 283.141 76.1797C283.367 74.872 283.805 72.9208 284.377 70.585C285.081 67.8829 285.619 65.1411 285.988 62.3746C286.184 60.7692 286.241 59.1501 286.157 57.5352C286.097 55.8446 285.761 54.1748 285.161 52.5908C284.855 51.8429 284.425 51.1504 283.89 50.5417C283.333 49.9566 282.701 49.4464 282.011 49.0241C280.621 48.1578 279.158 47.4136 277.638 46.8002C274.713 45.6183 271.915 44.7021 269.662 43.6951C267.408 42.688 265.663 41.3802 264.914 40.1354C264.165 38.8906 264.208 38.0374 264.328 38.0374C264.448 38.0374 264.646 38.7367 265.494 39.7158C266.788 41.0213 268.394 41.9833 270.163 42.5132C272.403 43.3664 275.186 44.1077 278.266 45.2546C279.901 45.8494 281.475 46.5988 282.964 47.4925C283.799 47.9865 284.56 48.5938 285.225 49.2968C285.909 50.054 286.456 50.9222 286.843 51.8635C287.527 53.6388 287.899 55.5167 287.945 57.4163C288.005 59.1371 287.908 60.8599 287.655 62.5635C287.2 65.3915 286.517 68.1791 285.614 70.8997C284.907 73.2075 284.257 75.0538 283.819 76.3266C283.381 77.5994 283.127 78.3267 283 78.2778Z" fill="#FAFAFA"/>
<path d="M287.486 77.5225C287.507 77.3469 287.545 77.1737 287.599 77.005C287.684 76.6693 287.839 76.1797 287.98 75.5364C288.431 73.7285 288.735 71.8881 288.892 70.0325C289.119 67.2823 289.051 64.516 288.687 61.7802C288.489 60.2346 288.206 58.6191 287.825 56.9687C287.492 55.2567 286.969 53.5867 286.264 51.9893C285.472 50.4427 284.325 49.1014 282.915 48.073C281.597 47.1092 280.176 46.2929 278.676 45.6393C275.85 44.3664 273.095 43.4783 270.969 42.3733C269.243 41.568 267.674 40.4671 266.334 39.1213C266.126 38.9116 265.93 38.6898 265.748 38.457C265.608 38.2927 265.478 38.1199 265.359 37.9394C265.256 37.7937 265.162 37.6419 265.077 37.4849C265.112 37.4849 265.501 38.0933 266.433 39.0234C267.792 40.3082 269.355 41.362 271.061 42.1425C273.18 43.2125 275.9 44.0657 278.832 45.3315C280.359 45.992 281.808 46.8151 283.155 47.7863C284.615 48.8475 285.801 50.2349 286.617 51.8355C287.335 53.456 287.863 55.1524 288.192 56.8918C288.558 58.4918 288.841 60.1094 289.04 61.7382C289.396 64.4966 289.438 67.2857 289.167 70.0535C288.992 71.9192 288.649 73.7658 288.143 75.5713C287.98 76.2077 287.804 76.6973 287.691 77.026C287.642 77.1986 287.573 77.3652 287.486 77.5225Z" fill="#FAFAFA"/>
<path d="M262.682 79.173C262.523 79.1948 262.362 79.2065 262.202 79.208C261.729 79.2218 261.257 79.1984 260.789 79.1381C260.043 79.0541 259.347 78.7269 258.811 78.2079C258.211 77.4487 257.722 76.6108 257.355 75.7182C256.178 73.5224 255.338 71.1654 254.861 68.7248C254.641 67.2726 254.513 65.808 254.48 64.3399C254.431 62.8153 254.409 61.2418 254.48 59.6263C254.621 53.1573 255.752 47.3108 257.539 43.4224C257.964 42.553 258.538 41.7628 259.234 41.0866C259.763 40.5738 260.38 40.1592 261.057 39.8627C261.486 39.6861 261.938 39.5707 262.399 39.52C262.519 39.5109 262.64 39.5109 262.76 39.52H262.887C262.278 39.5982 261.684 39.7606 261.121 40.0026C260.473 40.3101 259.883 40.7239 259.376 41.2264C258.715 41.8992 258.173 42.677 257.772 43.5273C256.077 47.3737 254.989 53.2062 254.847 59.6123C254.805 61.2208 254.847 62.7873 254.847 64.3049C254.877 65.7608 254.997 67.2136 255.208 68.6548C255.656 71.0884 256.461 73.4442 257.595 75.6483C257.944 76.5234 258.405 77.3507 258.966 78.11C259.467 78.6109 260.119 78.9372 260.824 79.0401C262.011 79.18 262.682 79.1241 262.682 79.173Z" fill="#FAFAFA"/>
<path d="M283.579 63.9832C284.121 63.9832 284.561 63.548 284.561 63.0112C284.561 62.4743 284.121 62.0391 283.579 62.0391C283.037 62.0391 282.597 62.4743 282.597 63.0112C282.597 63.548 283.037 63.9832 283.579 63.9832Z" fill="#263238"/>
<path d="M218.55 288.83V289.761C218.55 289.761 202.619 295.873 202.414 298.852L233.894 299.069L233.534 288.698C228.829 290.81 223.947 291.019 218.55 288.83Z" fill="#FF725E"/>
<g opacity="0.6">
<path d="M230.305 291.991C230.607 292.084 230.863 292.284 231.025 292.552C231.187 292.821 231.242 293.139 231.181 293.446C231.099 293.748 230.903 294.007 230.634 294.17C230.364 294.333 230.041 294.386 229.733 294.32C229.412 294.223 229.139 294.01 228.968 293.724C228.797 293.439 228.74 293.1 228.807 292.775C228.927 292.468 229.161 292.219 229.461 292.08C229.761 291.941 230.104 291.921 230.418 292.026" fill="white"/>
</g>
<g opacity="0.6">
<path d="M233.88 299.069L233.795 296.572L203.657 297.271C203.657 297.271 202.245 297.866 202.4 298.845L233.88 299.069Z" fill="white"/>
</g>
<path d="M218.422 289.851C218.422 290.005 219.192 290.075 219.948 290.551C220.704 291.026 221.1 291.684 221.241 291.628C221.382 291.572 221.163 290.691 220.238 290.103C219.313 289.516 218.394 289.711 218.422 289.851Z" fill="#263238"/>
<path d="M215.109 291.18C215.074 291.327 215.738 291.593 216.261 292.236C216.783 292.879 216.925 293.565 217.073 293.558C217.221 293.551 217.334 292.698 216.67 291.9C216.006 291.103 215.116 291.033 215.109 291.18Z" fill="#263238"/>
<path d="M213.209 295.075C213.35 295.11 213.569 294.376 213.209 293.516C212.848 292.656 212.1 292.341 212.036 292.474C211.972 292.607 212.41 293.047 212.742 293.74C213.074 294.432 213.06 295.061 213.209 295.075Z" fill="#263238"/>
<path d="M269.358 123.693L257.857 118.497L249.888 119.302L246.151 123.693C246.151 123.693 246.151 124.994 246.963 124.791C247.594 124.568 248.174 124.226 248.673 123.784L248.779 127.078C248.779 127.078 249.987 128.477 250.792 127.078L251.605 129.575C251.605 129.575 252.509 130.68 253.215 129.575L254.424 132.477C254.715 132.414 254.991 132.293 255.234 132.121C255.477 131.949 255.682 131.73 255.836 131.477C256.077 131.017 256.149 130.488 256.041 129.981C256.041 129.981 259.976 130.68 261.587 131.176C263.198 131.673 271.174 131.477 271.174 131.477L274.706 132.477L276.331 124.267L269.358 123.693Z" fill="#FFCDB0"/>
<path d="M256.154 119.721C255.686 119.645 255.209 119.645 254.741 119.721C254.303 119.805 253.795 119.966 253.222 120.134C252.65 120.302 252.022 120.497 251.379 120.735C250.78 120.952 250.203 121.224 249.655 121.546C249.543 121.601 249.445 121.677 249.364 121.771C249.284 121.865 249.224 121.974 249.189 122.092C249.111 122.323 249.069 122.574 249.019 122.791C248.821 123.665 248.772 124.19 248.722 124.19C248.636 123.703 248.648 123.204 248.758 122.721C248.8 122.497 248.821 122.26 248.892 121.98C248.981 121.67 249.189 121.406 249.471 121.246C250.031 120.891 250.628 120.598 251.251 120.371C251.868 120.147 252.495 119.953 253.131 119.791C253.645 119.641 254.169 119.527 254.699 119.448C254.948 119.394 255.205 119.391 255.455 119.437C255.705 119.484 255.943 119.581 256.154 119.721Z" fill="#EB996E"/>
<path d="M256.818 122.008C256.427 122.271 255.988 122.456 255.526 122.554C254.692 122.812 253.512 122.994 252.276 123.358C251.992 123.417 251.723 123.531 251.485 123.693C251.322 123.909 251.187 124.144 251.082 124.393C250.845 124.822 250.719 125.302 250.715 125.792C250.743 126.12 250.79 126.447 250.856 126.771C250.856 127.008 250.856 127.148 250.856 127.148C250.856 127.148 250.792 127.022 250.722 126.799C250.6 126.478 250.512 126.145 250.46 125.806C250.432 125.281 250.542 124.758 250.778 124.288C250.889 123.993 251.041 123.715 251.23 123.463C251.509 123.249 251.832 123.101 252.177 123.029C253.456 122.658 254.635 122.519 255.469 122.33C255.911 122.194 256.362 122.087 256.818 122.008Z" fill="#EB996E"/>
<path d="M253.314 129.785C253.279 129.785 252.996 129.526 252.714 128.931C252.545 128.566 252.498 128.157 252.58 127.764C252.649 127.519 252.778 127.296 252.955 127.113C253.133 126.93 253.353 126.793 253.597 126.715C254.053 126.571 254.532 126.514 255.01 126.547L256.119 126.582C256.375 126.585 256.63 126.608 256.882 126.652C257.08 126.701 257.136 126.826 257.115 126.833C257.094 126.84 257.023 126.791 256.861 126.791C256.698 126.791 256.437 126.791 256.154 126.84L255.045 126.882C254.612 126.871 254.18 126.93 253.766 127.057C253.575 127.115 253.401 127.217 253.257 127.354C253.114 127.491 253.005 127.66 252.94 127.847C252.861 128.177 252.88 128.522 252.996 128.841C253.126 129.147 253.232 129.463 253.314 129.785Z" fill="#EB996E"/>
</g>
<defs>
<clipPath id="clip0_2_6756">
<rect width="321" height="315" fill="white"/>
</clipPath>
</defs>
</svg>
