<svg width="44" height="45" viewBox="0 0 44 45" fill="none" xmlns="http://www.w3.org/2000/svg">
<path d="M11.8998 24.4371H21.3206V34.3538H11.8998V24.4371Z" fill="#FF5811"/>
<path d="M1.98297 33.3634H11.8997V43.2801H1.98297V33.3634Z" fill="white"/>
<path d="M21.5685 44.2741C25.8344 44.2741 30.0045 42.9946 33.5515 40.5973C37.0985 38.2001 39.863 34.7928 41.4955 30.8063C43.128 26.8198 43.5551 22.4332 42.7229 18.2011C41.8906 13.9691 39.8364 10.0818 36.82 7.03063C33.8035 3.97951 29.9603 1.90167 25.7764 1.05987C21.5925 0.218064 17.2557 0.650107 13.3145 2.30136C9.37332 3.95262 6.00473 6.74892 3.63473 10.3367C1.26472 13.9244 -0.000271609 18.1424 -0.000271797 22.4574L10.1426 22.4574C10.1426 20.1716 10.8127 17.9371 12.0682 16.0365C13.3237 14.1359 15.1082 12.6546 17.196 11.7798C19.2838 10.9051 21.5812 10.6762 23.7976 11.1222C26.014 11.5681 28.05 12.6688 29.6479 14.2851C31.2459 15.9015 32.3341 17.9608 32.7749 20.2027C33.2158 22.4446 32.9895 24.7683 32.1247 26.8802C31.2599 28.992 29.7954 30.797 27.9164 32.0669C26.0375 33.3369 23.8284 34.0147 21.5685 34.0147L21.5685 44.2741Z" fill="white"/>
</svg>
