<svg width="112" height="112" viewBox="0 0 112 112" fill="none" xmlns="http://www.w3.org/2000/svg">
<g clip-path="url(#clip0_2_8244)">
<path d="M94.375 94.3761C115.791 72.9597 115.791 38.2368 94.375 16.8204C72.9586 -4.596 38.2357 -4.596 16.8193 16.8204C-4.59712 38.2368 -4.59712 72.9597 16.8193 94.3761C38.2357 115.793 72.9586 115.793 94.375 94.3761Z" stroke="white" stroke-width="2.27" stroke-miterlimit="10"/>
<path d="M55.5983 81.8013C70.0698 81.8013 81.8013 70.0698 81.8013 55.5983C81.8013 41.1268 70.0698 29.3953 55.5983 29.3953C41.1268 29.3953 29.3953 41.1268 29.3953 55.5983C29.3953 70.0698 41.1268 81.8013 55.5983 81.8013Z" stroke="white" stroke-width="1.08" stroke-miterlimit="10"/>
<path d="M55.5984 84.5746C49.3918 84.5745 43.3491 82.5825 38.3592 78.8916C33.3694 75.2007 29.6958 70.0057 27.879 64.071H4.815C6.81576 76.0945 13.0176 87.0181 22.3169 94.8978C31.6162 102.777 43.4096 107.102 55.5984 107.102C67.7871 107.102 79.5806 102.777 88.8798 94.8978C98.1791 87.0181 104.381 76.0945 106.382 64.071H83.3111C81.4955 70.0052 77.8232 75.1999 72.8345 78.8909C67.8457 82.5819 61.804 84.5741 55.5984 84.5746Z" fill="white"/>
<path d="M26.8548 59.1896H4.24304C4.29625 60.0209 4.37605 60.8456 4.46916 61.6636H27.2671C27.0942 60.8788 26.9546 60.0541 26.8548 59.1896Z" fill="white"/>
<path d="M55.5983 26.6021C61.8037 26.6036 67.8449 28.5963 72.8334 32.2871C77.822 35.9779 81.4945 41.1721 83.311 47.1057H106.408C104.408 35.0822 98.2057 24.1587 88.9064 16.279C79.6071 8.39925 67.8137 4.07458 55.6249 4.07458C43.4361 4.07458 31.6427 8.39925 22.3434 16.279C13.0442 24.1587 6.84231 35.0822 4.84155 47.1057H27.8789C29.6967 41.1715 33.3705 35.9772 38.3602 32.2864C43.3498 28.5957 49.392 26.6033 55.5983 26.6021Z" fill="white"/>
<path d="M26.602 55.5983C26.602 55.1793 26.602 54.7737 26.602 54.3613H4.1366C4.1366 54.7737 4.1366 55.1793 4.1366 55.5983C4.1366 56.0173 4.1366 56.4163 4.1366 56.8287H26.6486C26.6353 56.423 26.602 56.0107 26.602 55.5983Z" fill="white"/>
<path d="M27.2671 49.5065H4.47581C4.38271 50.3245 4.3029 51.1491 4.24969 51.9738H26.8615C26.9546 51.1425 27.0942 50.3178 27.2671 49.5065Z" fill="white"/>
<path d="M84.5746 55.5983C84.5746 56.0107 84.5746 56.423 84.5746 56.8287H107.073C107.073 56.4163 107.107 56.0107 107.107 55.5983C107.107 55.186 107.107 54.7737 107.073 54.3613H84.5414C84.5613 54.7737 84.5746 55.1993 84.5746 55.5983Z" fill="white"/>
<path d="M83.9295 49.5065C84.1024 50.3178 84.2354 51.1425 84.3418 51.9738H106.954C106.894 51.1491 106.821 50.3245 106.721 49.5065H83.9295Z" fill="white"/>
<path d="M83.9295 61.6902H106.714C106.814 60.8722 106.887 60.0475 106.947 59.2162H84.3352C84.2354 60.0542 84.1024 60.8788 83.9295 61.6902Z" fill="white"/>
<path d="M19.2865 27.2671L20.8494 25.5912L26.908 29.8475L22.2526 24.0948L23.8155 22.4122L31.304 29.4152L30.2665 30.5259L24.6003 25.2054L29.4684 31.3572L28.5241 32.388L22.0598 27.9322L27.726 33.2526L26.7683 34.2834L19.2865 27.2671Z" fill="#FF5811"/>
<path d="M33.1063 27.3735C32.4357 27.1918 31.8629 26.755 31.5102 26.1565L28.4642 21.7206C28.0444 21.1731 27.8536 20.484 27.9322 19.7986C27.9939 19.4708 28.1249 19.1601 28.3164 18.8871C28.508 18.6141 28.7556 18.3852 29.0428 18.2157C29.3046 18.0095 29.6069 17.8608 29.9301 17.7794C30.2533 17.698 30.59 17.6858 30.9183 17.7435C31.5877 17.9236 32.1604 18.3579 32.5144 18.9539L35.567 23.3898C35.9905 23.9389 36.1902 24.6281 36.1256 25.3185C35.9546 25.9621 35.5588 26.5232 35.0098 26.9002C34.4608 27.2772 33.795 27.4451 33.1329 27.3735H33.1063ZM34.2701 24.3874L31.1045 19.7786C30.7276 19.2288 30.3086 19.1091 29.8475 19.4195C29.3886 19.7387 29.3487 20.171 29.7278 20.7496L32.8935 25.3584C33.2703 25.917 33.6893 26.0367 34.1504 25.7175C34.5827 25.3783 34.6492 24.9461 34.2701 24.3874Z" fill="#FF5811"/>
<path d="M34.7357 14.9703L36.5779 14.1855L40.3886 19.2399L38.021 13.587L39.3511 13.0283L43.3414 22.4787L41.8185 23.1438L37.1631 16.992L40.0561 23.8886L38.726 24.4406L34.7357 14.9703Z" fill="#FF5811"/>
<path d="M43.3747 11.8312L47.6709 10.9401L47.9702 12.3699L45.2235 12.9352L45.7755 15.5954L47.937 15.1432L48.2362 16.5731L46.0748 17.0253L46.7399 20.1045L49.4599 19.5392L49.7592 20.969L45.463 21.8669L43.3747 11.8312Z" fill="#FF5811"/>
<path d="M53.0246 16.3271L50.8499 10.5212L52.559 10.4547L53.8027 14.1723L54.7471 10.3682L56.3099 10.3083L54.6007 16.2938L54.8069 20.6167L53.2041 20.6832L53.0246 16.3271Z" fill="#FF5811"/>
<path d="M64.2706 11.0066L66.6448 11.5187C66.9689 11.5604 67.2816 11.666 67.5647 11.8292C67.8477 11.9924 68.0957 12.2101 68.2942 12.4697C68.5941 13.0434 68.6585 13.7114 68.4737 14.3319L68.3873 14.7309C68.306 15.1798 68.1165 15.6021 67.8353 15.9612C67.6038 16.2438 67.2777 16.4328 66.9175 16.4933C67.6424 16.9322 67.8818 17.7103 67.6358 18.8409L67.4496 19.6922C67.4095 20.0141 67.3053 20.3248 67.143 20.6058C66.9808 20.8868 66.7639 21.1324 66.5052 21.3282C66.2173 21.4922 65.8991 21.5962 65.57 21.6339C65.2408 21.6716 64.9074 21.6423 64.5898 21.5477L62.1225 21.009L64.2706 11.0066ZM64.8758 20.1178C64.9864 20.1521 65.103 20.1621 65.2178 20.1472C65.3325 20.1322 65.4427 20.0927 65.5409 20.0313C65.7497 19.8361 65.8798 19.5711 65.9066 19.2865L66.0995 18.4153C66.2136 18.0902 66.2136 17.7361 66.0995 17.411C66.0183 17.2912 65.912 17.1904 65.788 17.1158C65.664 17.0411 65.5252 16.9944 65.3812 16.9788L64.6763 16.8258L63.978 19.9515L64.8758 20.1178ZM65.5409 15.5555C65.6668 15.5937 65.7992 15.6051 65.9298 15.5891C66.0603 15.573 66.1861 15.5299 66.299 15.4624C66.5302 15.2733 66.6782 15.0011 66.7114 14.7043L66.8311 14.1456C66.9199 13.8756 66.9199 13.5843 66.8311 13.3143C66.7739 13.214 66.6943 13.1282 66.5986 13.0636C66.5028 12.999 66.3935 12.9574 66.2791 12.9419L65.5209 12.7756L64.9423 15.4358L65.5409 15.5555Z" fill="#FF5811"/>
<path d="M74.0136 13.7865L76.0088 14.6577L73.4483 24.7133L71.9719 24.0482L72.5173 22.0531L70.8413 21.3215L69.7706 23.044L68.4405 22.4455L74.0136 13.7865ZM72.8897 20.7629L74.253 15.8349L71.5928 20.1976L72.8897 20.7629Z" fill="#FF5811"/>
<path d="M75.6297 25.4715C75.5727 24.7972 75.7749 24.1265 76.195 23.596L79.3473 19.0936C79.6998 18.5169 80.2586 18.0961 80.9102 17.9165C81.5555 17.8526 82.2022 18.023 82.7322 18.3967C83.2622 18.7704 83.64 19.3223 83.7965 19.9515C83.8499 20.6245 83.6454 21.2925 83.2246 21.8203L82.6061 22.7115L81.3558 21.8403L82.0208 20.8693C82.38 20.3439 82.3467 19.9316 81.9078 19.6257C81.4688 19.3197 81.0632 19.4261 80.6974 19.9449L77.4453 24.6069C77.0861 25.1123 77.1327 25.5247 77.5716 25.8306C78.0106 26.1365 78.4096 26.0368 78.7621 25.5247L79.6599 24.2411L80.9102 25.119L80.0789 26.3028C79.7264 26.8794 79.1676 27.3003 78.516 27.4799C77.8747 27.5542 77.2283 27.3927 76.6973 27.0257C76.1662 26.6586 75.7868 26.1109 75.6297 25.4848V25.4715Z" fill="#FF5811"/>
<path d="M87.574 22.4388L88.6913 23.596L85.5722 26.6021L90.1079 25.0924L91.2252 26.2562L87.1816 27.4733L83.8564 33.3656L82.6925 32.1552L85.0468 28.012L83.6635 28.4509L81.3092 30.7054L80.192 29.5482L87.574 22.4388Z" fill="#FF5811"/>
<path d="M17.0852 77.2591C17.2821 76.6856 17.6915 76.2095 18.2291 75.929L22.2194 73.5414C22.7209 73.1924 23.3394 73.0539 23.9419 73.1557C24.4819 73.3341 24.9393 73.7015 25.2301 74.1902C25.5209 74.6789 25.6255 75.2562 25.5247 75.8159C25.329 76.3901 24.9192 76.8666 24.3808 77.146L23.7158 77.5317L23.0507 76.4011L23.7756 75.9689C24.2744 75.6696 24.4008 75.3038 24.1547 74.9048C23.9086 74.5057 23.5362 74.4326 23.0374 74.7319L18.8808 77.2192C18.3887 77.5118 18.269 77.8842 18.5151 78.2766C18.7611 78.669 19.1336 78.7488 19.6257 78.4562L21.1088 77.565L20.7496 76.9664L21.8337 76.3014L22.8645 78.0239L20.3839 79.5069C19.8923 79.8504 19.2872 79.991 18.6946 79.8993C18.1538 79.7221 17.6955 79.355 17.4045 78.8659C17.1136 78.3769 17.0096 77.7989 17.1118 77.2391L17.0852 77.2591Z" fill="#FF5811"/>
<path d="M23.6625 86.3902C23.7205 85.7944 24.0064 85.2439 24.4606 84.8539L29.2623 80.0922L30.2399 81.0764L25.385 85.9114C25.205 86.0619 25.0847 86.2718 25.0458 86.5033C25.0449 86.6004 25.0652 86.6967 25.1054 86.7851C25.1456 86.8736 25.2048 86.9522 25.2786 87.0153C25.3418 87.0892 25.4204 87.1483 25.5088 87.1885C25.5973 87.2288 25.6935 87.2491 25.7907 87.2481C26.0227 87.211 26.2332 87.0903 26.3826 86.9089L31.2375 82.0807L32.1818 83.0317L27.3802 87.7868C26.9853 88.2373 26.4335 88.5203 25.8373 88.5782C25.2726 88.535 24.7423 88.2902 24.3431 87.8885C23.9439 87.4869 23.7024 86.9551 23.6625 86.3902Z" fill="#FF5811"/>
<path d="M37.1232 86.5897L38.7725 87.4942L35.7798 95.947L34.5628 95.282L35.1879 93.6193L33.8046 92.8612L32.7472 94.2578L31.6166 93.6393L37.1232 86.5897ZM35.6069 92.502L37.1698 88.3721L34.5096 91.9168L35.6069 92.502Z" fill="#FF5811"/>
<path d="M44.5585 89.782L46.5536 90.2276C46.8367 90.2395 47.1127 90.319 47.3588 90.4594C47.6048 90.5998 47.8137 90.7971 47.968 91.0347C48.1222 91.2722 48.2174 91.5433 48.2456 91.8252C48.2737 92.1071 48.234 92.3916 48.1298 92.655L48.0101 93.187C47.8106 94.0849 47.3916 94.5837 46.7465 94.6967C46.8907 94.7737 47.0162 94.8816 47.1139 95.0126C47.2116 95.1437 47.2792 95.2947 47.3118 95.4549C47.3758 95.8784 47.3532 96.3106 47.2453 96.7251L46.9061 98.2414C46.8529 98.4875 46.8197 98.687 46.7997 98.8466C46.7769 99.0054 46.7769 99.1667 46.7997 99.3255L45.4164 99.0196C45.4035 98.8802 45.4035 98.7399 45.4164 98.6006C45.4468 98.3768 45.4889 98.1548 45.5428 97.9355L45.8886 96.3593C45.9824 96.0765 45.9824 95.771 45.8886 95.4881C45.8219 95.3828 45.7322 95.294 45.6262 95.2283C45.5202 95.1627 45.4007 95.1219 45.2767 95.109L44.8112 95.0026L43.9932 98.707L42.6631 98.4077L44.5585 89.782ZM45.5893 93.892C45.6994 93.9254 45.815 93.9361 45.9293 93.9235C46.0436 93.9109 46.1542 93.8753 46.2544 93.8189C46.4534 93.6502 46.5817 93.4128 46.6135 93.1538L46.7598 92.4887C46.8394 92.2559 46.8394 92.0033 46.7598 91.7705C46.7097 91.6836 46.6406 91.6091 46.5577 91.5527C46.4748 91.4963 46.3802 91.4593 46.281 91.4446L45.6625 91.3116L45.0639 93.7723L45.5893 93.892Z" fill="#FF5811"/>
<path d="M54.8402 91.1121H56.7223L58.3051 99.9306H56.9151L56.6358 98.1749H55.0597L54.8335 99.9107H53.5433L54.8402 91.1121ZM56.4563 97.0044L55.7912 92.6417L55.1993 97.0443L56.4563 97.0044Z" fill="#FF5811"/>
<path d="M63.007 90.4471L64.6896 89.9882L67.3498 94.7433L65.9665 89.6357L67.1569 89.3098L69.478 97.8491L68.0947 98.2215L64.7694 92.4289L66.4653 98.6605L65.2682 98.9863L63.007 90.4471Z" fill="#FF5811"/>
<path d="M73.5015 87.7269L72.2645 88.4518L71.5995 87.3745L75.2706 85.1399L75.9356 86.2239L74.6986 86.9754L78.6424 93.453L77.4519 94.1779L73.5015 87.7269Z" fill="#FF5811"/>
<path d="M79.0015 82.074L81.6151 79.334L82.5262 80.2052L80.8703 81.941L82.5661 83.5571L83.8962 82.1738L84.8074 83.045L83.4773 84.4283L85.4724 86.3037L87.1284 84.5613L88.0462 85.4392L85.4259 88.1792L79.0015 82.074Z" fill="#FF5811"/>
<path d="M84.6345 75.2506L86.5632 71.9852L87.6539 72.6503L86.4568 74.6986L88.4519 75.8891L89.4229 74.2464L90.5136 74.9115L89.5426 76.5475L91.8769 77.9308L93.1006 75.8691L94.1913 76.5342L92.256 79.7929L84.6345 75.2506Z" fill="#FF5811"/>
<path d="M48.7882 42.7296C47.4581 42.7296 46.5736 43.4678 46.5736 45.3898V47.1455H42.5168V45.6891C42.5168 41.3263 44.6982 38.8324 48.9079 38.8324C53.1177 38.8324 55.2991 41.3263 55.2991 45.6891V46.394C55.2991 49.3136 54.3614 51.1425 52.2997 52.0004C54.4412 52.9381 55.2991 54.9599 55.2991 57.7265V59.8547C55.2991 64.2174 53.1177 66.7114 48.9079 66.7114C44.6982 66.7114 42.5168 64.2307 42.5168 59.8547V57.6135H46.5536V60.1407C46.5536 62.0893 47.4049 62.8009 48.7683 62.8009C50.1316 62.8009 50.9895 62.1358 50.9895 59.7217V57.6135C50.9895 55.0796 50.1316 54.1419 48.1897 54.1419H46.7665V50.2447H48.4424C50.0385 50.2447 51.0095 49.5796 51.0095 47.365V45.8487C51.0095 43.388 50.1516 42.7296 48.7882 42.7296Z" fill="white" stroke="white" stroke-width="0.97"/>
<path d="M63.5524 38.8324C67.7621 38.8324 70.0566 41.3263 70.0566 45.6891V59.8547C70.0566 64.2174 67.7621 66.7114 63.5524 66.7114C59.3426 66.7114 57.0482 64.2307 57.0482 59.8547V45.6891C57.0482 41.3263 59.3492 38.8324 63.5524 38.8324ZM63.5524 62.8341C64.8825 62.8341 65.7736 62.0893 65.7736 60.1739V45.4164C65.7736 43.4678 64.9157 42.7562 63.5524 42.7562C62.189 42.7562 61.3311 43.4944 61.3311 45.4164V60.1407C61.3311 62.0893 62.189 62.8341 63.5524 62.8341Z" fill="white" stroke="white" stroke-width="0.97"/>
<path d="M52.1467 71.3335C52.8716 71.3335 53.2241 71.7325 53.2241 72.4641V74.7785C53.2241 75.51 52.8716 75.9091 52.1467 75.9091H51.0161V71.3335H52.1467ZM51.7344 75.2573H52.1401C52.3662 75.2573 52.5058 75.1376 52.5058 74.8117V72.4308C52.5058 72.105 52.3662 71.9852 52.1401 71.9852H51.7344V75.2573Z" fill="white"/>
<path d="M55.2791 75.9091L55.1594 75.0777H54.2749L54.1485 75.9091H53.4835L54.215 71.3335H55.2658L55.9974 75.9091H55.2791ZM55.0596 74.4858L54.7138 72.1715L54.368 74.4858H55.0596Z" fill="white"/>
<path d="M56.1038 71.3335H56.8553L57.4073 73.4218L57.9526 71.3335H58.6177L57.7065 74.3927V75.9091H57.0149V74.3927L56.1038 71.3335Z" fill="white"/>
<path d="M59.8546 71.2803C60.5596 71.2803 60.9187 71.6993 60.9187 72.4308V72.5771H60.2537V72.3843C60.2537 72.0584 60.1273 71.932 59.8945 71.932C59.6618 71.932 59.5354 72.0584 59.5354 72.3843C59.5354 73.3286 60.9453 73.5015 60.9453 74.8117C60.9453 75.5433 60.5795 75.9622 59.8746 75.9622C59.7234 75.975 59.5714 75.9533 59.4298 75.8989C59.2882 75.8445 59.1608 75.7587 59.0572 75.648C58.9535 75.5373 58.8762 75.4045 58.8312 75.2597C58.7862 75.1148 58.7746 74.9617 58.7972 74.8117V74.5324H59.4622V74.8583C59.4622 75.1841 59.6019 75.3038 59.8347 75.3038C60.0674 75.3038 60.2071 75.1841 60.2071 74.8583C60.2071 73.9139 58.7972 73.741 58.7972 72.4308C58.7905 71.6993 59.1497 71.2803 59.8546 71.2803Z" fill="white"/>
</g>
<defs>
<clipPath id="clip0_2_8244">
<rect width="111.19" height="111.19" fill="white"/>
</clipPath>
</defs>
</svg>
