<svg width="52" height="46" viewBox="0 0 52 46" fill="none" xmlns="http://www.w3.org/2000/svg">
<path d="M45.0314 28.4135H18.8767L19.4606 31.2549H43.4092C44.7833 31.2549 45.8018 32.5247 45.4972 33.8582L45.005 36.0137C46.6726 36.8193 47.8225 38.5205 47.8225 40.4892C47.8225 43.2597 45.5457 45.501 42.7526 45.4611C40.0918 45.423 37.9035 43.274 37.8316 40.6266C37.7924 39.1804 38.3745 37.8697 39.3308 36.9375H20.6258C21.5516 37.8401 22.1268 39.0975 22.1268 40.4892C22.1268 43.314 19.76 45.5887 16.8922 45.4561C14.3459 45.3384 12.275 43.2909 12.1411 40.7575C12.0378 38.801 13.0722 37.0766 14.6439 36.177L8.37635 5.6827H2.14131C0.958681 5.6827 0 4.72863 0 3.55169V2.13101C0 0.954072 0.958681 0 2.14131 0H11.2891C12.3063 0 13.183 0.712202 13.3869 1.70392L14.2047 5.6827H49.2492C50.6233 5.6827 51.6417 6.95252 51.3372 8.286L47.1195 26.7548C46.8979 27.725 46.0312 28.4135 45.0314 28.4135ZM35.9587 17.0481H32.1196V11.7206C32.1196 11.1321 31.6402 10.6551 31.049 10.6551H28.9077C28.3164 10.6551 27.837 11.1321 27.837 11.7206V17.0481H23.9979C23.044 17.0481 22.5663 18.1958 23.2409 18.867L29.2213 24.8187C29.6394 25.2347 30.3173 25.2347 30.7354 24.8187L36.7158 18.867C37.3903 18.1958 36.9126 17.0481 35.9587 17.0481Z" fill="white"/>
</svg>
