<svg width="248" height="29" viewBox="0 0 248 29" fill="none" xmlns="http://www.w3.org/2000/svg">
<path d="M10.7811 1.50256C13.3163 1.50256 15.4499 2.36415 17.1819 4.08733C18.9138 5.81051 19.7798 7.92648 19.7798 10.4352C19.7798 12.944 18.9138 15.0599 17.1819 16.7831C15.4499 18.5063 13.3163 19.3679 10.7811 19.3679H6.14995V28.1105H0.954041V1.50256H10.7811ZM10.7811 14.4644C11.8855 14.4644 12.8017 14.0843 13.5297 13.3241C14.2576 12.5385 14.6215 11.5756 14.6215 10.4352C14.6215 9.26954 14.2576 8.30659 13.5297 7.54636C12.8017 6.78614 11.8855 6.40602 10.7811 6.40602H6.14995V14.4644H10.7811Z" fill="white"/>
<path d="M25.3464 6.82415C24.5431 6.82415 23.8403 6.53273 23.2379 5.94989C22.6605 5.3417 22.3719 4.63216 22.3719 3.82125C22.3719 3.01034 22.6605 2.3008 23.2379 1.69261C23.8403 1.08443 24.5431 0.780342 25.3464 0.780342C26.1747 0.780342 26.8775 1.08443 27.4548 1.69261C28.0573 2.3008 28.3585 3.01034 28.3585 3.82125C28.3585 4.63216 28.0573 5.3417 27.4548 5.94989C26.8775 6.53273 26.1747 6.82415 25.3464 6.82415ZM22.9367 28.1105V9.10483H27.7937V28.1105H22.9367Z" fill="white"/>
<path d="M43.0076 13.8182H38.7529V21.7246C38.7529 22.3835 38.9161 22.8649 39.2424 23.169C39.5687 23.4731 40.0457 23.6505 40.6732 23.7012C41.3007 23.7265 42.0788 23.7139 43.0076 23.6632V28.1105C39.6691 28.4906 37.3096 28.1739 35.9291 27.1602C34.5736 26.1466 33.8959 24.3347 33.8959 21.7246V13.8182H30.6202V9.10483H33.8959V5.26568L38.7529 3.78324V9.10483H43.0076V13.8182Z" fill="white"/>
<path d="M54.8049 28.6427C51.9684 28.6427 49.5964 27.6797 47.6887 25.7538C45.8061 23.8279 44.8649 21.4458 44.8649 18.6077C44.8649 15.7695 45.8061 13.3874 47.6887 11.4615C49.5964 9.53562 51.9684 8.57267 54.8049 8.57267C56.6372 8.57267 58.3064 9.01614 59.8125 9.90307C61.3186 10.79 62.4607 11.981 63.2388 13.4761L59.0595 15.9469C58.683 15.1613 58.1056 14.5405 57.3275 14.0843C56.5745 13.6282 55.721 13.4001 54.7672 13.4001C53.3113 13.4001 52.1065 13.8943 51.1527 14.8826C50.1988 15.8455 49.7219 17.0872 49.7219 18.6077C49.7219 20.1028 50.1988 21.3445 51.1527 22.3328C52.1065 23.2957 53.3113 23.7772 54.7672 23.7772C55.7461 23.7772 56.6121 23.5618 57.3652 23.131C58.1433 22.6749 58.7206 22.054 59.0971 21.2685L63.3141 23.7012C62.4858 25.1963 61.3186 26.4 59.8125 27.3123C58.3064 28.1992 56.6372 28.6427 54.8049 28.6427Z" fill="white"/>
<path d="M76.3501 8.57267C78.4083 8.57267 80.1027 9.26955 81.433 10.6633C82.7885 12.057 83.4662 13.983 83.4662 16.441V28.1105H78.6092V17.0492C78.6092 15.7822 78.2703 14.8192 77.5926 14.1603C76.9148 13.4761 76.0112 13.134 74.8817 13.134C73.6266 13.134 72.6226 13.5268 71.8695 14.3124C71.1165 15.098 70.74 16.2763 70.74 17.8474V28.1105H65.8829V1.50256H70.74V11.2335C71.9197 9.4596 73.7898 8.57267 76.3501 8.57267Z" fill="white"/>
<path d="M97.6664 1.50256C100.202 1.50256 102.335 2.36415 104.067 4.08733C105.799 5.81051 106.665 7.92648 106.665 10.4352C106.665 12.944 105.799 15.0599 104.067 16.7831C102.335 18.5063 100.202 19.3679 97.6664 19.3679H93.0353V28.1105H87.8394V1.50256H97.6664ZM97.6664 14.4644C98.7709 14.4644 99.687 14.0843 100.415 13.3241C101.143 12.5385 101.507 11.5756 101.507 10.4352C101.507 9.26954 101.143 8.30659 100.415 7.54636C99.687 6.78614 98.7709 6.40602 97.6664 6.40602H93.0353V14.4644H97.6664Z" fill="white"/>
<path d="M112.676 20.6223C113.328 23.0043 115.098 24.1953 117.985 24.1953C119.842 24.1953 121.248 23.5618 122.202 22.2948L126.117 24.5754C124.26 27.2869 121.524 28.6427 117.909 28.6427C114.797 28.6427 112.299 27.6924 110.417 25.7918C108.534 23.8912 107.593 21.4965 107.593 18.6077C107.593 15.7441 108.522 13.3621 110.379 11.4615C112.237 9.53562 114.621 8.57267 117.533 8.57267C120.294 8.57267 122.566 9.53562 124.348 11.4615C126.155 13.3874 127.059 15.7695 127.059 18.6077C127.059 19.2412 126.996 19.9127 126.87 20.6223H112.676ZM112.601 16.8211H122.202C121.926 15.5287 121.348 14.5658 120.47 13.9323C119.616 13.2987 118.637 12.982 117.533 12.982C116.228 12.982 115.148 13.3241 114.295 14.0083C113.441 14.6672 112.877 15.6048 112.601 16.8211Z" fill="white"/>
<path d="M135.306 12.3738C135.758 11.1574 136.499 10.2452 137.528 9.63699C138.582 9.02881 139.749 8.72471 141.03 8.72471V14.1983C139.549 14.021 138.218 14.3251 137.038 15.1106C135.884 15.8962 135.306 17.2012 135.306 19.0258V28.1105H130.449V9.10483H135.306V12.3738Z" fill="white"/>
<path d="M153.998 5.68381C151.338 5.48108 150.007 6.55807 150.007 8.91477V9.10483H153.998V13.8182H150.007V28.1105H145.15V13.8182H142.439V9.10483H145.15V8.91477C145.15 6.22864 145.891 4.18869 147.372 2.79494C148.853 1.4012 151.062 0.793013 153.998 0.970398V5.68381Z" fill="white"/>
<path d="M159.63 20.6223C160.283 23.0043 162.052 24.1953 164.939 24.1953C166.796 24.1953 168.202 23.5618 169.156 22.2948L173.072 24.5754C171.214 27.2869 168.478 28.6427 164.864 28.6427C161.751 28.6427 159.253 27.6924 157.371 25.7918C155.488 23.8912 154.547 21.4965 154.547 18.6077C154.547 15.7441 155.476 13.3621 157.333 11.4615C159.191 9.53562 161.575 8.57267 164.487 8.57267C167.248 8.57267 169.52 9.53562 171.302 11.4615C173.109 13.3874 174.013 15.7695 174.013 18.6077C174.013 19.2412 173.95 19.9127 173.825 20.6223H159.63ZM159.555 16.8211H169.156C168.88 15.5287 168.302 14.5658 167.424 13.9323C166.57 13.2987 165.591 12.982 164.487 12.982C163.182 12.982 162.102 13.3241 161.249 14.0083C160.396 14.6672 159.831 15.6048 159.555 16.8211Z" fill="white"/>
<path d="M186.218 28.6427C183.381 28.6427 181.009 27.6797 179.101 25.7538C177.219 23.8279 176.278 21.4458 176.278 18.6077C176.278 15.7695 177.219 13.3874 179.101 11.4615C181.009 9.53562 183.381 8.57267 186.218 8.57267C188.05 8.57267 189.719 9.01614 191.225 9.90307C192.731 10.79 193.873 11.981 194.651 13.4761L190.472 15.9469C190.096 15.1613 189.518 14.5405 188.74 14.0843C187.987 13.6282 187.134 13.4001 186.18 13.4001C184.724 13.4001 183.519 13.8943 182.565 14.8826C181.611 15.8455 181.135 17.0872 181.135 18.6077C181.135 20.1028 181.611 21.3445 182.565 22.3328C183.519 23.2957 184.724 23.7772 186.18 23.7772C187.159 23.7772 188.025 23.5618 188.778 23.131C189.556 22.6749 190.133 22.054 190.51 21.2685L194.727 23.7012C193.898 25.1963 192.731 26.4 191.225 27.3123C189.719 28.1992 188.05 28.6427 186.218 28.6427Z" fill="white"/>
<path d="M208.064 13.8182H203.809V21.7246C203.809 22.3835 203.972 22.8649 204.299 23.169C204.625 23.4731 205.102 23.6505 205.73 23.7012C206.357 23.7265 207.135 23.7139 208.064 23.6632V28.1105C204.726 28.4906 202.366 28.1739 200.985 27.1602C199.63 26.1466 198.952 24.3347 198.952 21.7246V13.8182H195.677V9.10483H198.952V5.26568L203.809 3.78324V9.10483H208.064V13.8182Z" fill="white"/>
<path d="M234.669 27.7118L233.096 23.031H222.647L221.074 27.7118H215.494L224.669 1.70701H231.073L240.286 27.7118H234.669ZM224.295 18.2387H231.485L227.89 7.61382L224.295 18.2387Z" fill="#FF5811"/>
<path d="M242.832 1.70701H248V27.7118H242.832V1.70701Z" fill="#FF5811"/>
</svg>
