<svg width="518" height="66" viewBox="0 0 518 66" fill="none" xmlns="http://www.w3.org/2000/svg">
<path d="M18.0025 36.0049H32.2544V51.0069H18.0025V36.0049Z" fill="#FBFBFF"/>
<path d="M3.00043 49.5049H18.0024V64.5069H3.00043V49.5049Z" fill="white"/>
<path d="M32.6294 66.0089C39.0829 66.0089 45.3914 64.0732 50.7573 60.4467C56.1232 56.8201 60.3054 51.6655 62.775 45.6347C65.2446 39.6039 65.8908 32.9678 64.6318 26.5656C63.3728 20.1634 60.2651 14.2825 55.7018 9.66679C51.1385 5.05104 45.3245 1.90767 38.9951 0.634185C32.6656 -0.639299 26.1049 0.0142987 20.1427 2.51233C14.1804 5.01035 9.08441 9.24062 5.49904 14.6682C1.91368 20.0957 -1.15734e-06 26.4768 -1.44267e-06 33.0045L15.3441 33.0045C15.3441 29.5465 16.3579 26.1661 18.2572 23.2909C20.1565 20.4157 22.8561 18.1747 26.0146 16.8514C29.1731 15.5281 32.6486 15.1818 36.0016 15.8565C39.3546 16.5311 42.4345 18.1963 44.8519 20.6414C47.2693 23.0866 48.9156 26.202 49.5825 29.5935C50.2495 32.9851 49.9072 36.5005 48.5989 39.6953C47.2906 42.89 45.0751 45.6207 42.2326 47.5418C39.39 49.463 36.0481 50.4884 32.6294 50.4884L32.6294 66.0089Z" fill="white"/>
<path d="M107.317 10.879C111.698 10.879 115.386 12.3679 118.379 15.3459C121.372 18.3238 122.869 21.9806 122.869 26.3161C122.869 30.6516 121.372 34.3084 118.379 37.2863C115.386 40.2643 111.698 41.7532 107.317 41.7532H99.3139V56.8619H90.3345V10.879H107.317ZM107.317 33.2792C109.226 33.2792 110.809 32.6223 112.067 31.3085C113.325 29.9509 113.954 28.2868 113.954 26.3161C113.954 24.3016 113.325 22.6375 112.067 21.3237C110.809 20.0099 109.226 19.353 107.317 19.353H99.3139V33.2792H107.317Z" fill="white"/>
<path d="M132.488 20.0756C131.1 20.0756 129.886 19.5719 128.845 18.5647C127.847 17.5136 127.348 16.2874 127.348 14.8861C127.348 13.4847 127.847 12.2585 128.845 11.2074C129.886 10.1564 131.1 9.63086 132.488 9.63086C133.92 9.63086 135.135 10.1564 136.132 11.2074C137.173 12.2585 137.694 13.4847 137.694 14.8861C137.694 16.2874 137.173 17.5136 136.132 18.5647C135.135 19.5719 133.92 20.0756 132.488 20.0756ZM128.324 56.8619V24.017H136.718V56.8619H128.324Z" fill="white"/>
<path d="M163.01 32.1625H155.657V45.826C155.657 46.9646 155.939 47.7967 156.503 48.3222C157.067 48.8477 157.891 49.1543 158.976 49.2419C160.06 49.2857 161.405 49.2638 163.01 49.1762V56.8619C157.241 57.5188 153.163 56.9714 150.777 55.2197C148.435 53.4679 147.263 50.3367 147.263 45.826V32.1625H141.603V24.017H147.263V17.3823L155.657 14.8204V24.017H163.01V32.1625Z" fill="white"/>
<path d="M183.398 57.7816C178.496 57.7816 174.397 56.1174 171.1 52.7891C167.846 49.4608 166.22 45.3443 166.22 40.4394C166.22 35.5346 167.846 31.418 171.1 28.0897C174.397 24.7614 178.496 23.0973 183.398 23.0973C186.564 23.0973 189.449 23.8637 192.052 25.3964C194.654 26.9292 196.628 28.9875 197.973 31.5713L190.75 35.8411C190.1 34.4835 189.102 33.4106 187.757 32.6223C186.456 31.834 184.981 31.4399 183.333 31.4399C180.817 31.4399 178.734 32.2939 177.086 34.0018C175.438 35.666 174.613 37.8118 174.613 40.4394C174.613 43.0232 175.438 45.1691 177.086 46.877C178.734 48.5412 180.817 49.3733 183.333 49.3733C185.024 49.3733 186.521 49.001 187.822 48.2565C189.167 47.4683 190.165 46.3953 190.815 45.0377L198.103 49.2419C196.671 51.8257 194.654 53.9059 192.052 55.4824C189.449 57.0152 186.564 57.7816 183.398 57.7816Z" fill="white"/>
<path d="M220.631 23.0973C224.188 23.0973 227.116 24.3016 229.415 26.7102C231.758 29.1189 232.929 32.4472 232.929 36.6951V56.8619H224.535V37.7461C224.535 35.5565 223.95 33.8923 222.779 32.7537C221.607 31.5713 220.046 30.9801 218.094 30.9801C215.925 30.9801 214.19 31.6589 212.888 33.0165C211.587 34.3741 210.936 36.4104 210.936 39.1256V56.8619H202.542V10.879H210.936V27.6956C212.975 24.6301 216.207 23.0973 220.631 23.0973Z" fill="white"/>
<path d="M257.469 10.879C261.851 10.879 265.538 12.3679 268.531 15.3459C271.524 18.3238 273.021 21.9806 273.021 26.3161C273.021 30.6516 271.524 34.3084 268.531 37.2863C265.538 40.2643 261.851 41.7532 257.469 41.7532H249.466V56.8619H240.487V10.879H257.469ZM257.469 33.2792C259.378 33.2792 260.961 32.6223 262.219 31.3085C263.477 29.9509 264.106 28.2868 264.106 26.3161C264.106 24.3016 263.477 22.6375 262.219 21.3237C260.961 20.0099 259.378 19.353 257.469 19.353H249.466V33.2792H257.469Z" fill="white"/>
<path d="M283.408 43.921C284.536 48.0376 287.594 50.0958 292.583 50.0958C295.793 50.0958 298.222 49.001 299.87 46.8113L306.638 50.7527C303.428 55.4386 298.699 57.7816 292.453 57.7816C287.074 57.7816 282.758 56.1393 279.504 52.8548C276.251 49.5703 274.624 45.4319 274.624 40.4394C274.624 35.4908 276.229 31.3742 279.439 28.0897C282.649 24.7614 286.77 23.0973 291.802 23.0973C296.574 23.0973 300.499 24.7614 303.579 28.0897C306.703 31.418 308.264 35.5346 308.264 40.4394C308.264 41.5343 308.156 42.6948 307.939 43.921H283.408ZM283.278 37.352H299.87C299.393 35.1185 298.396 33.4544 296.877 32.3596C295.402 31.2647 293.711 30.7173 291.802 30.7173C289.546 30.7173 287.681 31.3085 286.206 32.4909C284.731 33.6296 283.755 35.2499 283.278 37.352Z" fill="white"/>
<path d="M322.518 29.6663C323.299 27.5642 324.578 25.9876 326.357 24.9366C328.179 23.8856 330.196 23.3601 332.408 23.3601V32.8194C329.849 32.5128 327.55 33.0384 325.511 34.396C323.515 35.7535 322.518 38.0089 322.518 41.162V56.8619H314.124V24.017H322.518V29.6663Z" fill="white"/>
<path d="M354.82 18.1049C350.222 17.7545 347.923 19.6157 347.923 23.6885V24.017H354.82V32.1625H347.923V56.8619H339.529V32.1625H334.845V24.017H339.529V23.6885C339.529 19.0464 340.809 15.5211 343.368 13.1124C345.928 10.7038 349.745 9.65276 354.82 9.95931V18.1049Z" fill="white"/>
<path d="M364.553 43.921C365.681 48.0376 368.739 50.0958 373.727 50.0958C376.937 50.0958 379.367 49.001 381.015 46.8113L387.782 50.7527C384.572 55.4386 379.844 57.7816 373.597 57.7816C368.218 57.7816 363.902 56.1393 360.649 52.8548C357.395 49.5703 355.769 45.4319 355.769 40.4394C355.769 35.4908 357.374 31.3742 360.584 28.0897C363.794 24.7614 367.915 23.0973 372.947 23.0973C377.718 23.0973 381.644 24.7614 384.724 28.0897C387.847 31.418 389.409 35.5346 389.409 40.4394C389.409 41.5343 389.3 42.6948 389.083 43.921H364.553ZM364.423 37.352H381.015C380.538 35.1185 379.54 33.4544 378.022 32.3596C376.547 31.2647 374.855 30.7173 372.947 30.7173C370.691 30.7173 368.826 31.3085 367.351 32.4909C365.876 33.6296 364.9 35.2499 364.423 37.352Z" fill="white"/>
<path d="M410.5 57.7816C405.599 57.7816 401.499 56.1174 398.203 52.7891C394.949 49.4608 393.322 45.3443 393.322 40.4394C393.322 35.5346 394.949 31.418 398.203 28.0897C401.499 24.7614 405.599 23.0973 410.5 23.0973C413.667 23.0973 416.552 23.8637 419.155 25.3964C421.757 26.9292 423.731 28.9875 425.076 31.5713L417.853 35.8411C417.202 34.4835 416.205 33.4106 414.86 32.6223C413.559 31.834 412.084 31.4399 410.435 31.4399C407.919 31.4399 405.837 32.2939 404.189 34.0018C402.54 35.666 401.716 37.8118 401.716 40.4394C401.716 43.0232 402.54 45.1691 404.189 46.877C405.837 48.5412 407.919 49.3733 410.435 49.3733C412.127 49.3733 413.624 49.001 414.925 48.2565C416.27 47.4683 417.268 46.3953 417.918 45.0377L425.206 49.2419C423.774 51.8257 421.757 53.9059 419.155 55.4824C416.552 57.0152 413.667 57.7816 410.5 57.7816Z" fill="white"/>
<path d="M448.255 32.1625H440.902V45.826C440.902 46.9646 441.184 47.7967 441.748 48.3222C442.312 48.8477 443.136 49.1543 444.22 49.2419C445.305 49.2857 446.65 49.2638 448.255 49.1762V56.8619C442.485 57.5188 438.408 56.9714 436.022 55.2197C433.679 53.4679 432.508 50.3367 432.508 45.826V32.1625H426.847V24.017H432.508V17.3823L440.902 14.8204V24.017H448.255V32.1625Z" fill="white"/>
<path d="M494.232 56.1741L491.514 48.0847H473.457L470.738 56.1741H461.095L476.952 11.2334H488.019L503.94 56.1741H494.232ZM476.304 39.8028H488.731L482.518 21.4413L476.304 39.8028Z" fill="#FBFBFF"/>
<path d="M508.339 11.2334H517.271V56.1741H508.339V11.2334Z" fill="#FBFBFF"/>
</svg>
