<svg width="33" height="33" viewBox="0 0 33 33" fill="none" xmlns="http://www.w3.org/2000/svg">
<path d="M8.84448 17.6938H15.8467V25.0646H8.84448V17.6938Z" fill="#FF5811"/>
<path d="M2.47375 25.3259H7.84453V30.6967H2.47375V25.3259Z" stroke="white" stroke-width="2"/>
<path d="M24.378 28.8701C22.1846 30.3525 19.6502 31.221 17.0314 31.3977L17.0314 25.7526C18.5576 25.5892 20.0266 25.0538 21.3096 24.1867C22.8708 23.1316 24.0859 21.6331 24.8029 19.882C25.52 18.131 25.7074 16.205 25.342 14.3469C24.9766 12.4888 24.0744 10.7804 22.7477 9.43848C21.4209 8.09642 19.7291 7.18115 17.8855 6.81023C16.0418 6.43929 14.131 6.62977 12.395 7.35709C10.6592 8.08436 9.1774 9.31516 8.13571 10.8921C7.27835 12.19 6.75049 13.6747 6.59058 15.2157L1.03246 15.2157C1.20551 12.5558 2.06652 9.98265 3.53614 7.75793C5.18919 5.25554 7.53753 3.3069 10.2829 2.15667C13.0281 1.00649 16.0482 0.705739 18.9617 1.29194C21.8754 1.87816 24.5533 3.32542 26.6562 5.45253C28.7593 7.57977 30.1928 10.2914 30.7736 13.2451C31.3545 16.1989 31.0563 19.2605 29.9171 22.0422C28.778 24.8239 26.8498 27.1995 24.378 28.8701Z" stroke="white" stroke-width="2"/>
</svg>
