<svg width="355" height="232" viewBox="0 0 355 232" fill="none" xmlns="http://www.w3.org/2000/svg">
<path d="M354.243 102.37C359.603 157.312 307.806 219.461 194.602 230.497C81.3976 241.532 5.94904 189.246 0.588312 134.304C-4.77242 79.3617 24.5753 -45.0814 168.658 16.892C312.741 78.8654 348.882 47.4279 354.243 102.37Z" fill="#FFF4E9"/>
<path d="M220.448 197.997C220.448 197.997 291.193 186.45 294.017 161.827C296.84 137.204 237.404 161.212 237.404 161.212C237.404 161.212 263.746 116.481 252.116 102.552C240.486 88.6223 207.385 137.659 207.385 137.659C207.385 137.659 212.795 85.9384 197.132 83.8416C181.469 81.7449 167.043 191.608 167.043 191.608L220.448 197.997Z" fill="#FFDACF"/>
<path d="M238.949 123.708C243.198 117.208 247.42 110.684 251.613 104.138L252.389 102.936C252.291 102.81 252.2 102.684 252.095 102.565C251.99 102.446 251.865 102.3 251.746 102.174C247.753 108.39 243.743 114.591 239.717 120.779C235.491 127.251 231.198 133.681 226.836 140.069C222.503 146.36 218.072 152.65 213.501 158.779C208.93 164.909 204.317 170.822 199.467 176.637C194.7 182.347 189.758 187.904 184.593 193.243L184.167 193.677L185.355 193.816C189.87 189.157 194.22 184.341 198.404 179.37C203.297 173.611 207.979 167.684 212.529 161.659C217.152 155.523 221.639 149.293 225.991 142.97C230.415 136.603 234.706 130.18 238.949 123.708Z" fill="#FFEBDE"/>
<path d="M293.947 158.277C293.893 157.963 293.821 157.653 293.73 157.348L272.93 165.071L249.474 173.779L226.123 182.418L202.689 191.154L193.085 194.726L195.147 194.971L200.04 193.16L223.502 184.452L246.846 175.778L270.267 167.042L293.618 158.375L293.947 158.277Z" fill="#FFEBDE"/>
<path d="M186.439 189.176C187.711 182.843 188.859 176.49 189.884 170.116C191.012 163.253 192.025 156.368 192.925 149.463C193.856 142.278 194.704 135.081 195.469 127.873C196.228 120.521 196.885 113.161 197.44 105.794C197.975 98.6234 198.404 91.4501 198.726 84.2745C198.418 84.1557 198.103 84.0576 197.782 83.981C197.507 90.3365 197.141 96.6827 196.685 103.02C196.168 110.321 195.545 117.618 194.819 124.91C194.092 132.202 193.269 139.424 192.351 146.576C191.457 153.538 190.46 160.485 189.36 167.418C188.34 173.834 187.212 180.232 185.977 186.611C185.823 187.372 185.677 188.141 185.523 188.903C185.404 189.518 186.32 189.777 186.439 189.176Z" fill="#FFEBDE"/>
<path d="M123.787 198.128C123.787 198.128 59.4096 181.41 56.565 156.822C53.7204 132.234 112.961 158.534 112.961 158.534C112.961 158.534 80.4821 116.718 92.1052 102.809C103.728 88.9009 135.613 139.852 135.613 139.852C135.613 139.852 131.42 86.203 147.103 84.1202C162.787 82.0375 172.118 189.406 172.118 189.406L123.787 198.128Z" fill="#FFDACF"/>
<path d="M147.04 101.811C147.614 108.507 148.312 115.189 149.088 121.856C149.885 128.769 150.766 135.667 151.688 142.558C152.583 149.254 153.515 155.947 154.484 162.638C155.351 168.663 156.227 174.681 157.112 180.692C157.21 181.39 157.301 182.026 157.398 182.697C157.496 183.368 158.405 183.04 158.321 182.439C157.468 176.568 156.602 170.69 155.756 164.812C154.796 158.2 153.864 151.584 152.96 144.963C152.028 138.057 151.145 131.15 150.311 124.24C149.522 117.537 148.795 110.827 148.215 104.111C147.669 98.058 147.215 92.0054 146.971 85.9387L146.908 84.1914C146.588 84.2445 146.273 84.3192 145.964 84.4151C146.139 90.2161 146.544 96.0242 147.04 101.811Z" fill="#FFEBDE"/>
<path d="M169.462 207.711C199.307 207.711 223.502 204.137 223.502 199.729C223.502 195.321 199.307 191.748 169.462 191.748C139.616 191.748 115.421 195.321 115.421 199.729C115.421 204.137 139.616 207.711 169.462 207.711Z" fill="white"/>
<path d="M141.183 172.003C145.782 177.394 150.505 182.676 155.35 187.848L157.168 189.777C157.594 190.217 158.265 189.546 157.867 189.078C153.002 183.952 148.259 178.706 143.637 173.338C139.014 167.97 134.469 162.456 130.001 156.794C125.523 151.101 121.171 145.304 116.945 139.405C112.719 133.506 108.586 127.468 104.546 121.289C100.52 115.125 96.6247 108.872 92.8599 102.53C92.797 102.432 92.7411 102.327 92.6782 102.223C92.4895 102.404 92.3077 102.6 92.126 102.81L92.0072 102.964C95.3341 108.555 98.7658 114.095 102.302 119.584C106.295 125.762 110.417 131.852 114.666 137.854C118.86 143.753 123.174 149.558 127.61 155.271C132.046 160.983 136.57 166.561 141.183 172.003Z" fill="#FFEBDE"/>
<path d="M144.916 188.009L147.194 188.373C147.788 188.464 148.047 187.548 147.446 187.457C141.281 186.525 135.163 185.316 129.092 183.83C123.021 182.344 116.98 180.608 110.969 178.623C104.912 176.61 98.9638 174.353 93.1255 171.85C87.2872 169.348 81.4838 166.581 75.7154 163.547C69.9423 160.514 64.2973 157.252 58.7805 153.762L56.8095 152.511C56.7161 152.837 56.646 153.168 56.5999 153.504C62.0002 156.966 67.531 160.227 73.1923 163.289C78.8535 166.35 84.6639 169.181 90.6234 171.78C96.4337 174.334 102.342 176.647 108.348 178.721C114.354 180.794 120.411 182.604 126.52 184.151C132.568 185.689 138.7 186.975 144.916 188.009Z" fill="#FFEBDE"/>
<path d="M242.946 25.0483L262.782 20.9526L281.177 112.56L260.287 116.873L242.946 25.0483Z" fill="#FFC000"/>
<path d="M262.606 116.399C282.675 112.254 294.714 88.4106 289.495 63.1435C284.277 37.8763 263.777 20.7535 243.707 24.8987C223.638 29.0439 211.599 52.8874 216.818 78.1546C222.037 103.422 242.537 120.544 262.606 116.399Z" fill="#FFC000"/>
<path d="M245.651 52.5718L219.267 58.0094C219.022 59.7078 218.855 61.4341 218.778 63.1954L246.658 57.4363L245.651 52.5718Z" fill="#FF8F00"/>
<path d="M247.832 80.2694L246.825 75.377L220.721 80.7656C221.154 82.4011 221.657 83.9877 222.216 85.5393L247.832 80.2694Z" fill="#FF8F00"/>
<path d="M239.682 65.3408L218.862 69.6392C218.973 71.2817 219.155 72.9381 219.421 74.6085L240.689 70.2123L239.682 65.3408Z" fill="#FF8F00"/>
<path d="M251.613 39.8374L222.587 45.8342C221.838 47.6178 221.199 49.4454 220.672 51.3067L252.619 44.7089L251.613 39.8374Z" fill="#FF8F00"/>
<path d="M226.452 38.5511L258.602 31.9183L257.596 27.0259L231.596 32.4006C229.666 34.2603 227.941 36.3224 226.452 38.5511Z" fill="#FF8F00"/>
<path d="M268.422 105.095L241.374 110.686C243.614 112.141 246.004 113.35 248.503 114.293L269.429 109.973L268.422 105.095Z" fill="#FF8F00"/>
<path d="M260.049 95.5063L231.156 101.475C232.391 102.973 233.714 104.397 235.118 105.739L261.055 100.378L260.049 95.5063Z" fill="#FF8F00"/>
<path d="M255.157 90.2782L254.15 85.3857L224.733 91.4594C225.515 93.0389 226.361 94.5626 227.27 96.0163L255.157 90.2782Z" fill="#FF8F00"/>
<path d="M281.177 112.562C301.246 108.417 313.285 84.5732 308.066 59.3061C302.847 34.0389 282.347 16.9161 262.278 21.0613C242.208 25.2065 230.17 49.05 235.389 74.3172C240.607 99.5843 261.107 116.707 281.177 112.562Z" fill="#FFC000"/>
<path d="M240.186 38.2017C235.866 45.9457 233.686 55.5908 234.28 65.837L296.037 104.76C302.222 98.9939 306.52 90.6767 308.338 81.1644L240.186 38.2017Z" fill="#FFD660"/>
<path d="M242.786 34.1268L309.065 75.9083C309.473 71.1721 309.287 66.4034 308.512 61.7132L251.383 25.6978C248.052 27.9898 245.143 30.8416 242.786 34.1268Z" fill="#FFD660"/>
<path d="M279.453 104.217C295.863 100.828 305.707 81.3325 301.44 60.6734C297.173 40.0144 280.411 26.0146 264.001 29.404C247.591 32.7934 237.747 52.2885 242.014 72.9475C246.281 93.6066 263.043 107.606 279.453 104.217Z" fill="#F18800"/>
<path d="M245.176 44.855C241.262 52.7109 239.899 62.6845 242.017 72.9446C242.122 73.4409 242.241 73.9371 242.359 74.4333L285.909 101.887C293.555 97.8612 299.063 89.9075 301.285 80.2204L245.176 44.855Z" fill="#FFA421"/>
<path d="M256.394 32.3662C252.91 34.4814 249.921 37.3201 247.629 40.6904L302.145 75.0773C302.651 70.3032 302.416 65.4794 301.446 60.7774L256.394 32.3662Z" fill="#FFA421"/>
<path d="M264.662 29.2837C279.863 28.417 294.576 41.8643 298.539 61.0147C302.802 81.6678 292.947 101.168 276.558 104.558L275.894 104.669C277.089 104.608 278.278 104.456 279.451 104.215C295.862 100.825 305.703 81.3324 301.439 60.6722C297.225 40.2847 280.856 26.3971 264.662 29.2837Z" fill="#FF8F00"/>
<path d="M286.273 71.2042C286.664 74.559 285.406 77.7834 282.498 80.8773C279.843 83.5891 277.28 85.0825 274.81 85.3574L275.509 92.123L272.867 92.4095L272.126 85.6439C270.241 85.854 268.337 85.8258 266.458 85.5601C264.33 85.2945 262.26 84.6756 260.336 83.7289L259.413 75.2789L262.67 74.9225C262.792 77.1347 263.517 79.2714 264.767 81.101C265.95 82.578 268.299 83.0673 271.812 82.5687L270.037 66.3118C267.069 66.389 264.183 65.3403 261.957 63.3763C260.809 62.4457 259.859 61.2947 259.163 59.9911C258.466 58.6875 258.038 57.2577 257.903 55.786C257.51 52.7814 258.294 49.7412 260.091 47.3011C261.84 44.8553 264.481 43.1959 267.444 42.6812L267.192 40.3818L269.834 40.0952L270.086 42.3947C270.819 42.3159 271.557 42.2855 272.294 42.3038C273.096 42.3038 273.983 42.3457 274.957 42.4296C276.763 42.5846 278.55 42.9194 280.29 43.4291L281.136 51.1871L278.445 51.4807C278.508 50.3671 278.259 49.2581 277.727 48.2779C277.195 47.2977 276.4 46.4851 275.432 45.9312C273.917 45.0174 272.111 44.7127 270.379 45.0785L271.98 59.7559C273.941 59.5369 276.271 60.0564 278.969 61.3145C280.982 62.1263 282.73 63.4804 284.02 65.2263C285.309 66.9723 286.089 69.0416 286.273 71.2042ZM269.296 59.5462L267.737 45.2812C266.204 45.4769 264.757 46.4088 263.397 48.0769C262.765 48.7819 262.286 49.6108 261.991 50.5108C261.696 51.4108 261.592 52.3623 261.685 53.3048C261.77 54.2168 262.046 55.1006 262.495 55.8989C262.945 56.6972 263.557 57.3921 264.292 57.9387C265.683 59.1119 267.481 59.6895 269.296 59.5462ZM281.45 73.2241C281.118 71.2651 280.063 69.5019 278.494 68.2827C277.712 67.6011 276.794 67.0934 275.801 66.7933C274.808 66.4933 273.763 66.4078 272.735 66.5424L274.454 82.2821C275.527 82.163 276.562 81.818 277.492 81.2699C278.422 80.7218 279.226 79.983 279.85 79.102C280.533 78.3009 281.031 77.3584 281.308 76.3423C281.585 75.3261 281.633 74.2613 281.45 73.2241Z" fill="#FF8F00"/>
<path d="M288.195 70.9952C288.595 74.3501 287.34 77.5721 284.427 80.6613C281.771 83.3825 279.209 84.8782 276.739 85.1484L277.48 91.914L274.831 92.2005L274.097 85.435C272.212 85.645 270.307 85.6168 268.429 85.3511C266.3 85.0875 264.23 84.4685 262.306 83.5199L261.384 75.063L264.634 74.7135C264.756 76.9257 265.481 79.0624 266.731 80.892C267.919 82.369 270.27 82.8583 273.783 82.3597L272.007 66.1028C269.038 66.1811 266.149 65.1324 263.921 63.1673C262.78 62.2322 261.835 61.0797 261.143 59.7767C260.451 58.4737 260.024 57.0462 259.888 55.577C259.499 52.5726 260.282 49.5338 262.076 47.0921C263.826 44.648 266.467 42.989 269.428 42.4722L269.177 40.1728L271.819 39.8862L272.07 42.1857C272.804 42.1071 273.542 42.0768 274.279 42.0948C275.083 42.0948 275.97 42.1507 276.949 42.2206C278.753 42.3761 280.537 42.7109 282.275 43.2201L283.064 50.9781L280.381 51.2717C280.44 50.1578 280.19 49.0493 279.657 48.0694C279.124 47.0896 278.329 46.2771 277.361 45.7222C275.846 44.8085 274.04 44.5037 272.308 44.8695L273.909 59.5469C275.87 59.3279 278.2 59.8474 280.898 61.1055C282.909 61.9183 284.656 63.2729 285.944 65.0187C287.233 66.7646 288.011 68.8334 288.195 70.9952ZM271.218 59.3372L269.666 45.0722C268.135 45.2679 266.682 46.2045 265.319 47.8679C264.685 48.5764 264.206 49.4088 263.911 50.3124C263.616 51.216 263.512 52.171 263.606 53.1168C263.691 54.0289 263.967 54.9128 264.418 55.7103C264.868 56.5077 265.483 57.2008 266.22 57.7437C267.61 58.9148 269.407 59.4878 271.218 59.3372ZM283.372 73.0151C283.043 71.0566 281.99 69.2932 280.423 68.0737C279.643 67.3936 278.727 66.8867 277.737 66.5867C276.746 66.2867 275.704 66.2004 274.677 66.3334L276.397 82.0731C277.47 81.9524 278.506 81.6067 279.437 81.0588C280.368 80.5109 281.173 79.7729 281.799 78.8931C282.479 78.0898 282.972 77.1463 283.244 76.1301C283.515 75.1139 283.559 74.0502 283.372 73.0151Z" fill="#FFC000"/>
<path d="M273.916 59.526V59.4561L271.043 57.6459L271.225 59.3373C269.412 59.484 267.615 58.9059 266.227 57.7297C265.49 57.189 264.875 56.4985 264.424 55.7036C263.972 54.9086 263.694 54.0271 263.607 53.1169C263.607 53.0679 263.607 53.026 263.607 52.9771L260.21 50.8384C259.783 52.3843 259.66 53.9982 259.846 55.591C259.982 57.0604 260.408 58.4882 261.1 59.7913C261.793 61.0944 262.737 62.2468 263.879 63.1813C266.107 65.1464 268.996 66.1952 271.966 66.1168L273.741 82.3737C270.228 82.8676 267.877 82.3784 266.689 80.906C265.439 79.0764 264.714 76.9398 264.592 74.7275L261.342 75.077L262.258 83.464L262.474 83.5968C264.338 84.4927 266.335 85.0805 268.387 85.3372C270.266 85.6029 272.17 85.6311 274.055 85.421L274.691 91.3059L275.901 92.0678L277.438 91.9L276.697 85.1345C279.185 84.8642 281.748 83.3685 284.385 80.6474C287.293 77.5582 288.549 74.3361 288.153 70.9813C288.042 69.9793 287.822 68.9925 287.496 68.0388L273.979 59.519L273.916 59.526ZM283.372 73.0152C283.555 74.0518 283.507 75.1161 283.232 76.1321C282.956 77.1481 282.46 78.0908 281.778 78.8931C281.152 79.773 280.347 80.5109 279.416 81.0588C278.485 81.6068 277.449 81.9524 276.376 82.0732L274.677 66.3335C275.707 66.196 276.754 66.2801 277.749 66.5803C278.743 66.8804 279.662 67.3896 280.444 68.0738C282.003 69.2968 283.048 71.0598 283.372 73.0152Z" fill="#FFD660"/>
<path d="M277.732 42.3115C277.452 42.3115 277.173 42.2416 276.9 42.2206C275.922 42.1507 275.034 42.1088 274.23 42.0948C273.493 42.0768 272.755 42.1071 272.022 42.1857L271.77 39.8862L269.128 40.1728L269.38 42.4722C266.661 42.9509 264.206 44.3954 262.467 46.54L265.081 48.1824L265.319 47.8749C266.682 46.2045 268.115 45.2679 269.666 45.0792L270.365 51.5233L273.238 53.3335L272.315 44.8765C274.047 44.5107 275.853 44.8154 277.368 45.7292C278.336 46.284 279.131 47.0966 279.664 48.0764C280.197 49.0562 280.447 50.1648 280.388 51.2787L283.072 50.9851L282.449 45.2959L277.732 42.3115Z" fill="#FFD660"/>
<path d="M310.343 25.8234L311.539 8.98633L313.698 25.7255L323.916 27.1024L313.796 29.0733L312.58 45.0996L310.441 29.1712L300.223 27.7873L310.343 25.8234Z" fill="#FFC000"/>
<path d="M326.992 44.0523L327.775 32.9395L329.2 43.9894L335.945 44.898L329.263 46.198L328.466 56.7727L327.055 46.2609L320.31 45.3523L326.992 44.0523Z" fill="#FFC000"/>
<path d="M25.7635 47.6376C25.7635 47.6376 -2.13745 33.0371 1.30124 29.4656C4.73994 25.8941 18.8721 33.079 18.8721 33.079C18.8721 33.079 15.2867 17.1716 20.927 17.1017C26.5673 17.0318 25.7635 47.6376 25.7635 47.6376Z" fill="#FFC000"/>
<path d="M37.694 29.4515C37.694 29.4515 31.2709 20.4633 33.0951 19.7015C34.9192 18.9397 37.044 22.0359 37.044 22.0359C37.044 22.0359 36.9741 17.6677 39.0429 18.5413C41.1117 19.415 37.694 29.4515 37.694 29.4515Z" fill="#FFC000"/>
<path d="M80.2235 114.908C106.865 114.908 128.463 93.3103 128.463 66.6683C128.463 40.0263 106.865 18.4287 80.2235 18.4287C53.5815 18.4287 31.9839 40.0263 31.9839 66.6683C31.9839 93.3103 53.5815 114.908 80.2235 114.908Z" fill="#FFC000"/>
<path d="M38.8123 71.0999C37.6393 60.1185 40.875 49.1207 47.8082 40.5244C54.7414 31.928 64.8045 26.4367 75.7853 25.2576C98.654 22.8114 118.42 42.4162 120.859 65.2849C123.298 88.1536 109.599 104.907 86.7304 107.36C63.8617 109.813 41.2376 93.9686 38.8123 71.0999Z" fill="#FF8F00"/>
<path d="M85.566 104.161C106.274 101.21 120.67 82.0301 117.719 61.3218C114.768 40.6134 95.5881 26.2182 74.8798 29.1691C54.1714 32.12 39.7762 51.2996 42.7271 72.008C45.678 92.7163 64.8576 107.112 85.566 104.161Z" fill="white"/>
<path d="M80.8664 73.2594C80.738 73.2584 80.6133 73.2169 80.51 73.1406L69.1944 64.2573C69.1235 64.2163 69.0622 64.1605 69.0147 64.0937C68.9672 64.027 68.9345 63.9508 68.9189 63.8704C68.9033 63.7899 68.9052 63.7071 68.9243 63.6274C68.9435 63.5477 68.9795 63.4731 69.0299 63.4085C69.0804 63.3439 69.1441 63.2909 69.2168 63.2531C69.2894 63.2152 69.3694 63.1934 69.4512 63.189C69.533 63.1847 69.6148 63.1979 69.6911 63.2279C69.7674 63.2579 69.8363 63.3038 69.8933 63.3627L80.7546 71.8895L97.8502 50.5794C97.8913 50.5085 97.947 50.4472 98.0138 50.3997C98.0806 50.3522 98.1567 50.3195 98.2372 50.3039C98.3176 50.2883 98.4005 50.2902 98.4801 50.3093C98.5598 50.3285 98.6345 50.3645 98.699 50.4149C98.7636 50.4654 98.8166 50.5291 98.8545 50.6018C98.8923 50.6744 98.9142 50.7544 98.9185 50.8362C98.9228 50.918 98.9096 50.9999 98.8796 51.0761C98.8497 51.1524 98.8037 51.2214 98.7448 51.2783L81.3487 73.0288C81.2944 73.1049 81.2217 73.166 81.1373 73.2064C81.053 73.2467 80.9597 73.265 80.8664 73.2594Z" fill="#522D34"/>
<path d="M77.5046 41.6608C77.4109 41.663 77.3199 41.6296 77.2499 41.5673C77.1798 41.5051 77.136 41.4186 77.1272 41.3253L76.3095 33.6861C76.3026 33.6363 76.306 33.5857 76.3194 33.5373C76.3327 33.4888 76.3558 33.4436 76.3872 33.4044C76.4186 33.3652 76.4576 33.3328 76.5019 33.3091C76.5462 33.2854 76.5949 33.271 76.6449 33.2667C76.6946 33.2609 76.7448 33.265 76.7929 33.2788C76.8409 33.2925 76.8857 33.3157 76.9247 33.3469C76.9637 33.3781 76.9961 33.4167 77.0201 33.4605C77.0441 33.5044 77.0591 33.5525 77.0643 33.6022L77.882 41.2344C77.8879 41.2841 77.8838 41.3343 77.87 41.3824C77.8563 41.4304 77.8331 41.4752 77.8019 41.5142C77.7707 41.5532 77.7321 41.5856 77.6882 41.6096C77.6444 41.6336 77.5962 41.6486 77.5465 41.6538L77.5046 41.6608Z" fill="#522D34"/>
<path d="M83.8717 100.867C83.7766 100.868 83.6847 100.833 83.6137 100.77C83.5427 100.707 83.4977 100.619 83.4873 100.525L82.6696 92.8926C82.6598 92.7917 82.6903 92.691 82.7545 92.6124C82.8186 92.5339 82.9112 92.4839 83.012 92.4733C83.0617 92.4675 83.1119 92.4715 83.16 92.4853C83.208 92.499 83.2528 92.5222 83.2918 92.5534C83.3308 92.5846 83.3632 92.6233 83.3872 92.6671C83.4112 92.7109 83.4262 92.7591 83.4314 92.8088L84.2491 100.448C84.2589 100.549 84.2284 100.65 84.1643 100.728C84.1001 100.807 84.0075 100.857 83.9067 100.867H83.8717Z" fill="#522D34"/>
<path d="M106.049 64.684C105.949 64.6896 105.85 64.6552 105.776 64.5883C105.701 64.5215 105.656 64.4277 105.65 64.3276C105.645 64.2275 105.679 64.1293 105.746 64.0546C105.813 63.9799 105.907 63.9348 106.007 63.9292L113.646 63.1115C113.696 63.1056 113.746 63.1097 113.794 63.1235C113.842 63.1372 113.887 63.1604 113.926 63.1916C113.965 63.2228 113.997 63.2614 114.021 63.3053C114.045 63.3491 114.06 63.3973 114.065 63.4469C114.075 63.5479 114.045 63.6486 113.98 63.7271C113.916 63.8057 113.824 63.8557 113.723 63.8663L106.084 64.684H106.049Z" fill="#522D34"/>
<path d="M46.8289 71.0232C46.7346 71.0237 46.6435 70.9887 46.5737 70.9253C46.5038 70.8619 46.4602 70.7747 46.4515 70.6808C46.4416 70.5809 46.4712 70.4812 46.5339 70.4028C46.5966 70.3244 46.6874 70.2737 46.787 70.2614L54.4262 69.4437C54.5272 69.4339 54.6279 69.4644 54.7064 69.5286C54.785 69.5927 54.835 69.6853 54.8456 69.7862C54.8514 69.8358 54.8473 69.8861 54.8335 69.9341C54.8198 69.9821 54.7966 70.0269 54.7654 70.0659C54.7342 70.1049 54.6956 70.1374 54.6517 70.1613C54.6079 70.1853 54.5598 70.2003 54.5101 70.2055L46.8709 71.0232H46.8289Z" fill="#522D34"/>
<path d="M41.0839 77.0762C42.4817 81.8499 44.4457 85.4633 42.314 86.0923C40.1823 86.7214 37.3377 83.3386 35.9538 78.558C34.5699 73.7773 35.178 69.4091 37.3097 68.773C39.4414 68.137 39.7 72.2956 41.0839 77.0762Z" fill="white"/>
<path d="M113.226 95.9464C114.254 98.4485 108.334 105.032 98.5491 109.051C88.7642 113.07 78.8884 112.944 77.861 110.449C76.8336 107.954 83.5782 107.583 93.3421 103.579C103.106 99.5738 112.192 93.4373 113.226 95.9464Z" fill="#FF8F00"/>
<path d="M119.824 49.3071C121.369 48.9017 124.661 52.4242 126.115 57.8479C127.568 63.2715 126.59 68.5484 125.038 68.9537C123.487 69.3591 123.899 65.7527 122.459 60.329C121.02 54.9054 118.273 49.7194 119.824 49.3071Z" fill="#FF8F00"/>
<path d="M165.282 137.686L143.979 197.926C150.605 204.845 191.366 204.084 194.84 197.926L173.494 137.686H165.282Z" fill="#71659C"/>
<path d="M186.494 201.463L172.942 141.712L168.875 141.768L166.876 202.805C173.444 203.007 180.015 202.558 186.494 201.463Z" fill="#5F5583"/>
<path d="M157.258 202.141L169.28 135.534L151.234 201.121C153.222 201.569 155.233 201.91 157.258 202.141Z" fill="#E0D0FF"/>
<path d="M169.671 150.308C170.983 150.279 172.276 149.99 173.476 149.459C174.675 148.927 175.758 148.164 176.661 147.212L173.697 138.587L165.219 138.175L162.263 146.772C163.182 147.846 164.316 148.716 165.592 149.325C166.868 149.934 168.258 150.269 169.671 150.308Z" fill="#5F5583"/>
<path d="M74.2057 136.911H264.564V137.414C264.564 138.569 264.105 139.676 263.289 140.493C262.472 141.309 261.365 141.768 260.21 141.768H78.56C77.4051 141.768 76.2976 141.309 75.481 140.493C74.6644 139.676 74.2057 138.569 74.2057 137.414V136.911Z" fill="#71659C"/>
<path d="M192.764 141.768H146.355L143.567 136.917H195.21L192.764 141.768Z" fill="#5F5583"/>
<path d="M169.266 148.086C173.724 148.086 177.339 144.471 177.339 140.013C177.339 135.555 173.724 131.94 169.266 131.94C164.808 131.94 161.193 135.555 161.193 140.013C161.193 144.471 164.808 148.086 169.266 148.086Z" fill="#E0D0FF"/>
<path d="M169.266 145.724C172.42 145.724 174.976 143.168 174.976 140.014C174.976 136.86 172.42 134.304 169.266 134.304C166.112 134.304 163.556 136.86 163.556 140.014C163.556 143.168 166.112 145.724 169.266 145.724Z" fill="#5F5583"/>
<path d="M169.266 145.724C171.875 145.724 173.991 143.443 173.991 140.629C173.991 137.815 171.875 135.534 169.266 135.534C166.657 135.534 164.541 137.815 164.541 140.629C164.541 143.443 166.657 145.724 169.266 145.724Z" fill="#71659C"/>
<path d="M169.266 131.94C167.125 131.94 165.072 132.791 163.558 134.305C162.044 135.819 161.193 137.872 161.193 140.013C161.193 140.584 161.254 141.153 161.375 141.711C163.992 140.797 166.728 140.269 169.497 140.146C172.131 139.979 174.768 140.446 177.185 141.509C177.277 141.015 177.324 140.515 177.325 140.013C177.325 137.874 176.476 135.823 174.965 134.31C173.454 132.796 171.405 131.944 169.266 131.94Z" fill="#A594E4"/>
<path d="M169.266 134.304C167.752 134.304 166.299 134.905 165.228 135.976C164.158 137.047 163.556 138.499 163.556 140.014C163.557 140.349 163.588 140.683 163.647 141.013C165.566 140.543 167.524 140.253 169.497 140.147C171.327 140.033 173.164 140.219 174.934 140.699C174.963 140.467 174.977 140.234 174.976 140C174.973 138.488 174.369 137.039 173.299 135.971C172.228 134.903 170.778 134.304 169.266 134.304Z" fill="#5F5583"/>
<path d="M36.2264 123.009H118.21V124.211C118.21 126.991 117.105 129.658 115.139 131.624C113.173 133.59 110.507 134.695 107.726 134.695H46.6892C43.9087 134.695 41.2421 133.59 39.276 131.624C37.3099 129.658 36.2054 126.991 36.2054 124.211V123.009H36.2264Z" fill="#E0D0FF"/>
<path d="M220.574 123.009H302.557V124.211C302.557 126.991 301.453 129.658 299.487 131.624C297.521 133.59 294.854 134.695 292.074 134.695H231.037C228.256 134.695 225.59 133.59 223.624 131.624C221.658 129.658 220.553 126.991 220.553 124.211V123.009H220.574Z" fill="#E0D0FF"/>
<path d="M80.2164 134.695H74.2057V136.911H80.2164V134.695Z" fill="#5F5583"/>
<path d="M264.571 134.695H258.56V136.911H264.571V134.695Z" fill="#5F5583"/>
<path d="M106.258 123.022H101.135L97.4308 134.694H102.547L106.258 123.022Z" fill="#AE9DE4"/>
<path d="M80.8384 134.694H94.726L98.4373 123.022H84.5427L80.8384 134.694Z" fill="#AE9DE4"/>
<path d="M64.9451 123.022H59.8289L56.1177 134.694H61.2338L64.9451 123.022Z" fill="white"/>
<path d="M47.2344 134.694H52.3505L56.0548 123.022H50.9387L47.2344 134.694Z" fill="white"/>
<path d="M291.074 123.022H285.958L282.247 134.694H287.363L291.074 123.022Z" fill="#AE9DE4"/>
<path d="M265.654 134.694H279.549L283.26 123.022H269.366L265.654 134.694Z" fill="#AE9DE4"/>
<path d="M249.761 123.022H244.645L240.933 134.694H246.057L249.761 123.022Z" fill="white"/>
<path d="M232.05 134.694H237.166L240.878 123.022H235.761L232.05 134.694Z" fill="white"/>
<path d="M165.646 141.181C165.848 142.061 165.75 142.837 165.436 142.907C165.121 142.977 164.695 142.327 164.492 141.446C164.29 140.566 164.388 139.79 164.709 139.72C165.031 139.65 165.45 140.321 165.646 141.181Z" fill="#E0D0FF"/>
<path d="M109.166 141.768L111.969 136.917H86.0595L83.2568 141.768H109.166Z" fill="#5F5583"/>
<path d="M125.639 136.917H116.092L113.289 141.768H122.837L125.639 136.917Z" fill="#5F5583"/>
<path d="M234.608 141.768L237.411 136.917H211.502L208.699 141.768H234.608Z" fill="#5F5583"/>
<path d="M251.075 136.917H241.535L238.732 141.768H248.272L251.075 136.917Z" fill="#5F5583"/>
<path d="M119.908 138.26H91.4062C91.0048 138.26 90.6793 138.585 90.6793 138.987V139.161C90.6793 139.563 91.0048 139.888 91.4062 139.888H119.908C120.31 139.888 120.635 139.563 120.635 139.161V138.987C120.635 138.585 120.31 138.26 119.908 138.26Z" fill="#E0D0FF"/>
<path d="M129.4 138.26H124.752C124.35 138.26 124.025 138.585 124.025 138.987V139.161C124.025 139.563 124.35 139.888 124.752 139.888H129.4C129.801 139.888 130.126 139.563 130.126 139.161V138.987C130.126 138.585 129.801 138.26 129.4 138.26Z" fill="#E0D0FF"/>
<path d="M220.441 138.26H201.305C200.903 138.26 200.578 138.585 200.578 138.987V139.161C200.578 139.563 200.903 139.888 201.305 139.888H220.441C220.843 139.888 221.168 139.563 221.168 139.161V138.987C221.168 138.585 220.843 138.26 220.441 138.26Z" fill="#E0D0FF"/>
<path d="M226.962 138.26H224.222C223.821 138.26 223.495 138.585 223.495 138.987V139.161C223.495 139.563 223.821 139.888 224.222 139.888H226.962C227.363 139.888 227.689 139.563 227.689 139.161V138.987C227.689 138.585 227.363 138.26 226.962 138.26Z" fill="#E0D0FF"/>
</svg>
