<svg width="300" height="226" viewBox="0 0 300 226" fill="none" xmlns="http://www.w3.org/2000/svg">
<g clip-path="url(#clip0_2_5769)">
<path d="M51.2976 213.224C51.2976 213.224 14.0188 186.674 3.28974 141.492C-7.43934 96.3095 8.94094 41.5106 40.002 13.8621C71.0631 -13.7864 126.988 4.77788 151.838 27.9833L176.695 51.1409C176.695 51.1409 200.42 64.1086 231.481 63.0029C262.542 61.8973 290.224 104.206 297.575 137.533C304.926 170.86 287.406 214.916 287.406 214.916L51.2976 213.224Z" fill="#DDECFF"/>
<g style="mix-blend-mode:multiply">
<path d="M88.6105 212.657C86.993 210.964 63.2893 163.516 89.682 120.027C116.075 76.5369 182.353 81.6148 208.753 98.5616C235.153 115.508 248.079 137.533 250.775 160.67C253.471 183.807 235.685 219.98 235.685 219.98L88.6105 212.657Z" fill="#DDECFF"/>
</g>
<path d="M274.479 110.751H244.025C242.141 110.751 240.613 112.279 240.613 114.164V129.37C240.613 131.255 242.141 132.782 244.025 132.782H274.479C276.364 132.782 277.891 131.255 277.891 129.37V114.164C277.891 112.279 276.364 110.751 274.479 110.751Z" fill="#60A8FF"/>
<path d="M259.252 141.396L264.084 129.957H254.427L259.252 141.396Z" fill="#60A8FF"/>
<path d="M259.143 117.986H267.858V119.262L272.131 116.798L267.858 114.328V115.604H259.143V117.986Z" fill="#223A7A"/>
<path d="M272.131 122.996H263.415V121.719L259.143 124.183L263.415 126.647V125.371H272.131V122.996Z" fill="white"/>
<path d="M253.792 125.241L253.376 125.391C252.58 124.459 251.919 123.42 251.41 122.306C250.985 121.16 250.754 119.951 250.727 118.73L251.028 118.607L249.185 114.191C248.826 114.471 248.523 114.816 248.291 115.208C247.247 116.969 247.356 119.678 248.4 122.32C249.444 124.961 250.57 127.322 252.618 128.803C253.041 129.15 253.528 129.408 254.052 129.562C254.576 129.717 255.126 129.765 255.669 129.704L253.792 125.241Z" fill="#223A7A"/>
<path d="M255.109 124.722L254.536 124.927L256.426 129.445C256.624 129.379 256.816 129.297 257 129.199C257.234 129.07 257.412 128.861 257.503 128.609C257.593 128.358 257.589 128.083 257.491 127.834L256.508 125.35C256.403 125.084 256.198 124.869 255.936 124.752C255.675 124.634 255.378 124.624 255.109 124.722Z" fill="#223A7A"/>
<path d="M250.618 113.42C250.36 113.513 250.111 113.629 249.874 113.768L251.758 118.272L252.393 118.006C252.656 117.894 252.866 117.684 252.978 117.421C253.09 117.157 253.096 116.861 252.993 116.593L252.004 114.054C251.9 113.79 251.697 113.576 251.439 113.458C251.181 113.339 250.886 113.326 250.618 113.42Z" fill="#223A7A"/>
<path d="M79.7993 205.034V154.2C79.7993 154.2 79.2396 140.502 86.4401 136.544C93.6406 132.585 123.978 134.708 123.978 134.708V205.006L79.7993 205.034Z" fill="#1C83FF"/>
<path d="M133.486 87.1226C133.486 87.1226 131.65 102.513 130.94 103.783L130.257 105.059L126.729 107.455C126.729 107.455 133.506 117.058 141.84 118.614C150.173 120.17 149.463 115.201 149.463 115.201L148.194 112.519L149.886 97.8312C149.886 97.8312 134.755 90.9378 133.486 87.1226Z" fill="#FF9D8C"/>
<path d="M122.327 108.731L127.834 106.329C127.834 106.329 131.363 112.116 139.553 115.508C147.743 118.9 147.887 116.921 148.31 115.508C148.542 114.525 148.495 113.497 148.173 112.539L148.774 107.598L152.05 108.69L163.421 200.659L134.189 202.071L122.327 108.731Z" fill="white"/>
<path d="M149.299 107.693C149.299 107.693 151.279 112.259 153.115 122.988C154.951 133.718 156.643 151.797 157.066 164.226C157.49 176.654 157.749 205.033 157.749 205.033H194.605C195.035 205.033 197.573 191.055 197.573 191.055C197.573 191.055 181.473 177.262 180.627 175.003C180.06 173.494 180.347 145.586 177.944 132.735C175.542 119.883 172.437 117.296 165.939 114.095C159.25 110.785 149.299 107.693 149.299 107.693Z" fill="#223A7A"/>
<path d="M168.505 188.851C168.415 188.851 168.328 188.815 168.264 188.751C168.2 188.687 168.164 188.6 168.164 188.51C168.164 187.5 167.987 173.16 167.809 159.285C167.632 145.409 167.454 131.063 167.454 130.053C167.454 129.962 167.49 129.875 167.554 129.811C167.618 129.747 167.705 129.711 167.795 129.711C167.886 129.711 167.973 129.747 168.037 129.811C168.101 129.875 168.137 129.962 168.137 130.053C168.137 131.063 168.321 145.402 168.492 159.278C168.662 173.153 168.847 187.5 168.847 188.51C168.847 188.6 168.811 188.687 168.747 188.751C168.683 188.815 168.596 188.851 168.505 188.851Z" fill="#8593B6"/>
<path d="M95.0739 185.404L94.7941 205.033H137.724C137.724 205.033 139.553 188.367 138.85 186.817C138.147 185.268 95.0739 185.404 95.0739 185.404Z" fill="#223A7A"/>
<g style="mix-blend-mode:multiply">
<path d="M142.85 103.36C144.675 104.736 146.701 105.825 148.856 106.588L149.866 97.8518C149.866 97.8518 138.516 92.6579 134.666 88.7881C135.472 93.1835 137.451 99.0053 142.85 103.36Z" fill="#8E9BBB"/>
</g>
<path d="M163.12 58.4571C165.02 61.957 166.218 65.7939 166.649 69.7527C167.215 75.9704 166.649 91.9207 161.564 98.7048C156.479 105.489 145.866 103.482 141.089 99.3874C136.68 95.6267 132.332 91.477 131.206 83.2869C130.08 75.0968 133.609 59.5696 143.628 56.3209C153.647 53.0721 163.12 58.4571 163.12 58.4571Z" fill="#FF9D8C"/>
<path d="M175.876 196.154C175.876 196.154 175.378 196.154 174.621 196.154H174.04L171.529 196.086H170.928C170.041 196.086 169.283 196.174 168.574 196.134C168.423 196.134 168.205 196.134 168.028 196.134C167.953 196.14 167.877 196.14 167.802 196.134C167.474 196.059 167.158 195.935 166.867 195.765C162.072 194.538 157.149 193.876 152.2 193.792C145.894 193.792 140.236 194.25 139.314 193.479C138.393 192.707 137.826 184.77 143.211 184.251L149.832 186.763C149.832 186.763 164.949 184.961 170.491 189.056C176.033 193.151 175.876 196.154 175.876 196.154Z" fill="#FF9D8C"/>
<path d="M168.58 196.086C168.43 196.086 168.212 196.086 168.034 196.086C167.861 195.812 167.667 195.552 167.454 195.308C165.748 193.567 161.626 192.441 160.131 192.079C160.065 192.063 160.009 192.022 159.973 191.965C159.937 191.907 159.925 191.838 159.94 191.772C159.948 191.739 159.962 191.708 159.982 191.68C160.003 191.653 160.028 191.629 160.057 191.612C160.086 191.594 160.119 191.582 160.152 191.577C160.186 191.572 160.221 191.573 160.254 191.581C162.431 192.107 167.079 193.451 168.362 195.676C168.376 195.738 168.485 195.949 168.58 196.086Z" fill="#223A7A"/>
<path d="M171.529 196.058C171.331 196.058 171.126 196.058 170.928 196.058C169.065 192.646 166.021 191.683 162.253 190.475L162.028 190.4C161.964 190.377 161.911 190.33 161.881 190.269C161.851 190.208 161.845 190.138 161.864 190.073C161.888 190.009 161.935 189.956 161.996 189.926C162.057 189.895 162.127 189.889 162.192 189.909L162.41 189.984C166.389 191.247 169.597 192.27 171.529 196.058Z" fill="#223A7A"/>
<path d="M174.621 196.133H174.04C173.014 194.294 171.608 192.694 169.916 191.44C168.224 190.185 166.284 189.305 164.226 188.858C164.192 188.852 164.16 188.84 164.131 188.821C164.102 188.803 164.077 188.779 164.058 188.752C164.038 188.724 164.024 188.692 164.017 188.659C164.009 188.626 164.008 188.591 164.014 188.557C164.028 188.491 164.067 188.432 164.123 188.394C164.179 188.355 164.248 188.341 164.315 188.353C169.406 189.301 173.522 193.465 174.621 196.133Z" fill="#223A7A"/>
<path d="M134.612 76.3187C136.902 75.0098 138.747 73.0435 139.908 70.6744C141.208 68.253 141.866 65.5391 141.819 62.7914C141.819 62.7914 145.771 62.1566 151.702 63.9243C157.633 65.692 164.67 68.0876 170.621 64.6956C176.573 61.3035 176.552 55.8707 173.658 53.6116C170.416 51.0795 163.987 52.6219 163.987 52.6219C163.987 52.6219 166.458 50.2263 165.113 48.8135C163.769 47.4007 158.902 49.2367 158.902 49.2367C158.902 49.2367 152.971 44.5069 141.744 45.0665C130.517 45.6262 125.152 53.4751 124.517 62.2249C123.883 70.9747 127.056 79.7381 127.056 79.7381L134.612 76.3187Z" fill="#223A7A"/>
<g style="mix-blend-mode:multiply">
<path d="M157.387 78.441C156.752 80.0107 156.766 81.8535 156.609 83.4984C156.486 84.7883 156.247 86.3035 157.435 87.1771C158.001 87.5934 160.677 88.7196 159.298 89.6341C158.666 89.8969 157.973 89.975 157.298 89.8594L156.056 89.7911C155.613 89.757 155.183 89.6205 154.739 89.6205C154.684 89.6226 154.631 89.6423 154.588 89.6767C154.544 89.7111 154.513 89.7584 154.499 89.8117C154.484 89.865 154.487 89.9216 154.507 89.9731C154.527 90.0247 154.563 90.0685 154.609 90.0983C155.41 90.5076 156.297 90.7182 157.196 90.7125C157.932 90.7922 158.675 90.6621 159.339 90.3371C159.582 90.2506 159.799 90.1047 159.97 89.9127C160.142 89.7208 160.263 89.4889 160.322 89.2383C160.323 88.9343 160.246 88.6351 160.098 88.3697C159.949 88.1043 159.735 87.8816 159.476 87.7231C158.943 87.3273 158.288 87.143 157.749 86.7608C156.998 86.2216 157.066 85.3207 157.114 84.488C157.244 82.4814 157.701 80.509 157.879 78.5092C157.913 78.2021 157.49 78.2021 157.387 78.441Z" fill="#8E9BBB"/>
</g>
<path d="M163.161 83.1368C162.95 84.3312 162.083 85.1843 161.23 85.0205C160.377 84.8567 159.865 83.7783 160.056 82.5908C160.247 81.4032 161.134 80.5432 161.987 80.707C162.84 80.8708 163.373 81.9492 163.161 83.1368Z" fill="#223A7A"/>
<path d="M152.357 82.1948C152.166 83.478 151.258 84.4062 150.309 84.2424C149.361 84.0786 148.787 82.9524 148.944 81.6693C149.101 80.3862 150.043 79.458 150.992 79.6218C151.941 79.7856 152.548 80.9117 152.357 82.1948Z" fill="#223A7A"/>
<path d="M160.65 78.2293C161.31 78.2794 161.973 78.2953 162.636 78.2771C162.799 78.2771 162.956 78.2771 163.113 78.3248C163.27 78.3726 162.902 78.2907 163.059 78.3248H163.161L163.414 78.3794C163.557 78.4136 163.694 78.4682 163.83 78.4955C163.961 78.5337 164.097 78.5521 164.233 78.5501H164.451H164.315C164.405 78.5623 164.497 78.5623 164.588 78.5501C164.77 78.496 164.924 78.3734 165.019 78.208C165.113 78.0427 165.139 77.8473 165.093 77.6628C165.063 77.5571 165.015 77.4576 164.949 77.3693L164.861 77.2601L164.943 77.3557L164.854 77.2396C164.82 77.1754 164.768 77.1231 164.704 77.0895C164.649 77.0485 164.601 77.0008 164.547 76.9666C164.357 76.8512 164.149 76.7682 163.932 76.7209C163.536 76.6176 163.128 76.5648 162.718 76.564C162.315 76.5684 161.914 76.6003 161.516 76.6595C161.147 76.702 160.793 76.8331 160.486 77.0417C160.372 77.1123 160.282 77.2146 160.226 77.3359C160.171 77.4572 160.152 77.5922 160.172 77.7242C160.186 77.854 160.239 77.9765 160.324 78.0753C160.41 78.1741 160.523 78.2445 160.65 78.2771V78.2293Z" fill="#223A7A"/>
<path d="M153.115 76.3388L152.842 76.2023C152.76 76.1613 152.541 76.0453 152.705 76.1408L152.521 76.0385C152.248 75.9072 151.962 75.8065 151.668 75.7382C151.021 75.5769 150.351 75.5307 149.688 75.6017C148.998 75.6565 148.328 75.8664 147.73 76.2159C147.64 76.2608 147.557 76.3182 147.484 76.3865L147.341 76.5708L147.382 76.5094C147.287 76.5733 147.21 76.6599 147.157 76.7612C147.105 76.8625 147.079 76.9754 147.081 77.0895C147.08 77.194 147.108 77.2967 147.163 77.3859C147.217 77.4752 147.295 77.5475 147.388 77.5946C147.496 77.642 147.612 77.6664 147.73 77.6664C147.847 77.6664 147.963 77.642 148.071 77.5946H147.716C147.891 77.6322 148.073 77.6322 148.248 77.5946C148.248 77.5946 148.439 77.5468 148.317 77.5946C148.194 77.6424 148.508 77.5946 148.542 77.5946C148.576 77.5946 148.794 77.5946 148.542 77.5946H148.665H148.985C149.456 77.5605 149.92 77.54 150.35 77.5195C150.78 77.499 151.224 77.5195 151.661 77.5195C151.845 77.5195 152.029 77.5195 152.214 77.5195C152.275 77.5195 152.398 77.5195 152.214 77.5195H152.337L152.562 77.5946C152.715 77.6378 152.878 77.6226 153.021 77.552C153.164 77.4814 153.275 77.3604 153.333 77.2124C153.39 77.0661 153.394 76.9048 153.345 76.7556C153.297 76.6064 153.199 76.4785 153.067 76.3934L153.115 76.3388Z" fill="#223A7A"/>
<path d="M156.466 95.9748C157.167 94.677 158.295 93.6617 159.66 93.1014C158.472 92.9786 152.889 92.4599 151.47 93.2652C149.893 94.1593 151.763 97.7562 155.026 97.9404C155.345 97.9577 155.666 97.9394 155.981 97.8858C156.006 97.2217 156.171 96.5704 156.466 95.9748Z" fill="#223A7A"/>
<path d="M130.66 88.3922C130.66 88.3922 131.227 90.583 134.475 93.122C136.938 94.906 139.608 96.3842 142.427 97.5242L142.802 95.8793C142.802 95.8793 137.936 93.7567 135.676 91.4294C133.417 89.102 133.131 87.8257 133.131 87.8257L130.66 88.3922Z" fill="#DEE1EB"/>
<path d="M143.368 94.6577C144.355 94.5988 145.329 94.8988 146.112 95.5021C146.895 96.1055 147.433 96.9715 147.627 97.9405C147.805 99.3056 146.549 100.78 143.614 99.4625C139.963 97.8245 140.754 94.7805 143.368 94.6577Z" fill="#223A7A"/>
<path d="M132.708 72.2235C132.708 72.2235 133.834 64.1085 139.273 58.5733C149.654 48.049 158.479 48.6837 158.479 48.6837C158.479 48.6837 158.411 47.2027 155.067 46.0765C151.954 45.0118 150.548 45.5783 150.548 45.5783C150.548 45.5783 142.01 46.2608 134.803 54.2667C127.596 62.2725 126.824 72.4078 126.824 72.4078L132.708 72.2235Z" fill="#DEE1EB"/>
<path d="M131.929 71.234C125.104 70.0874 121.344 75.4042 121.057 80.7892C120.77 86.1742 124.674 90.2351 129.882 89.8256C141.601 88.8906 140.263 72.6468 131.929 71.234Z" fill="white"/>
<path d="M128.544 84.5907C127.685 84.6041 126.84 84.3781 126.102 83.9381C125.364 83.4982 124.764 82.8616 124.367 82.0996C123.911 81.2763 123.688 80.344 123.723 79.4034C123.758 78.4628 124.049 77.5495 124.565 76.7623C124.582 76.7299 124.606 76.7015 124.635 76.6789C124.664 76.6564 124.697 76.6402 124.733 76.6315C124.769 76.6229 124.806 76.6218 124.842 76.6285C124.878 76.6352 124.912 76.6495 124.942 76.6704C124.972 76.6913 124.998 76.7184 125.017 76.7498C125.036 76.7812 125.048 76.8163 125.052 76.8527C125.056 76.8892 125.053 76.9261 125.042 76.9611C125.031 76.9961 125.013 77.0284 124.988 77.0558C124.528 77.7615 124.269 78.5791 124.239 79.4209C124.209 80.2627 124.409 81.0967 124.818 81.8334C125.177 82.5367 125.733 83.1209 126.417 83.5157C127.101 83.9105 127.885 84.0989 128.674 84.0584C129.408 84.0557 130.131 83.8719 130.778 83.523C131.424 83.1742 131.974 82.6712 132.38 82.0586C132.857 81.3238 133.157 80.4879 133.255 79.6172C133.354 78.7465 133.248 77.8649 132.946 77.0422C132.664 76.2698 132.141 75.609 131.454 75.1578C130.766 74.7065 129.952 74.489 129.131 74.5373C129.064 74.5452 128.997 74.5268 128.944 74.4861C128.89 74.4453 128.855 74.3854 128.844 74.3189C128.84 74.2852 128.842 74.2509 128.851 74.218C128.86 74.1851 128.875 74.1544 128.896 74.1276C128.917 74.1008 128.943 74.0785 128.973 74.0622C129.003 74.0458 129.036 74.0356 129.07 74.0323C130.005 73.9599 130.938 74.1973 131.725 74.708C132.512 75.2187 133.109 75.9742 133.424 76.8579C133.748 77.754 133.862 78.7127 133.755 79.6597C133.649 80.6067 133.325 81.5164 132.81 82.318C132.361 82.9954 131.753 83.5529 131.039 83.9418C130.325 84.3308 129.528 84.5395 128.715 84.5498L128.544 84.5907Z" fill="#818FB3"/>
<path d="M123.603 106.751C123.603 106.751 102.984 111.836 95.7837 120.026C88.5832 128.216 85.1911 168.58 85.0478 176.088C84.9045 183.595 90.1325 186.68 93.2379 188.803C96.3434 190.926 110.041 194.734 121.057 195.294C132.073 195.853 142.522 195.294 142.522 195.294C142.651 193.222 143.216 191.201 144.181 189.363C145.75 186.093 147.743 185.411 147.743 185.411L138.284 181.998C138.284 181.998 136.632 152.316 134.052 137.942C131.083 121.439 123.603 106.751 123.603 106.751Z" fill="#223A7A"/>
<path d="M157.769 177.275C157.722 177.273 157.676 177.262 157.633 177.241C157.551 177.204 157.486 177.136 157.454 177.051C157.423 176.967 157.425 176.873 157.462 176.791C159.394 172.436 161.393 163.878 162.52 157.879L162.615 157.394C162.956 155.626 163.38 153.429 162.533 151.934C162.103 151.163 161.127 149.484 160.185 147.839C159.244 146.194 158.295 144.583 158.036 144.105C157.537 143.184 159.107 140.727 161.373 137.349C161.987 136.434 162.513 135.642 162.82 135.11C163.632 133.745 163.093 132.434 162.472 130.953L162.26 130.442C161.694 129.077 161.052 127.664 160.431 126.346L159.708 124.688L158.704 122.463C156.736 117.839 154.5 113.334 152.009 108.97C151.985 108.932 151.968 108.89 151.961 108.846C151.954 108.801 151.955 108.756 151.966 108.713C151.977 108.669 151.997 108.628 152.024 108.593C152.051 108.557 152.086 108.527 152.125 108.506C152.203 108.46 152.296 108.446 152.384 108.468C152.472 108.49 152.548 108.545 152.596 108.622C155.087 113.006 157.325 117.529 159.298 122.17L160.295 124.394L161.052 126.039C161.673 127.404 162.322 128.769 162.888 130.182L163.1 130.687C163.735 132.196 164.39 133.759 163.414 135.465C163.093 136.018 162.561 136.83 161.94 137.738C160.759 139.498 158.295 143.198 158.636 143.798C158.889 144.262 159.803 145.846 160.779 147.504C161.755 149.163 162.697 150.808 163.127 151.599C164.096 153.333 163.646 155.694 163.284 157.544L163.189 158.022C162.779 160.206 160.609 171.399 158.083 177.091C158.054 177.149 158.009 177.197 157.954 177.23C157.898 177.263 157.834 177.278 157.769 177.275Z" fill="#8593B6"/>
<path d="M137.649 178.47C137.605 178.472 137.56 178.464 137.519 178.448C137.478 178.431 137.441 178.406 137.41 178.374C135.806 176.757 128.066 163.359 127.486 160.834C127.172 159.469 127.964 155.961 128.729 152.575C129.322 149.954 129.937 147.245 129.766 146.508C129.5 145.409 127.527 143.778 125.609 142.235C123.296 140.345 120.907 138.393 120.443 136.632C119.917 134.632 120.368 122.115 120.668 113.836C120.777 110.86 120.859 108.505 120.859 107.693C120.859 107.603 120.895 107.516 120.959 107.452C121.023 107.388 121.11 107.352 121.2 107.352C121.29 107.354 121.376 107.39 121.44 107.454C121.503 107.518 121.54 107.603 121.542 107.693C121.542 108.546 121.453 110.901 121.351 113.891C121.071 121.63 120.607 134.584 121.105 136.488C121.514 138.031 123.917 139.997 126.039 141.73C128.162 143.464 130.135 145.054 130.428 146.378C130.64 147.265 130.066 149.791 129.397 152.753C128.681 155.906 127.875 159.482 128.155 160.711C128.722 163.181 136.345 176.333 137.895 177.917C137.927 177.949 137.952 177.986 137.969 178.028C137.987 178.07 137.996 178.114 137.996 178.159C137.996 178.204 137.987 178.249 137.969 178.29C137.952 178.332 137.927 178.37 137.895 178.402C137.861 178.429 137.821 178.45 137.779 178.462C137.737 178.473 137.692 178.476 137.649 178.47Z" fill="#8593B6"/>
<path d="M109.884 172.614C109.795 172.602 109.714 172.555 109.659 172.483C109.604 172.412 109.579 172.321 109.591 172.232C109.843 170.457 113.761 135.103 113.939 132.393C113.945 132.303 113.987 132.219 114.055 132.159C114.124 132.1 114.213 132.07 114.304 132.076C114.394 132.082 114.478 132.124 114.538 132.193C114.597 132.261 114.627 132.351 114.621 132.441C114.444 135.171 110.526 170.546 110.267 172.327C110.253 172.415 110.205 172.495 110.134 172.549C110.063 172.602 109.973 172.626 109.884 172.614Z" fill="#8593B6"/>
<path d="M138.004 182.231C137.961 182.24 137.917 182.24 137.874 182.231C137.007 181.883 133.172 180.586 128.319 178.948C118.518 175.644 105.114 171.119 102.541 169.789C102.489 169.772 102.442 169.744 102.404 169.706C102.365 169.667 102.337 169.62 102.321 169.569C102.305 169.517 102.301 169.462 102.311 169.409C102.321 169.356 102.343 169.306 102.377 169.263C102.398 169.223 102.426 169.187 102.461 169.158C102.496 169.129 102.536 169.108 102.579 169.094C102.622 169.081 102.667 169.076 102.712 169.081C102.757 169.085 102.801 169.098 102.841 169.12C105.346 170.416 119.289 175.119 128.517 178.231C133.383 179.876 137.226 181.173 138.113 181.528C138.196 181.562 138.262 181.629 138.296 181.712C138.331 181.795 138.331 181.888 138.297 181.971C138.282 182.04 138.245 182.102 138.193 182.148C138.14 182.195 138.074 182.224 138.004 182.231Z" fill="#8593B6"/>
<path d="M133.288 196.29C124.668 196.29 107.946 194.734 95.2445 190.243C95.1667 190.208 95.1049 190.145 95.0713 190.066C95.0377 189.988 95.0347 189.9 95.063 189.819C95.0913 189.738 95.1488 189.671 95.2241 189.631C95.2994 189.591 95.387 189.58 95.4697 189.602C111.516 195.28 133.963 196.249 138.14 195.307C138.185 195.297 138.231 195.297 138.277 195.305C138.322 195.313 138.365 195.329 138.404 195.354C138.442 195.379 138.476 195.411 138.502 195.449C138.528 195.486 138.547 195.529 138.557 195.573C138.567 195.618 138.567 195.665 138.559 195.71C138.551 195.755 138.535 195.798 138.51 195.837C138.485 195.875 138.453 195.909 138.415 195.935C138.378 195.961 138.335 195.98 138.291 195.99C136.636 196.244 134.961 196.344 133.288 196.29Z" fill="#8593B6"/>
<path d="M34.5761 111.516C37.2515 113.87 40.6436 115.379 42.9914 118.102C43.9197 119.173 44.7523 120.313 45.6055 121.433C46.2334 122.252 47.8987 123.61 48.1717 124.64C48.2877 125.091 48.2673 124.477 48.1717 124.026V123.965C47.9396 121.917 47.769 119.795 47.6939 117.706C47.6189 115.618 47.7554 113.515 47.6257 111.434C47.4414 108.492 46.52 105.646 44.1176 103.803C42.9437 102.902 41.4353 102.356 40.3501 101.353C39.2649 100.35 39.7359 99.3056 40.3501 98.2613C41.0018 97.3135 41.4972 96.2674 41.8175 95.1627C41.9524 93.8538 41.616 92.5397 40.8688 91.4567C39.4697 89.1088 36.3643 86.4948 33.4295 86.8429C30.9792 87.1364 30.6994 89.962 30.7404 91.9344C30.7813 93.9069 30.9588 95.7565 30.9792 97.6675C30.9997 99.5786 30.6653 101.565 30.638 103.523C30.5902 106.82 32.1259 109.359 34.5761 111.516Z" fill="#6BAEFF"/>
<path d="M59.4536 142.079C60.1826 140.316 61.0713 138.623 62.1086 137.021C63.5487 134.803 65.1458 132.64 66.1149 130.155C67.0841 127.671 66.9612 124.907 67.0568 122.238C67.1319 120.272 67.7393 118.314 67.555 116.348C67.4799 115.406 66.9408 113.877 65.7191 114.034C64.7635 114.157 64.2039 115.331 63.8353 116.082C63.2371 117.414 62.7197 118.782 62.286 120.177C62.1018 120.716 61.9243 121.269 61.6922 121.788C61.5557 122.088 61.1189 122.825 60.7163 122.723C60.0337 122.552 60.648 119.72 60.7504 119.221C61.2691 116.696 62.054 114.355 62.1632 111.762C62.3202 108.008 62.0267 103.53 58.3479 101.476C57.3856 100.937 56.1707 100.616 55.2562 101.422C54.3416 102.227 54.1027 103.585 53.9662 104.718C53.5567 108.192 54.3757 111.475 55.4882 114.744C56.4028 117.44 57.5358 120.204 57.5767 123.112C57.6586 125.883 56.2117 128.347 55.5292 130.967C54.8333 133.49 54.5407 136.107 54.6624 138.721C54.6624 140.413 54.717 142.092 54.8398 143.785C54.9559 145.334 55.0924 146.89 55.2835 148.44C55.2835 148.754 55.3585 149.081 55.3995 149.402C54.7989 147.969 54.5941 146.317 54.0959 144.877C53.2155 142.304 52.1985 139.792 51.3659 137.212C50.7227 135.062 49.964 132.948 49.0931 130.879C48.2263 128.954 47.1889 126.92 45.5782 125.507C44.6384 124.636 43.4061 124.149 42.1246 124.142C41.3145 124.208 40.5162 124.378 39.7495 124.647C39.3209 124.796 38.8614 124.833 38.4147 124.754C37.9679 124.675 37.5487 124.483 37.1969 124.197C34.5556 122.149 33.7844 118.539 31.8051 115.973C30.3513 114.062 26.8978 110.799 24.3589 112.888C22.9938 113.993 22.6458 116.13 22.714 117.768C22.8995 119.798 23.6046 121.747 24.7616 123.426C25.9013 125.255 27.3756 126.893 28.4198 128.777C28.9767 129.822 29.1915 131.015 29.0341 132.189C28.8569 133.344 28.929 134.524 29.2457 135.649C30.4537 139.062 34.2212 138.591 37.156 138.68C39.2624 138.722 41.3518 139.066 43.36 139.704C44.4161 140.03 45.3783 140.605 46.1658 141.38C46.9532 142.156 47.5429 143.109 47.885 144.16C48.4652 145.771 48.7791 147.573 49.878 148.938C50.4006 149.571 51.0677 150.07 51.8231 150.392C52.9698 150.897 56.4574 151.115 56.4847 150.794C56.675 149.699 56.9793 148.626 57.3924 147.593C58.0135 145.764 58.696 143.908 59.4536 142.079Z" fill="#6BAEFF"/>
<path d="M75.6496 141.43C75.3493 139.478 75.4039 137.335 74.4825 135.526C74.4457 135.467 74.3878 135.425 74.3206 135.407C74.2534 135.389 74.1819 135.398 74.1208 135.431C73.4383 135.799 73.4383 136.871 73.3768 137.533C73.2813 138.618 73.3768 139.71 73.2199 140.795C72.9885 142.735 72.5304 144.641 71.8548 146.474C71.5128 147.409 70.9471 148.246 70.2071 148.912C69.4671 149.579 68.5754 150.054 67.6096 150.296C66.277 150.601 65.0147 151.157 63.8899 151.934C62.9334 152.743 62.1865 153.771 61.7127 154.93C60.3477 158.002 59.6652 161.441 59.0509 164.724C58.6209 166.942 58.2728 169.161 57.7337 171.352C57.145 173.527 56.6711 175.733 56.314 177.958C56.2594 178.067 56.2048 178.183 56.1571 178.293C56.0206 178.627 56.5393 178.811 56.7236 178.532C58.8393 175.269 61.4261 172.341 64.9137 170.539C66.5039 169.727 68.6197 169.563 69.9506 168.287C70.9607 167.311 71.0972 165.83 70.9471 164.513C70.7492 162.779 69.9165 161.353 69.0497 159.872C68.5788 159.059 68.0123 158.193 68.2034 157.203C68.3352 156.756 68.5561 156.341 68.8529 155.982C69.1497 155.623 69.5161 155.328 69.9301 155.115C71.3907 154.207 73.1107 153.797 74.305 152.48C75.4039 151.278 76.0589 149.737 76.1615 148.112C76.2388 145.873 76.0672 143.632 75.6496 141.43Z" fill="#6BAEFF"/>
<path d="M46.7384 152.705C44.8629 150.298 42.6085 148.212 40.0635 146.528C38.6984 145.628 35.5111 143.846 34.8627 146.528C34.4874 148.085 36.0094 149.613 37.0126 150.623C38.521 152.091 40.2614 153.354 41.5309 155.046C39.9611 155.551 38.3162 155.647 36.9444 156.732C35.3268 158.022 34.5966 160.513 36.2073 162.09C37.0374 162.81 37.9805 163.389 38.9988 163.803C40.2682 164.417 41.5582 164.977 42.8549 165.516C45.6601 166.69 48.4993 167.877 50.8881 169.795C53.2769 171.713 55.6179 175.051 55.809 178.245C55.809 178.545 55.7135 178.245 55.8977 178.129C55.9933 178.217 56.3277 178.06 56.3277 177.883C56.3366 173.21 55.372 168.587 53.4953 164.308C51.7104 160.186 49.4422 156.292 46.7384 152.705Z" fill="#6BAEFF"/>
<path d="M40.2682 108.642C41.3056 110.785 42.384 112.88 43.5306 114.969C44.676 116.947 45.6883 118.999 46.561 121.111C47.5779 123.753 48.6085 126.353 49.7142 128.974C50.8447 131.691 51.8178 134.471 52.6285 137.301C54.2312 142.842 55.3479 148.512 55.966 154.247C56.2639 157.154 56.3778 160.076 56.3072 162.997C56.2458 165.284 55.9864 167.543 55.7749 169.822C55.4999 172.187 55.4359 174.572 55.5838 176.948C55.7544 178.934 56.0683 181.289 57.6313 182.701C57.693 182.758 57.7731 182.792 57.8571 182.795C57.9412 182.799 58.0238 182.773 58.0902 182.721C58.1566 182.669 58.2025 182.596 58.2197 182.513C58.2369 182.431 58.2243 182.345 58.1841 182.271C56.355 178.524 56.4574 174.443 56.8191 170.375C57.0102 168.13 57.2764 165.898 57.3515 163.646C57.4403 160.778 57.3445 157.908 57.0648 155.053C56.4827 149.439 55.4302 143.885 53.9184 138.447C53.1663 135.667 52.2547 132.933 51.1884 130.257C50.1237 127.561 48.8951 124.947 47.8645 122.244C46.0013 117.351 43.162 113.01 40.6436 108.458C40.5139 108.219 40.1726 108.458 40.2818 108.662L40.2682 108.642Z" fill="#43588E"/>
<path d="M56.0137 148.644C56.3072 145.081 56.6212 141.648 57.8224 138.249C58.3821 136.666 59.0646 135.124 59.6038 133.533C60.0474 132.223 60.7162 130.414 60.375 129.022C60.3675 128.987 60.3482 128.955 60.3203 128.932C60.2923 128.91 60.2574 128.897 60.2214 128.897C60.1854 128.897 60.1506 128.91 60.1226 128.932C60.0947 128.955 60.0753 128.987 60.0679 129.022C59.8358 129.82 59.8631 130.694 59.6993 131.513C59.5301 132.308 59.3205 133.094 59.0714 133.868C58.5459 135.513 57.8565 137.089 57.2627 138.707C56.0675 141.876 55.5581 145.263 55.768 148.644C55.768 148.677 55.781 148.708 55.804 148.731C55.8271 148.754 55.8583 148.767 55.8909 148.767C55.9235 148.767 55.9547 148.754 55.9778 148.731C56.0008 148.708 56.0137 148.677 56.0137 148.644Z" fill="#43588E"/>
<path d="M35.3678 128.169C36.7874 131.581 41.0326 131.786 44.1312 132.55C45.1882 132.84 46.1762 133.34 47.0367 134.018C47.8972 134.697 48.6127 135.542 49.1409 136.502C50.377 138.672 51.3377 140.988 52.0006 143.396C52.0006 143.396 52.0484 143.396 52.0415 143.396C51.1748 139.301 49.9394 134.366 45.7147 132.475C42.3362 130.953 37.8794 131.718 35.7159 128.066C35.6067 127.882 35.2791 128.005 35.361 128.21L35.3678 128.169Z" fill="#43588E"/>
<path d="M53.7751 148.105C53.9457 148.33 54.1027 148.569 54.2733 148.787C54.3557 148.899 54.4494 149.002 54.5532 149.095C54.6595 149.203 54.7988 149.272 54.949 149.292C54.964 149.292 54.9785 149.287 54.9913 149.28C55.0041 149.272 55.0147 149.261 55.0222 149.248C55.0297 149.235 55.0338 149.221 55.0341 149.206C55.0345 149.191 55.031 149.176 55.0241 149.163C54.9381 149.062 54.8394 148.972 54.7306 148.897L54.4235 148.624C54.2256 148.439 54.0481 148.235 53.8502 148.043C53.8161 148.043 53.741 148.043 53.7751 148.105Z" fill="#43588E"/>
<path d="M44.9366 158.936C47.4056 160.95 49.5852 163.295 51.4136 165.905C52.2685 167.153 53.0545 168.447 53.7683 169.781C54.4894 171.244 55.1274 172.745 55.6793 174.279C55.7271 174.395 55.9319 174.402 55.9182 174.279C55.577 171.065 53.5431 168.307 51.9187 165.639C51.0537 164.304 50.0368 163.074 48.8883 161.974C47.7473 160.765 46.4976 159.664 45.155 158.684C44.9912 158.561 44.7796 158.834 44.9366 158.964V158.936Z" fill="#43588E"/>
<path d="M64.3541 155.156C63.1801 155.838 63.146 157.681 63.1187 158.862C63.0778 161.141 63.6374 163.277 62.641 165.448C61.74 167.407 60.2999 169.038 59.167 170.86C58.1023 172.566 57.058 174.744 57.0785 176.791C57.0785 176.907 57.2628 176.975 57.3174 176.853C57.6758 175.885 57.9721 174.896 58.2046 173.89C58.5453 172.81 59.0321 171.781 59.6516 170.833C60.7436 169.147 62.0813 167.605 62.9686 165.789C63.8968 163.871 63.7603 161.974 63.6988 159.899C63.6988 158.575 63.5282 156.452 64.5929 155.47C64.6298 155.436 64.6529 155.39 64.6575 155.341C64.6622 155.291 64.6481 155.242 64.618 155.203C64.5879 155.163 64.5441 155.136 64.4952 155.128C64.4463 155.119 64.3959 155.129 64.3541 155.156Z" fill="#43588E"/>
<path d="M56.5052 177.003C51.7685 176.934 42.7594 176.887 42.7594 176.887L44.9912 193.444C45.228 195.25 46.1131 196.909 47.4818 198.11C48.8505 199.312 50.6093 199.975 52.4306 199.976H60.5729C62.3913 199.978 64.1484 199.319 65.5179 198.123C66.8874 196.926 67.7761 195.274 68.0191 193.472L70.2441 176.914C70.2441 176.914 61.235 176.934 56.5052 177.003Z" fill="white"/>
<path d="M285.215 146.57L258.221 200.044L179.521 200.611L203.805 145.819L285.215 146.57Z" fill="#F6F7FA"/>
<path d="M127.288 200.276V195.997H178.231L201.675 144.597H283.167L285.215 146.57H205.62L181.261 200.229C181.261 200.229 127.288 200.133 127.288 200.276Z" fill="#D9DEE8"/>
<path d="M244.339 176.088C243.452 178.75 238.626 180.811 233.562 180.688C228.498 180.565 225.113 178.293 226 175.624C226.887 172.955 231.719 170.901 236.784 171.024C241.848 171.147 245.233 173.413 244.339 176.088Z" fill="#D9DEE8"/>
<path d="M181.261 200.57C181.214 200.579 181.165 200.579 181.118 200.57C181.036 200.532 180.972 200.464 180.94 200.38C180.908 200.295 180.911 200.202 180.947 200.119L205.436 146.228H285.215C285.305 146.228 285.392 146.264 285.456 146.328C285.52 146.392 285.556 146.479 285.556 146.569C285.556 146.66 285.52 146.747 285.456 146.811C285.392 146.875 285.305 146.911 285.215 146.911H205.839L181.548 200.372C181.524 200.428 181.484 200.477 181.433 200.512C181.383 200.547 181.323 200.567 181.261 200.57Z" fill="white"/>
<path d="M123.739 204.324H30.1193V225.079H123.739V204.324Z" fill="#596B9B"/>
<path d="M291.651 204.324H123.207V225.079H291.651V204.324Z" fill="#7A89AF"/>
<g style="mix-blend-mode:multiply">
<path d="M123.739 204.324H123.207H30.1193V208.139H123.207H123.739H291.651V204.324H123.739Z" fill="#BDC4D7"/>
</g>
<path d="M127.834 200.229H25.601V205.313H127.834V200.229Z" fill="#6F7FA9"/>
<path d="M295.746 200.229H127.302V205.313H295.746V200.229Z" fill="#9CA6C3"/>
<path d="M100.104 67.4185H67.0568C65.01 67.4185 63.3508 69.0777 63.3508 71.1245V87.6208C63.3508 89.6676 65.01 91.3268 67.0568 91.3268H100.104C102.151 91.3268 103.81 89.6676 103.81 87.6208V71.1245C103.81 69.0777 102.151 67.4185 100.104 67.4185Z" fill="white"/>
<path d="M113.229 79.3691L100.814 74.1343V84.604L113.229 79.3691Z" fill="white"/>
<path d="M75.7383 81.6558C77.0011 81.6558 78.0247 80.6322 78.0247 79.3694C78.0247 78.1067 77.0011 77.083 75.7383 77.083C74.4756 77.083 73.4519 78.1067 73.4519 79.3694C73.4519 80.6322 74.4756 81.6558 75.7383 81.6558Z" fill="#223A7A"/>
<path d="M83.5804 81.6558C84.8431 81.6558 85.8668 80.6322 85.8668 79.3694C85.8668 78.1067 84.8431 77.083 83.5804 77.083C82.3176 77.083 81.2939 78.1067 81.2939 79.3694C81.2939 80.6322 82.3176 81.6558 83.5804 81.6558Z" fill="#223A7A"/>
<path d="M91.4225 81.6558C92.6852 81.6558 93.7089 80.6322 93.7089 79.3694C93.7089 78.1067 92.6852 77.083 91.4225 77.083C90.1597 77.083 89.136 78.1067 89.136 79.3694C89.136 80.6322 90.1597 81.6558 91.4225 81.6558Z" fill="#223A7A"/>
<path d="M268.363 16.6602H192.066C189.712 16.6602 187.456 17.595 185.792 19.2589C184.128 20.9228 183.193 23.1796 183.193 25.5328V61.7059C183.193 64.0591 184.128 66.3159 185.792 67.9798C187.456 69.6438 189.712 70.5786 192.066 70.5786H198.891C199.082 73.8615 198.611 78.7687 195.874 84.9864C202.672 81.8971 208.42 76.8895 212.411 70.5786H268.377C270.73 70.5786 272.987 69.6438 274.651 67.9798C276.315 66.3159 277.25 64.0591 277.25 61.7059V25.5328C277.25 24.3665 277.02 23.2116 276.573 22.1342C276.126 21.0569 275.472 20.0782 274.646 19.2541C273.821 18.43 272.841 17.7767 271.763 17.3316C270.685 16.8865 269.53 16.6584 268.363 16.6602Z" fill="#60A8FF"/>
<path d="M235.815 33.9071H197.969C197.471 33.9071 196.993 33.7096 196.64 33.3578C196.287 33.006 196.087 32.5286 196.086 32.0302C196.086 31.5306 196.284 31.0515 196.637 30.6982C196.991 30.345 197.47 30.1465 197.969 30.1465H235.815C236.314 30.1465 236.793 30.345 237.147 30.6982C237.5 31.0515 237.698 31.5306 237.698 32.0302C237.696 32.5286 237.497 33.006 237.144 33.3578C236.791 33.7096 236.313 33.9071 235.815 33.9071Z" fill="white"/>
<path d="M262.951 44.8754H197.246C196.94 44.8754 196.647 44.7539 196.43 44.5376C196.214 44.3213 196.092 44.0279 196.092 43.722C196.092 43.4161 196.214 43.1227 196.43 42.9064C196.647 42.6901 196.94 42.5685 197.246 42.5685H262.958C263.111 42.5658 263.263 42.5936 263.406 42.6504C263.548 42.7071 263.678 42.7917 263.787 42.8991C263.896 43.0064 263.983 43.1345 264.042 43.2758C264.102 43.4171 264.132 43.5688 264.132 43.722C264.132 43.8758 264.101 44.028 264.042 44.1698C263.982 44.3115 263.895 44.4399 263.785 44.5474C263.675 44.6549 263.544 44.7393 263.401 44.7956C263.258 44.8519 263.105 44.8791 262.951 44.8754Z" fill="#D2E6FF"/>
<path d="M262.951 51.2773H197.246C196.94 51.2773 196.647 51.1558 196.43 50.9394C196.214 50.7231 196.092 50.4298 196.092 50.1238C196.092 49.8179 196.214 49.5245 196.43 49.3082C196.647 49.0919 196.94 48.9704 197.246 48.9704H262.958C263.111 48.9677 263.263 48.9955 263.406 49.0522C263.548 49.109 263.678 49.1935 263.787 49.3009C263.896 49.4083 263.983 49.5364 264.042 49.6777C264.102 49.819 264.132 49.9706 264.132 50.1238C264.132 50.2776 264.101 50.4299 264.042 50.5716C263.982 50.7134 263.895 50.8418 263.785 50.9493C263.675 51.0567 263.544 51.1411 263.401 51.1974C263.258 51.2538 263.105 51.2809 262.951 51.2773Z" fill="#D2E6FF"/>
<path d="M248.618 58.1025H197.246C196.94 58.1025 196.647 57.981 196.43 57.7646C196.214 57.5483 196.092 57.255 196.092 56.949C196.092 56.6431 196.214 56.3497 196.43 56.1334C196.647 55.9171 196.94 55.7956 197.246 55.7956H248.625C248.778 55.7929 248.931 55.8207 249.073 55.8774C249.215 55.9342 249.345 56.0187 249.454 56.1261C249.563 56.2335 249.65 56.3616 249.71 56.5029C249.769 56.6441 249.799 56.7958 249.799 56.949C249.799 57.1028 249.769 57.2551 249.709 57.3968C249.649 57.5386 249.562 57.667 249.452 57.7744C249.342 57.8819 249.211 57.9663 249.068 58.0226C248.925 58.079 248.772 58.1061 248.618 58.1025Z" fill="#D2E6FF"/>
<path d="M262.433 33.9071H244.38C243.882 33.9071 243.404 33.7096 243.05 33.3578C242.697 33.006 242.498 32.5286 242.496 32.0302C242.496 31.5306 242.695 31.0515 243.048 30.6982C243.401 30.345 243.88 30.1465 244.38 30.1465H262.433C262.68 30.1456 262.926 30.1937 263.154 30.2881C263.383 30.3824 263.591 30.5211 263.767 30.6962C263.942 30.8713 264.08 31.0793 264.175 31.3083C264.269 31.5372 264.317 31.7826 264.316 32.0302C264.316 32.2773 264.267 32.5219 264.173 32.7501C264.078 32.9782 263.939 33.1854 263.764 33.3598C263.589 33.5342 263.381 33.6723 263.153 33.7662C262.924 33.8601 262.68 33.908 262.433 33.9071Z" fill="white"/>
<path d="M216.929 100.418H196.434C195.68 100.418 195.069 101.029 195.069 101.783V115.788C195.069 116.542 195.68 117.153 196.434 117.153H216.929C217.683 117.153 218.294 116.542 218.294 115.788V101.783C218.294 101.029 217.683 100.418 216.929 100.418Z" fill="white"/>
<path d="M206.801 111.29C206.681 111.29 206.564 111.246 206.473 111.167L195.314 101.953C195.263 101.909 195.221 101.854 195.19 101.793C195.16 101.732 195.142 101.665 195.137 101.597C195.132 101.529 195.141 101.461 195.162 101.396C195.184 101.331 195.218 101.271 195.263 101.22C195.308 101.168 195.362 101.126 195.424 101.095C195.485 101.065 195.551 101.047 195.619 101.042C195.688 101.037 195.756 101.046 195.821 101.068C195.885 101.089 195.945 101.124 195.997 101.168L206.801 110.103L217.346 100.93C217.448 100.839 217.582 100.793 217.718 100.801C217.855 100.81 217.982 100.872 218.073 100.974C218.163 101.076 218.209 101.21 218.201 101.347C218.193 101.483 218.131 101.61 218.028 101.701L207.156 111.16C207.058 111.246 206.931 111.292 206.801 111.29Z" fill="#6F7FA9"/>
<path d="M195.669 116.771C195.569 116.771 195.471 116.741 195.387 116.686C195.303 116.631 195.238 116.552 195.199 116.459C195.159 116.367 195.148 116.265 195.166 116.166C195.184 116.068 195.231 115.977 195.301 115.904L203.102 107.714C203.149 107.666 203.205 107.627 203.267 107.601C203.329 107.575 203.396 107.562 203.464 107.562C203.531 107.562 203.598 107.575 203.66 107.601C203.722 107.627 203.778 107.666 203.825 107.714C203.921 107.81 203.975 107.94 203.975 108.076C203.975 108.211 203.921 108.342 203.825 108.438L196.024 116.628C195.929 116.72 195.802 116.772 195.669 116.771Z" fill="#6F7FA9"/>
<path d="M217.721 116.471C217.654 116.472 217.587 116.46 217.524 116.434C217.462 116.408 217.406 116.369 217.359 116.321L209.565 108.52C209.475 108.422 209.425 108.294 209.428 108.162C209.43 108.029 209.484 107.902 209.578 107.809C209.671 107.715 209.798 107.661 209.931 107.659C210.063 107.656 210.192 107.706 210.289 107.796L218.062 115.59C218.158 115.686 218.212 115.816 218.212 115.952C218.212 116.088 218.158 116.218 218.062 116.314C217.973 116.408 217.851 116.464 217.721 116.471Z" fill="#6F7FA9"/>
<path d="M219.366 106.745C223.147 106.745 226.212 103.68 226.212 99.8993C226.212 96.1186 223.147 93.0537 219.366 93.0537C215.585 93.0537 212.521 96.1186 212.521 99.8993C212.521 103.68 215.585 106.745 219.366 106.745Z" fill="#FF5F42"/>
<path d="M217.709 99.8857L217.693 99.6973C217.9 99.7901 218.08 99.9102 218.233 100.058C218.386 100.205 218.503 100.366 218.585 100.541C218.667 100.716 218.708 100.896 218.708 101.081C218.708 101.393 218.621 101.679 218.446 101.941C218.277 102.198 218.047 102.405 217.758 102.564C217.469 102.717 217.147 102.793 216.792 102.793C216.437 102.793 216.115 102.717 215.825 102.564C215.536 102.405 215.304 102.198 215.129 101.941C214.96 101.679 214.875 101.393 214.875 101.081C214.875 100.83 214.927 100.615 215.031 100.434C215.14 100.249 215.274 100.093 215.432 99.9676C215.596 99.842 215.757 99.7382 215.915 99.6563L215.85 99.8857C215.713 99.8311 215.579 99.7546 215.448 99.6563C215.323 99.5526 215.219 99.4215 215.137 99.2632C215.055 99.1049 215.014 98.9192 215.014 98.7063C215.014 98.4005 215.094 98.1248 215.252 97.8791C215.41 97.6279 215.623 97.4286 215.891 97.2812C216.164 97.1338 216.464 97.0601 216.792 97.0601C217.125 97.0601 217.422 97.1338 217.684 97.2812C217.952 97.4286 218.165 97.6279 218.323 97.8791C218.482 98.1248 218.561 98.4005 218.561 98.7063C218.561 98.9411 218.514 99.1376 218.421 99.296C218.329 99.4543 218.217 99.5799 218.086 99.6727C217.955 99.7655 217.829 99.8365 217.709 99.8857ZM215.997 98.7227C215.997 98.8701 216.03 99.0011 216.095 99.1158C216.166 99.2304 216.262 99.3233 216.382 99.3942C216.502 99.4598 216.639 99.4925 216.792 99.4925C216.944 99.4925 217.078 99.4598 217.193 99.3942C217.313 99.3233 217.406 99.2304 217.471 99.1158C217.542 99.0011 217.578 98.8701 217.578 98.7227C217.578 98.5043 217.501 98.3241 217.349 98.1821C217.201 98.0347 217.015 97.961 216.792 97.961C216.562 97.961 216.371 98.0347 216.218 98.1821C216.071 98.3241 215.997 98.5043 215.997 98.7227ZM216.792 101.892C217.054 101.892 217.275 101.813 217.455 101.655C217.635 101.491 217.725 101.294 217.725 101.065C217.725 100.907 217.684 100.765 217.602 100.639C217.521 100.514 217.409 100.415 217.267 100.344C217.125 100.268 216.966 100.23 216.792 100.23C216.617 100.23 216.459 100.268 216.317 100.344C216.175 100.415 216.063 100.514 215.981 100.639C215.899 100.765 215.858 100.907 215.858 101.065C215.858 101.294 215.948 101.491 216.128 101.655C216.308 101.813 216.53 101.892 216.792 101.892Z" fill="white"/>
<path d="M221.008 102.875C220.806 102.875 220.591 102.845 220.361 102.785C220.132 102.719 219.944 102.627 219.796 102.507C219.725 102.446 219.668 102.37 219.624 102.277C219.586 102.179 219.567 102.086 219.567 101.999C219.567 101.906 219.605 101.819 219.682 101.737C219.763 101.655 219.878 101.614 220.026 101.614C220.124 101.614 220.247 101.666 220.394 101.769C220.481 101.824 220.577 101.873 220.681 101.917C220.784 101.96 220.891 101.982 221 101.982C221.262 101.982 221.489 101.936 221.68 101.843C221.871 101.745 222.018 101.611 222.122 101.442C222.226 101.273 222.278 101.073 222.278 100.844C222.278 100.636 222.229 100.459 222.13 100.312C222.038 100.164 221.912 100.049 221.754 99.9676C221.601 99.8857 221.434 99.8447 221.254 99.8447C221.085 99.8447 220.937 99.872 220.812 99.9266C220.686 99.9812 220.572 100.039 220.468 100.099C220.364 100.153 220.26 100.181 220.157 100.181C219.976 100.181 219.843 100.142 219.755 100.066C219.668 99.9839 219.613 99.8884 219.591 99.7792C219.57 99.67 219.564 99.5717 219.575 99.4843L219.829 97.4941C219.851 97.3795 219.905 97.2867 219.993 97.2157C220.086 97.1392 220.195 97.101 220.32 97.101H222.687C222.818 97.101 222.928 97.1447 223.015 97.2321C223.102 97.3194 223.146 97.4286 223.146 97.5597C223.146 97.6852 223.102 97.7917 223.015 97.8791C222.928 97.961 222.818 98.0019 222.687 98.0019H220.574L220.664 97.9282L220.443 99.5908L220.337 99.2796C220.369 99.225 220.44 99.1731 220.55 99.124C220.659 99.0748 220.784 99.0339 220.926 99.0011C221.068 98.9629 221.208 98.9438 221.344 98.9438C221.71 98.9438 222.038 99.0284 222.327 99.1977C222.616 99.3615 222.843 99.5881 223.007 99.8775C223.176 100.161 223.261 100.484 223.261 100.844C223.261 101.253 223.168 101.611 222.982 101.917C222.796 102.223 222.534 102.46 222.196 102.629C221.863 102.793 221.467 102.875 221.008 102.875Z" fill="white"/>
<path d="M288.15 85.6621H248.141C246.633 85.6621 245.411 86.8844 245.411 88.3921V94.6508C245.411 96.1585 246.633 97.3808 248.141 97.3808H288.15C289.657 97.3808 290.88 96.1585 290.88 94.6508V88.3921C290.88 86.8844 289.657 85.6621 288.15 85.6621Z" fill="#223A7A"/>
<path d="M251.028 94.596C250.946 94.5978 250.866 94.5815 250.791 94.5485C250.717 94.5155 250.651 94.4665 250.598 94.4049C250.49 94.2677 250.438 94.0943 250.454 93.9203L250.625 92.4052C250.625 92.3642 250.625 92.3437 250.625 92.3301C250.625 92.3164 250.57 92.3301 250.529 92.3301L249.28 93.231C249.215 93.2858 249.138 93.3252 249.055 93.3464C248.973 93.3677 248.886 93.3702 248.803 93.3539C248.718 93.3367 248.637 93.3009 248.568 93.249C248.498 93.197 248.441 93.1303 248.4 93.0536C248.344 92.9779 248.309 92.8894 248.297 92.7962C248.285 92.7031 248.297 92.6084 248.332 92.5212C248.364 92.4443 248.412 92.3752 248.474 92.3187C248.535 92.2622 248.607 92.2195 248.687 92.1936L250.086 91.5589C250.127 91.5589 250.147 91.5384 250.147 91.4974C250.147 91.4974 250.147 91.4565 250.086 91.4428L248.687 90.8081C248.606 90.7773 248.532 90.7289 248.472 90.6663C248.412 90.6038 248.366 90.5286 248.339 90.4464C248.315 90.3635 248.308 90.2766 248.319 90.191C248.329 90.1054 248.357 90.0228 248.4 89.9481C248.441 89.8714 248.498 89.8047 248.568 89.7527C248.637 89.7008 248.718 89.665 248.803 89.6478C248.885 89.6309 248.97 89.6312 249.052 89.6489C249.135 89.6665 249.212 89.701 249.28 89.7502L250.529 90.6716C250.57 90.6716 250.598 90.7057 250.625 90.6716C250.652 90.6375 250.659 90.6716 250.625 90.5965L250.454 89.0813C250.444 88.9946 250.453 88.9067 250.478 88.8232C250.504 88.7398 250.547 88.6626 250.605 88.5968C250.664 88.5337 250.736 88.484 250.816 88.451C250.896 88.4181 250.982 88.4026 251.069 88.4057C251.154 88.4041 251.239 88.4216 251.317 88.457C251.394 88.4924 251.463 88.5447 251.518 88.6101C251.573 88.6755 251.613 88.7524 251.634 88.8351C251.656 88.9178 251.658 89.0043 251.642 89.0882L251.471 90.6033C251.471 90.6443 251.471 90.6648 251.471 90.6784C251.471 90.6921 251.526 90.6784 251.567 90.6784L252.816 89.7775C252.882 89.7222 252.96 89.6825 253.044 89.6612C253.128 89.6399 253.216 89.6377 253.3 89.6546C253.386 89.6693 253.466 89.7042 253.535 89.7565C253.604 89.8087 253.659 89.8768 253.696 89.955C253.75 90.0314 253.785 90.1199 253.797 90.2127C253.808 90.3055 253.798 90.3997 253.765 90.4873C253.731 90.5635 253.683 90.632 253.622 90.6884C253.56 90.7448 253.488 90.7878 253.41 90.8149L252.004 91.4497C251.97 91.4497 251.949 91.4838 251.949 91.5043C251.949 91.5247 251.949 91.552 252.004 91.5657L253.41 92.2004C253.491 92.232 253.565 92.2806 253.626 92.343C253.687 92.4054 253.735 92.4801 253.765 92.5621C253.792 92.6448 253.801 92.7328 253.789 92.8193C253.777 92.9057 253.745 92.9882 253.696 93.0604C253.659 93.1385 253.604 93.2066 253.535 93.2589C253.466 93.3111 253.386 93.346 253.3 93.3607C253.217 93.3778 253.131 93.3775 253.048 93.3599C252.964 93.3423 252.885 93.3077 252.816 93.2583L251.567 92.3369C251.526 92.3369 251.492 92.3028 251.471 92.3369C251.451 92.371 251.437 92.371 251.471 92.412L251.642 93.9272C251.658 94.0135 251.653 94.1024 251.628 94.1866C251.603 94.2707 251.559 94.3479 251.499 94.4118C251.437 94.4728 251.363 94.5206 251.282 94.5523C251.201 94.5839 251.115 94.5988 251.028 94.596Z" fill="white"/>
<path d="M259.3 94.596C259.218 94.5977 259.138 94.5815 259.063 94.5485C258.989 94.5154 258.923 94.4664 258.87 94.4049C258.762 94.2677 258.71 94.0942 258.726 93.9203L258.897 92.4051C258.897 92.3642 258.897 92.3437 258.897 92.3301C258.881 92.3211 258.864 92.3163 258.846 92.3163C258.828 92.3163 258.81 92.3211 258.795 92.3301L257.552 93.231C257.486 93.2859 257.408 93.3253 257.324 93.3466C257.24 93.3678 257.153 93.3703 257.068 93.3538C256.983 93.3358 256.903 93.2996 256.834 93.2478C256.764 93.196 256.707 93.1297 256.665 93.0535C256.611 92.9771 256.577 92.8886 256.565 92.7958C256.553 92.703 256.564 92.6087 256.597 92.5212C256.63 92.445 256.679 92.3765 256.74 92.3201C256.801 92.2637 256.873 92.2206 256.952 92.1936L258.358 91.5588C258.392 91.5588 258.412 91.5247 258.412 91.4974C258.412 91.4701 258.412 91.4564 258.358 91.4428L256.952 90.8081C256.871 90.7781 256.798 90.7299 256.739 90.6672C256.68 90.6044 256.636 90.5288 256.611 90.4463C256.584 90.3641 256.575 90.2772 256.585 90.1914C256.594 90.1055 256.622 90.0226 256.665 89.9481C256.707 89.8719 256.764 89.8057 256.834 89.7538C256.903 89.702 256.983 89.6658 257.068 89.6478C257.151 89.6311 257.237 89.6316 257.321 89.6492C257.404 89.6668 257.483 89.7011 257.552 89.7502L258.795 90.6716C258.81 90.6805 258.828 90.6853 258.846 90.6853C258.864 90.6853 258.881 90.6805 258.897 90.6716C258.897 90.6716 258.897 90.6716 258.897 90.5965L258.726 89.0813C258.718 88.9941 258.727 88.906 258.754 88.8226C258.781 88.7392 258.825 88.6623 258.883 88.5967C258.942 88.5365 259.012 88.4885 259.089 88.4558C259.167 88.4231 259.25 88.4062 259.334 88.4062C259.418 88.4062 259.501 88.4231 259.578 88.4558C259.656 88.4885 259.726 88.5365 259.784 88.5967C259.841 88.6624 259.882 88.7401 259.905 88.8241C259.927 88.908 259.931 88.996 259.914 89.0813L259.743 90.5965C259.743 90.6374 259.743 90.6579 259.743 90.6716C259.743 90.6852 259.798 90.6716 259.839 90.6716L261.088 89.7706C261.155 89.7148 261.235 89.6747 261.32 89.6535C261.405 89.6322 261.493 89.6303 261.579 89.6478C261.664 89.664 261.744 89.6995 261.812 89.7516C261.881 89.8037 261.937 89.8709 261.975 89.9481C262.029 90.0249 262.062 90.1137 262.073 90.2065C262.084 90.2994 262.071 90.3935 262.037 90.4805C262.004 90.5574 261.956 90.6264 261.895 90.6829C261.834 90.7395 261.761 90.7822 261.682 90.8081L260.283 91.4428C260.242 91.4428 260.221 91.4769 260.221 91.4974C260.221 91.5179 260.221 91.5452 260.283 91.5588L261.682 92.1936C261.764 92.2231 261.839 92.271 261.901 92.3336C261.962 92.3963 262.009 92.4721 262.037 92.5553C262.067 92.6372 262.077 92.7252 262.067 92.8119C262.056 92.8986 262.025 92.9814 261.975 93.0535C261.937 93.1307 261.881 93.1979 261.812 93.25C261.744 93.3021 261.664 93.3376 261.579 93.3538C261.495 93.3715 261.407 93.3715 261.323 93.3539C261.238 93.3363 261.158 93.3014 261.088 93.2515L259.839 92.3301C259.798 92.3301 259.771 92.2959 259.743 92.3301C259.716 92.3642 259.709 92.3642 259.743 92.4051L259.914 93.9203C259.93 94.0067 259.925 94.0955 259.9 94.1797C259.875 94.2639 259.831 94.341 259.771 94.4049C259.71 94.4682 259.637 94.5179 259.556 94.5508C259.474 94.5838 259.387 94.5992 259.3 94.596Z" fill="white"/>
<path d="M267.579 94.596C267.497 94.5978 267.417 94.5815 267.342 94.5485C267.268 94.5155 267.202 94.4665 267.149 94.4049C267.038 94.2687 266.984 94.0952 266.998 93.9203L267.176 92.4052C267.176 92.3642 267.176 92.3437 267.176 92.3301C267.176 92.3164 267.121 92.3301 267.08 92.3301L265.831 93.231C265.766 93.2853 265.689 93.3245 265.606 93.3457C265.524 93.367 265.437 93.3697 265.354 93.3539C265.268 93.3367 265.188 93.3009 265.119 93.249C265.049 93.197 264.992 93.1303 264.951 93.0536C264.895 92.9779 264.86 92.8894 264.848 92.7962C264.836 92.7031 264.848 92.6084 264.883 92.5212C264.915 92.4443 264.963 92.3752 265.024 92.3187C265.086 92.2622 265.158 92.2195 265.238 92.1936L266.637 91.5589C266.678 91.5589 266.698 91.5384 266.698 91.4974C266.698 91.4974 266.698 91.4565 266.637 91.4428L265.238 90.8081C265.156 90.7782 265.082 90.73 265.022 90.6673C264.962 90.6047 264.916 90.5291 264.89 90.4464C264.864 90.3637 264.856 90.2765 264.867 90.1907C264.878 90.1048 264.906 90.0222 264.951 89.9481C264.992 89.8714 265.049 89.8047 265.119 89.7527C265.188 89.7008 265.268 89.665 265.354 89.6478C265.436 89.6313 265.521 89.6319 265.603 89.6495C265.685 89.6671 265.763 89.7014 265.831 89.7502L267.08 90.6716C267.121 90.6716 267.149 90.7057 267.176 90.6716C267.203 90.6375 267.21 90.6716 267.176 90.5965L266.998 89.0813C266.986 88.9056 267.043 88.732 267.155 88.5968C267.215 88.5337 267.287 88.484 267.367 88.451C267.447 88.4181 267.533 88.4026 267.62 88.4057C267.705 88.4041 267.79 88.4216 267.867 88.457C267.945 88.4924 268.014 88.5447 268.069 88.6101C268.124 88.6755 268.164 88.7524 268.185 88.8351C268.206 88.9178 268.209 89.0043 268.193 89.0882L268.022 90.6033C268.022 90.6443 268.022 90.6648 268.022 90.6784C268.038 90.6874 268.055 90.6921 268.073 90.6921C268.091 90.6921 268.109 90.6874 268.125 90.6784L269.374 89.7775C269.44 89.7222 269.518 89.6825 269.602 89.6612C269.686 89.6399 269.773 89.6377 269.858 89.6546C269.943 89.6693 270.024 89.7042 270.093 89.7565C270.162 89.8087 270.217 89.8768 270.254 89.955C270.308 90.0314 270.342 90.1199 270.354 90.2127C270.366 90.3055 270.355 90.3997 270.322 90.4873C270.288 90.5629 270.239 90.6308 270.178 90.687C270.117 90.7433 270.045 90.7868 269.967 90.8149L268.561 91.4497C268.527 91.4497 268.507 91.4838 268.507 91.5043C268.507 91.5247 268.507 91.552 268.561 91.5657L269.967 92.2004C270.049 92.232 270.123 92.2806 270.184 92.343C270.245 92.4054 270.292 92.4801 270.322 92.5621C270.35 92.6448 270.358 92.7328 270.346 92.8193C270.335 92.9057 270.303 92.9882 270.254 93.0604C270.217 93.1385 270.162 93.2066 270.093 93.2589C270.024 93.3111 269.943 93.346 269.858 93.3607C269.775 93.3778 269.689 93.3775 269.605 93.3599C269.522 93.3423 269.443 93.3077 269.374 93.2583L268.125 92.3369C268.109 92.3279 268.091 92.3232 268.073 92.3232C268.055 92.3232 268.038 92.3279 268.022 92.3369C268.022 92.3369 268.022 92.371 268.022 92.412L268.193 93.9272C268.209 94.0135 268.204 94.1024 268.179 94.1866C268.154 94.2707 268.11 94.3479 268.05 94.4118C267.988 94.4728 267.914 94.5206 267.833 94.5523C267.752 94.5839 267.665 94.5988 267.579 94.596Z" fill="white"/>
<path d="M275.851 94.5959C275.769 94.5977 275.689 94.5814 275.614 94.5484C275.54 94.5154 275.474 94.4664 275.421 94.4048C275.313 94.2676 275.261 94.0942 275.277 93.9202L275.448 92.4051C275.448 92.3641 275.448 92.3436 275.448 92.33C275.448 92.3163 275.393 92.33 275.352 92.33L274.103 93.2309C274.038 93.2857 273.961 93.3251 273.878 93.3463C273.796 93.3676 273.709 93.3701 273.626 93.3538C273.541 93.3357 273.461 93.2996 273.391 93.2477C273.322 93.1959 273.264 93.1296 273.223 93.0535C273.169 92.977 273.135 92.8885 273.123 92.7958C273.111 92.703 273.122 92.6087 273.155 92.5211C273.188 92.4449 273.237 92.3764 273.298 92.3201C273.359 92.2637 273.431 92.2206 273.51 92.1935L274.916 91.5588C274.95 91.5588 274.97 91.5246 274.97 91.4973C274.97 91.47 274.97 91.4564 274.916 91.4427L273.51 90.808C273.429 90.7781 273.356 90.7299 273.297 90.6671C273.237 90.6044 273.194 90.5288 273.168 90.4463C273.142 90.364 273.133 90.2772 273.143 90.1913C273.152 90.1055 273.179 90.0226 273.223 89.948C273.264 89.8719 273.322 89.8056 273.391 89.7538C273.461 89.7019 273.541 89.6658 273.626 89.6477C273.708 89.6308 273.793 89.6311 273.875 89.6488C273.958 89.6664 274.035 89.7009 274.103 89.7501L275.352 90.6715C275.393 90.6715 275.427 90.7056 275.448 90.6715C275.468 90.6374 275.482 90.6715 275.448 90.5964L275.277 89.0812C275.263 88.9064 275.317 88.7329 275.427 88.5967C275.487 88.5339 275.559 88.4845 275.639 88.4515C275.719 88.4186 275.805 88.4029 275.892 88.4056C275.975 88.4045 276.057 88.421 276.134 88.454C276.21 88.4869 276.279 88.5355 276.335 88.5967C276.392 88.6623 276.433 88.7401 276.456 88.824C276.478 88.908 276.481 88.9959 276.465 89.0812L276.294 90.5964C276.294 90.6374 276.294 90.6578 276.294 90.6715C276.294 90.6851 276.349 90.6715 276.39 90.6715L277.639 89.7706C277.706 89.7147 277.786 89.6747 277.871 89.6534C277.956 89.6322 278.044 89.6302 278.13 89.6477C278.214 89.6634 278.293 89.6988 278.361 89.751C278.429 89.8032 278.483 89.8707 278.519 89.948C278.575 90.0237 278.61 90.1122 278.622 90.2054C278.634 90.2985 278.622 90.3932 278.587 90.4804C278.555 90.5573 278.507 90.6263 278.446 90.6829C278.385 90.7394 278.312 90.7821 278.233 90.808L276.833 91.4427C276.792 91.4427 276.772 91.4769 276.772 91.4973C276.772 91.5178 276.772 91.5451 276.833 91.5588L278.233 92.1935C278.315 92.2243 278.389 92.2726 278.45 92.3351C278.511 92.3976 278.558 92.4727 278.587 92.5552C278.617 92.6377 278.626 92.726 278.614 92.8127C278.602 92.8994 278.57 92.982 278.519 93.0535C278.483 93.1308 278.429 93.1983 278.361 93.2505C278.293 93.3027 278.214 93.3381 278.13 93.3538C278.046 93.3714 277.958 93.3714 277.874 93.3538C277.789 93.3362 277.709 93.3013 277.639 93.2514L276.417 92.3505C276.376 92.3505 276.349 92.3163 276.322 92.3505C276.294 92.3846 276.287 92.3846 276.322 92.4255L276.492 93.9407C276.508 94.0271 276.503 94.1159 276.478 94.2001C276.453 94.2843 276.409 94.3614 276.349 94.4253C276.283 94.4874 276.204 94.5347 276.118 94.5641C276.032 94.5935 275.941 94.6044 275.851 94.5959Z" fill="white"/>
<path d="M284.13 94.596C284.048 94.5983 283.967 94.5822 283.893 94.5492C283.819 94.5161 283.752 94.4668 283.7 94.4049C283.589 94.2687 283.535 94.0952 283.549 93.9203L283.727 92.4052C283.727 92.3642 283.727 92.3437 283.727 92.3301C283.713 92.321 283.696 92.3161 283.679 92.3161C283.662 92.3161 283.646 92.321 283.631 92.3301L282.382 93.231C282.317 93.2853 282.24 93.3245 282.157 93.3457C282.075 93.367 281.988 93.3697 281.905 93.3539C281.819 93.3368 281.737 93.301 281.667 93.2491C281.596 93.1972 281.537 93.1305 281.495 93.0536C281.442 92.9768 281.408 92.888 281.397 92.7951C281.387 92.7022 281.399 92.6081 281.434 92.5212C281.466 92.4443 281.514 92.3752 281.575 92.3187C281.637 92.2622 281.709 92.2195 281.789 92.1936L283.188 91.5589C283.229 91.5589 283.249 91.5384 283.249 91.4974C283.249 91.4974 283.249 91.4565 283.188 91.4428L281.789 90.8081C281.706 90.7795 281.632 90.7319 281.571 90.669C281.511 90.6061 281.466 90.5298 281.44 90.4464C281.416 90.3639 281.408 90.2773 281.417 90.1917C281.426 90.1061 281.453 90.0233 281.495 89.9481C281.537 89.8712 281.596 89.8044 281.667 89.7526C281.737 89.7007 281.819 89.6649 281.905 89.6478C281.987 89.6313 282.072 89.6319 282.154 89.6495C282.236 89.6671 282.314 89.7014 282.382 89.7502L283.631 90.6716C283.646 90.6807 283.662 90.6855 283.679 90.6855C283.696 90.6855 283.713 90.6807 283.727 90.6716C283.727 90.6716 283.761 90.6716 283.727 90.5965L283.549 89.0813C283.541 88.9941 283.55 88.906 283.577 88.8226C283.604 88.7392 283.648 88.6623 283.706 88.5968C283.766 88.5337 283.838 88.484 283.918 88.451C283.998 88.4181 284.084 88.4026 284.17 88.4057C284.256 88.4041 284.341 88.4216 284.418 88.457C284.496 88.4924 284.565 88.5447 284.62 88.6101C284.675 88.6755 284.715 88.7524 284.736 88.8351C284.757 88.9178 284.76 89.0043 284.744 89.0882L284.607 90.6375C284.607 90.6784 284.607 90.6989 284.607 90.7125C284.623 90.7215 284.641 90.7263 284.659 90.7263C284.676 90.7263 284.694 90.7215 284.71 90.7125L285.952 89.8116C286.02 89.7566 286.099 89.7171 286.184 89.6959C286.269 89.6746 286.357 89.6722 286.443 89.6888C286.528 89.704 286.609 89.7391 286.677 89.7913C286.746 89.8435 286.802 89.9113 286.839 89.9891C286.893 90.0655 286.927 90.154 286.939 90.2468C286.951 90.3396 286.94 90.4339 286.907 90.5214C286.873 90.597 286.824 90.6649 286.763 90.7212C286.702 90.7774 286.631 90.8209 286.552 90.849L285.146 91.4838C285.112 91.4838 285.092 91.5179 285.092 91.5384C285.092 91.5589 285.092 91.5862 285.146 91.5998L286.552 92.2345C286.634 92.2661 286.708 92.3147 286.769 92.3771C286.83 92.4395 286.877 92.5142 286.907 92.5963C286.935 92.679 286.943 92.767 286.932 92.8534C286.92 92.9398 286.888 93.0223 286.839 93.0945C286.802 93.1723 286.746 93.2401 286.677 93.2923C286.609 93.3445 286.528 93.3796 286.443 93.3948C286.359 93.4117 286.272 93.4113 286.187 93.3937C286.103 93.3761 286.023 93.3417 285.952 93.2924L284.71 92.371C284.694 92.3621 284.676 92.3573 284.659 92.3573C284.641 92.3573 284.623 92.3621 284.607 92.371C284.607 92.371 284.607 92.4052 284.607 92.4461L284.778 93.9613C284.794 94.0476 284.789 94.1365 284.764 94.2207C284.739 94.3049 284.695 94.382 284.635 94.4459C284.566 94.5052 284.485 94.5493 284.398 94.5752C284.311 94.6011 284.22 94.6082 284.13 94.596Z" fill="#67ACFF"/>
</g>
<defs>
<clipPath id="clip0_2_5769">
<rect width="299.37" height="225.085" fill="white"/>
</clipPath>
</defs>
</svg>
