<svg width="905" height="99" viewBox="0 0 905 99" fill="none" xmlns="http://www.w3.org/2000/svg">
<mask id="mask0_2_838" style="mask-type:alpha" maskUnits="userSpaceOnUse" x="0" y="0" width="905" height="99">
<rect width="905" height="99" rx="10" fill="#FF5811"/>
</mask>
<g mask="url(#mask0_2_838)">
<rect width="905" height="99" rx="10" fill="#6336AC"/>
<rect width="5.88018" height="360.585" transform="matrix(0.969838 -0.243752 0.418415 0.908256 -24.7488 0.285156)" fill="#6336AC"/>
<rect width="5.88018" height="360.585" transform="matrix(0.969838 -0.243752 0.418415 0.908256 10.8938 -8.66992)" fill="#6336AC"/>
<rect width="5.88018" height="360.585" transform="matrix(0.969838 -0.243752 0.418415 0.908256 46.5365 -17.6289)" fill="#6336AC"/>
<rect width="5.88018" height="360.585" transform="matrix(0.969838 -0.243752 0.418415 0.908256 82.1792 -26.5879)" fill="#6336AC"/>
<rect width="5.88018" height="360.585" transform="matrix(0.969838 -0.243752 0.418415 0.908256 117.822 -35.5449)" fill="#6336AC"/>
<rect width="5.88018" height="360.585" transform="matrix(0.969838 -0.243752 0.418415 0.908256 153.464 -44.5059)" fill="#6336AC"/>
<rect width="5.88018" height="360.585" transform="matrix(0.969838 -0.243752 0.418415 0.908256 189.107 -53.4629)" fill="#6336AC"/>
<rect width="5.88018" height="360.585" transform="matrix(0.969838 -0.243752 0.418415 0.908256 224.75 -62.4199)" fill="#6336AC"/>
<rect width="4.41013" height="360.585" transform="matrix(0.969838 -0.243752 0.418415 0.908256 260.392 -71.3809)" fill="#6336AC"/>
<rect width="4.41013" height="360.585" transform="matrix(0.969838 -0.243752 0.418415 0.908256 294.609 -79.9766)" fill="#6336AC"/>
<rect width="4.41013" height="360.585" transform="matrix(0.969838 -0.243752 0.418415 0.908256 328.826 -88.5801)" fill="#6336AC"/>
<rect width="4.41013" height="360.585" transform="matrix(0.969838 -0.243752 0.418415 0.908256 363.043 -97.1777)" fill="#6336AC"/>
<rect width="4.41013" height="360.585" transform="matrix(0.969838 -0.243752 0.418415 0.908256 397.26 -105.777)" fill="#6336AC"/>
<rect width="4.41013" height="360.585" transform="matrix(0.969838 -0.243752 0.418415 0.908256 431.477 -114.377)" fill="#6336AC"/>
<rect width="4.41013" height="360.585" transform="matrix(0.969838 -0.243752 0.418415 0.908256 465.694 -122.977)" fill="#6336AC"/>
<rect width="4.41013" height="360.585" transform="matrix(0.969838 -0.243752 0.418415 0.908256 499.911 -131.576)" fill="#6336AC"/>
<rect width="5.88018" height="360.585" transform="matrix(0.969838 -0.243752 0.418415 0.908256 534.127 -140.178)" fill="#6336AC"/>
<rect width="5.88018" height="360.585" transform="matrix(0.969838 -0.243752 0.418415 0.908256 569.77 -149.137)" fill="#6336AC"/>
<rect width="5.88018" height="360.585" transform="matrix(0.969838 -0.243752 0.418415 0.908256 605.413 -158.094)" fill="#6336AC"/>
<rect width="5.88018" height="360.585" transform="matrix(0.969838 -0.243752 0.418415 0.908256 641.055 -167.053)" fill="#6336AC"/>
<rect width="5.88018" height="360.585" transform="matrix(0.969838 -0.243752 0.418415 0.908256 676.698 -176.008)" fill="#6336AC"/>
<rect width="5.88018" height="360.585" transform="matrix(0.969838 -0.243752 0.418415 0.908256 712.34 -184.971)" fill="#6336AC"/>
<rect width="5.88018" height="360.585" transform="matrix(0.969838 -0.243752 0.418415 0.908256 747.983 -193.926)" fill="#6336AC"/>
<rect width="5.88018" height="360.585" transform="matrix(0.969838 -0.243752 0.418415 0.908256 783.626 -202.883)" fill="#6336AC"/>
</g>
</svg>
