<svg width="21" height="20" viewBox="0 0 21 20" fill="none" xmlns="http://www.w3.org/2000/svg">
<path d="M3.44262 0.601424L10.2959 7.4544L17.1136 0.636931C17.2642 0.476645 17.4457 0.348422 17.647 0.25995C17.8484 0.171479 18.0655 0.124581 18.2854 0.12207C18.7563 0.12207 19.2079 0.309119 19.5409 0.642068C19.8738 0.975017 20.0609 1.42659 20.0609 1.89745C20.065 2.11512 20.0247 2.33133 19.9422 2.53283C19.8598 2.73433 19.737 2.91685 19.5815 3.06921L12.675 9.88667L19.5815 16.7929C19.8742 17.0792 20.0457 17.4668 20.0609 17.8759C20.0609 18.3468 19.8738 18.7983 19.5409 19.1313C19.2079 19.4642 18.7563 19.6513 18.2854 19.6513C18.0592 19.6607 17.8334 19.6229 17.6225 19.5404C17.4116 19.4579 17.2202 19.3324 17.0604 19.1719L10.2959 12.3189L3.46037 19.1542C3.31036 19.3091 3.13114 19.4328 2.93307 19.5181C2.73499 19.6035 2.52198 19.6487 2.30633 19.6513C1.83544 19.6513 1.38385 19.4642 1.05089 19.1313C0.717924 18.7983 0.530867 18.3468 0.530867 17.8759C0.526728 17.6582 0.567114 17.442 0.649548 17.2405C0.731982 17.039 0.854724 16.8565 1.01024 16.7041L7.91677 9.88667L1.01024 2.98044C0.717619 2.69417 0.546029 2.30652 0.530867 1.89745C0.530867 1.42659 0.717924 0.975017 1.05089 0.642068C1.38385 0.309119 1.83544 0.12207 2.30633 0.12207C2.73244 0.127396 3.14079 0.299609 3.44262 0.601424Z" fill="white"/>
</svg>
